<svg width="60" height="60" viewBox="0 0 60 60" fill="none" xmlns="http://www.w3.org/2000/svg">
<rect width="60" height="60" rx="10" fill="#331345"/>
<path d="M41.25 45H33.5219C34.8201 43.8408 36.0444 42.6014 37.1875 41.2891C41.4766 36.3563 43.75 31.1562 43.75 26.25C43.75 22.6033 42.3013 19.1059 39.7227 16.5273C37.1441 13.9487 33.6467 12.5 30 12.5C26.3533 12.5 22.8559 13.9487 20.2773 16.5273C17.6987 19.1059 16.25 22.6033 16.25 26.25C16.25 31.1562 18.5172 36.3563 22.8125 41.2891C23.9556 42.6014 25.1799 43.8408 26.4781 45H18.75C18.4185 45 18.1005 45.1317 17.8661 45.3661C17.6317 45.6005 17.5 45.9185 17.5 46.25C17.5 46.5815 17.6317 46.8995 17.8661 47.1339C18.1005 47.3683 18.4185 47.5 18.75 47.5H41.25C41.5815 47.5 41.8995 47.3683 42.1339 47.1339C42.3683 46.8995 42.5 46.5815 42.5 46.25C42.5 45.9185 42.3683 45.6005 42.1339 45.3661C41.8995 45.1317 41.5815 45 41.25 45ZM18.75 26.25C18.75 23.2663 19.9353 20.4048 22.045 18.295C24.1548 16.1853 27.0163 15 30 15C32.9837 15 35.8452 16.1853 37.955 18.295C40.0647 20.4048 41.25 23.2663 41.25 26.25C41.25 35.1922 32.5828 42.6562 30 44.6875C27.4172 42.6562 18.75 35.1922 18.75 26.25ZM36.25 26.25C36.25 25.0139 35.8834 23.8055 35.1967 22.7777C34.5099 21.7499 33.5338 20.9488 32.3918 20.4758C31.2497 20.0027 29.9931 19.8789 28.7807 20.1201C27.5683 20.3612 26.4547 20.9565 25.5806 21.8306C24.7065 22.7047 24.1112 23.8183 23.8701 25.0307C23.6289 26.2431 23.7527 27.4997 24.2258 28.6418C24.6988 29.7838 25.4999 30.7599 26.5277 31.4467C27.5555 32.1334 28.7639 32.5 30 32.5C31.6576 32.5 33.2473 31.8415 34.4194 30.6694C35.5915 29.4973 36.25 27.9076 36.25 26.25ZM26.25 26.25C26.25 25.5083 26.4699 24.7833 26.882 24.1666C27.294 23.5499 27.8797 23.0693 28.5649 22.7855C29.2502 22.5016 30.0042 22.4274 30.7316 22.5721C31.459 22.7167 32.1272 23.0739 32.6517 23.5983C33.1761 24.1228 33.5333 24.791 33.6779 25.5184C33.8226 26.2458 33.7484 26.9998 33.4645 27.6851C33.1807 28.3703 32.7001 28.956 32.0834 29.368C31.4667 29.7801 30.7417 30 30 30C29.0054 30 28.0516 29.6049 27.3483 28.9017C26.6451 28.1984 26.25 27.2446 26.25 26.25Z" fill="#A932F8"/>
</svg>
