<svg width="60" height="60" viewBox="0 0 60 60" fill="none" xmlns="http://www.w3.org/2000/svg">
<rect width="60" height="60" rx="10" fill="#331345"/>
<path d="M37.5 12.5H22.5C21.5054 12.5 20.5516 12.8951 19.8483 13.5983C19.1451 14.3016 18.75 15.2554 18.75 16.25V43.75C18.75 44.7446 19.1451 45.6984 19.8483 46.4017C20.5516 47.1049 21.5054 47.5 22.5 47.5H37.5C38.4946 47.5 39.4484 47.1049 40.1517 46.4017C40.8549 45.6984 41.25 44.7446 41.25 43.75V16.25C41.25 15.2554 40.8549 14.3016 40.1517 13.5983C39.4484 12.8951 38.4946 12.5 37.5 12.5ZM21.25 20H38.75V40H21.25V20ZM22.5 15H37.5C37.8315 15 38.1495 15.1317 38.3839 15.3661C38.6183 15.6005 38.75 15.9185 38.75 16.25V17.5H21.25V16.25C21.25 15.9185 21.3817 15.6005 21.6161 15.3661C21.8505 15.1317 22.1685 15 22.5 15ZM37.5 45H22.5C22.1685 45 21.8505 44.8683 21.6161 44.6339C21.3817 44.3995 21.25 44.0815 21.25 43.75V42.5H38.75V43.75C38.75 44.0815 38.6183 44.3995 38.3839 44.6339C38.1495 44.8683 37.8315 45 37.5 45Z" fill="#A932F8"/>
</svg>
