<svg width="32" height="32" viewBox="0 0 32 32" fill="none" xmlns="http://www.w3.org/2000/svg">
<path d="M26.9961 3H4.99609C4.46566 3 3.95695 3.21071 3.58188 3.58579C3.20681 3.96086 2.99609 4.46957 2.99609 5V27C2.99609 27.5304 3.20681 28.0391 3.58188 28.4142C3.95695 28.7893 4.46566 29 4.99609 29H26.9961C27.5265 29 28.0352 28.7893 28.4103 28.4142C28.7854 28.0391 28.9961 27.5304 28.9961 27V5C28.9961 4.46957 28.7854 3.96086 28.4103 3.58579C28.0352 3.21071 27.5265 3 26.9961 3ZM26.9961 27H4.99609V5H26.9961V27ZM11.9961 14V22C11.9961 22.2652 11.8907 22.5196 11.7032 22.7071C11.5157 22.8946 11.2613 23 10.9961 23C10.7309 23 10.4765 22.8946 10.289 22.7071C10.1015 22.5196 9.99609 22.2652 9.99609 22V14C9.99609 13.7348 10.1015 13.4804 10.289 13.2929C10.4765 13.1054 10.7309 13 10.9961 13C11.2613 13 11.5157 13.1054 11.7032 13.2929C11.8907 13.4804 11.9961 13.7348 11.9961 14ZM22.9961 17.5V22C22.9961 22.2652 22.8907 22.5196 22.7032 22.7071C22.5157 22.8946 22.2613 23 21.9961 23C21.7309 23 21.4765 22.8946 21.289 22.7071C21.1014 22.5196 20.9961 22.2652 20.9961 22V17.5C20.9961 16.837 20.7327 16.2011 20.2639 15.7322C19.795 15.2634 19.1591 15 18.4961 15C17.8331 15 17.1972 15.2634 16.7283 15.7322C16.2595 16.2011 15.9961 16.837 15.9961 17.5V22C15.9961 22.2652 15.8907 22.5196 15.7032 22.7071C15.5157 22.8946 15.2613 23 14.9961 23C14.7309 23 14.4765 22.8946 14.289 22.7071C14.1015 22.5196 13.9961 22.2652 13.9961 22V14C13.9973 13.7551 14.0884 13.5191 14.2521 13.3369C14.4158 13.1546 14.6407 13.0388 14.8841 13.0114C15.1275 12.9839 15.3725 13.0468 15.5726 13.188C15.7728 13.3292 15.9141 13.539 15.9698 13.7775C16.6463 13.3186 17.435 13.0526 18.2513 13.0081C19.0675 12.9637 19.8805 13.1424 20.6028 13.5251C21.3251 13.9078 21.9296 14.48 22.3512 15.1803C22.7729 15.8806 22.9958 16.6825 22.9961 17.5ZM12.4961 10.5C12.4961 10.7967 12.4081 11.0867 12.2433 11.3334C12.0785 11.58 11.8442 11.7723 11.5701 11.8858C11.296 11.9994 10.9944 12.0291 10.7035 11.9712C10.4125 11.9133 10.1452 11.7704 9.93543 11.5607C9.72565 11.3509 9.58279 11.0836 9.52492 10.7926C9.46704 10.5017 9.49674 10.2001 9.61027 9.92597C9.72381 9.65189 9.91607 9.41762 10.1627 9.2528C10.4094 9.08797 10.6994 9 10.9961 9C11.3939 9 11.7754 9.15804 12.0568 9.43934C12.3381 9.72064 12.4961 10.1022 12.4961 10.5Z" fill="#A932F8"/>
</svg>
