<svg width="32" height="32" viewBox="0 0 32 32" fill="none" xmlns="http://www.w3.org/2000/svg">
<path d="M21.9961 2H9.99609C9.20044 2 8.43738 2.31607 7.87477 2.87868C7.31216 3.44129 6.99609 4.20435 6.99609 5V27C6.99609 27.7956 7.31216 28.5587 7.87477 29.1213C8.43738 29.6839 9.20044 30 9.99609 30H21.9961C22.7917 30 23.5548 29.6839 24.1174 29.1213C24.68 28.5587 24.9961 27.7956 24.9961 27V5C24.9961 4.20435 24.68 3.44129 24.1174 2.87868C23.5548 2.31607 22.7917 2 21.9961 2ZM8.99609 8H22.9961V24H8.99609V8ZM9.99609 4H21.9961C22.2613 4 22.5157 4.10536 22.7032 4.29289C22.8907 4.48043 22.9961 4.73478 22.9961 5V6H8.99609V5C8.99609 4.73478 9.10145 4.48043 9.28899 4.29289C9.47652 4.10536 9.73088 4 9.99609 4ZM21.9961 28H9.99609C9.73088 28 9.47652 27.8946 9.28899 27.7071C9.10145 27.5196 8.99609 27.2652 8.99609 27V26H22.9961V27C22.9961 27.2652 22.8907 27.5196 22.7032 27.7071C22.5157 27.8946 22.2613 28 21.9961 28Z" fill="#A932F8"/>
</svg>
