<svg width="32" height="32" viewBox="0 0 32 32" fill="none" xmlns="http://www.w3.org/2000/svg">
<path d="M25.7071 24.2921C25.8 24.385 25.8737 24.4953 25.924 24.6167C25.9743 24.7381 26.0001 24.8682 26.0001 24.9996C26.0001 25.131 25.9743 25.2611 25.924 25.3825C25.8737 25.5039 25.8 25.6142 25.7071 25.7071C25.6142 25.8 25.5039 25.8737 25.3825 25.924C25.2611 25.9743 25.131 26.0001 24.9996 26.0001C24.8682 26.0001 24.7381 25.9743 24.6167 25.924C24.4953 25.8737 24.385 25.8 24.2921 25.7071L15.9996 17.4133L7.70708 25.7071C7.51944 25.8947 7.26494 26.0001 6.99958 26.0001C6.73422 26.0001 6.47972 25.8947 6.29208 25.7071C6.10444 25.5194 5.99902 25.2649 5.99902 24.9996C5.99902 24.7342 6.10444 24.4797 6.29208 24.2921L14.5858 15.9996L6.29208 7.70708C6.10444 7.51944 5.99902 7.26494 5.99902 6.99958C5.99902 6.73422 6.10444 6.47972 6.29208 6.29208C6.47972 6.10444 6.73422 5.99902 6.99958 5.99902C7.26494 5.99902 7.51944 6.10444 7.70708 6.29208L15.9996 14.5858L24.2921 6.29208C24.4797 6.10444 24.7342 5.99902 24.9996 5.99902C25.2649 5.99902 25.5194 6.10444 25.7071 6.29208C25.8947 6.47972 26.0001 6.73422 26.0001 6.99958C26.0001 7.26494 25.8947 7.51944 25.7071 7.70708L17.4133 15.9996L25.7071 24.2921Z" fill="white"/>
</svg>
