<svg width="21" height="24" viewBox="0 0 21 24" fill="none" xmlns="http://www.w3.org/2000/svg">
<path d="M10.1108 23.05C9.64414 23.05 9.2008 22.7467 8.7808 22.14C8.3608 21.4867 8.1508 20.74 8.1508 19.9C8.1508 19.9 8.1508 19.8533 8.1508 19.76C8.19747 19.62 8.2908 19.34 8.4308 18.92C8.9908 17.0067 9.38747 15.5133 9.6208 14.44C9.85414 13.3667 9.9708 12.5733 9.9708 12.06C9.4108 12.3867 8.7108 12.9233 7.8708 13.67C7.07747 14.4167 6.00414 15.49 4.6508 16.89C4.3708 17.17 4.18414 17.3567 4.0908 17.45C4.04414 17.4967 4.0208 17.52 4.0208 17.52C3.3208 17.94 2.59747 18.1267 1.8508 18.08C1.10414 18.0333 0.590803 17.8233 0.310802 17.45C0.124136 17.03 0.194136 16.4933 0.520803 15.84C0.847469 15.14 1.38414 14.58 2.1308 14.16C2.17747 14.16 2.24747 14.1367 2.3408 14.09C2.4808 14.0433 2.7608 13.9733 3.1808 13.88C5.09414 13.4133 6.56414 13.0167 7.5908 12.69C8.61747 12.3633 9.36414 12.06 9.8308 11.78C9.2708 11.5 8.47747 11.1967 7.4508 10.87C6.42414 10.4967 4.97747 10.1 3.1108 9.67999C2.73747 9.58666 2.4808 9.51666 2.3408 9.46999C2.24747 9.42333 2.17747 9.39999 2.1308 9.39999C1.38414 8.97999 0.847469 8.44333 0.520803 7.78999C0.194136 7.08999 0.124136 6.55333 0.310802 6.17999C0.590803 5.75999 1.10414 5.52666 1.8508 5.47999C2.59747 5.43333 3.3208 5.61999 4.0208 6.03999C4.06747 6.03999 4.13747 6.10999 4.2308 6.25C4.3708 6.34333 4.62747 6.59999 5.0008 7.01999C6.4008 8.46666 7.47414 9.51666 8.2208 10.17C8.96747 10.8233 9.5508 11.2667 9.9708 11.5C9.92414 10.8933 9.78414 10.0767 9.5508 9.04999C9.36414 8.02333 8.9908 6.59999 8.4308 4.77999C8.33747 4.31333 8.26747 4.03333 8.2208 3.93999C8.17414 3.79999 8.1508 3.70666 8.1508 3.65999C8.1508 2.81999 8.3608 2.09666 8.7808 1.48999C9.2008 0.836661 9.64414 0.509995 10.1108 0.509995C10.5775 0.509995 11.0208 0.836661 11.4408 1.48999C11.8608 2.09666 12.0708 2.81999 12.0708 3.65999C12.0708 3.70666 12.0475 3.82333 12.0008 4.01C11.9541 4.14999 11.8608 4.49999 11.7208 5.05999C11.1608 6.92666 10.7641 8.34999 10.5308 9.32999C10.3441 10.2633 10.2508 10.9867 10.2508 11.5C10.8108 11.1733 11.4875 10.6367 12.2808 9.88999C13.1208 9.14333 14.2175 8.06999 15.5708 6.66999C15.8508 6.39 16.0141 6.22666 16.0608 6.17999C16.1541 6.08666 16.2008 6.03999 16.2008 6.03999C16.9008 5.61999 17.6241 5.43333 18.3708 5.47999C19.1175 5.52666 19.6308 5.75999 19.9108 6.17999C20.0975 6.55333 20.0275 7.08999 19.7008 7.78999C19.3741 8.44333 18.8375 8.97999 18.0908 9.39999C18.0908 9.39999 18.0208 9.42333 17.8808 9.46999C17.7408 9.51666 17.4375 9.58666 16.9708 9.67999C15.0575 10.1467 13.5875 10.5433 12.5608 10.87C11.5808 11.1967 10.8808 11.5 10.4608 11.78C10.9741 12.06 11.7208 12.3633 12.7008 12.69C13.7275 13.0167 15.1508 13.4133 16.9708 13.88C17.4375 13.9733 17.7408 14.0433 17.8808 14.09C18.0208 14.1367 18.0908 14.16 18.0908 14.16C18.8375 14.58 19.3741 15.14 19.7008 15.84C20.0275 16.4933 20.0975 17.03 19.9108 17.45C19.6308 17.8233 19.1175 18.0333 18.3708 18.08C17.6241 18.1267 16.9008 17.94 16.2008 17.52C16.2008 17.52 16.1308 17.4733 15.9908 17.38C15.8975 17.24 15.6408 16.96 15.2208 16.54C13.8675 15.14 12.7941 14.1133 12.0008 13.46C11.2541 12.76 10.6708 12.2933 10.2508 12.06C10.2975 12.7133 10.4375 13.5767 10.6708 14.65C10.9041 15.7233 11.2775 17.17 11.7908 18.99C11.9308 19.3633 12.0008 19.62 12.0008 19.76C12.0475 19.8533 12.0708 19.9 12.0708 19.9C12.0708 20.74 11.8608 21.4867 11.4408 22.14C11.0208 22.7467 10.5775 23.05 10.1108 23.05Z" fill="#FFA353"/>
</svg>
