<svg width="53" height="42" viewBox="0 0 53 42" fill="none" xmlns="http://www.w3.org/2000/svg">
<path d="M25.5559 32C24.0559 34.8333 22.0559 37.1333 19.5559 38.9C17.0892 40.6333 14.5725 41.5 12.0059 41.5C8.47253 41.5 5.58919 40.3833 3.35586 38.15C1.12253 35.9167 0.00585938 33.0333 0.00585938 29.5C0.00585938 25.9 1.45586 22.6667 4.35586 19.8C7.28919 16.9333 10.5892 15.5 14.2559 15.5C16.5225 15.5 18.4725 15.8833 20.1059 16.65C21.7725 17.4167 22.6059 18.2833 22.6059 19.25C22.6059 19.7833 22.3725 20.2667 21.9059 20.7C21.4392 21.1 20.8559 21.3 20.1559 21.3C19.8559 21.3 19.5559 21.2 19.2559 21C18.9559 20.8 18.4892 20.35 17.8559 19.65C16.7559 18.45 15.7725 17.65 14.9059 17.25C14.0725 16.8167 13.1559 16.6 12.1559 16.6C9.52253 16.6 7.37253 17.5833 5.70586 19.55C4.07253 21.4833 3.25586 24.05 3.25586 27.25C3.25586 30.5833 4.32253 33.3333 6.45586 35.5C8.62253 37.6333 11.3725 38.7 14.7059 38.7C16.9725 38.7 18.9559 38.15 20.6559 37.05C22.3559 35.9167 23.8559 34.1833 25.1559 31.85C25.1892 31.75 25.2392 31.6833 25.3059 31.65C25.3725 31.6167 25.4392 31.6167 25.5059 31.65C25.5725 31.6833 25.6059 31.7333 25.6059 31.8C25.6059 31.8667 25.5892 31.9333 25.5559 32Z" fill="#2E1222"/>
<path d="M52.9055 27.25C52.9055 31.1833 51.4721 34.55 48.6055 37.35C45.7388 40.1167 42.4055 41.5 38.6055 41.5C37.2055 41.5 35.8388 41.2333 34.5055 40.7C33.1721 40.1667 32.0055 39.4333 31.0055 38.5C30.3055 39.4667 29.8055 40.1333 29.5055 40.5C29.2055 40.8667 28.9888 41.05 28.8555 41.05C28.7888 41.05 28.7221 41.0167 28.6555 40.95C28.6221 40.85 28.6055 40.7333 28.6055 40.6V6.95C28.6055 6.11666 28.5721 5.46666 28.5055 5C28.4721 4.5 28.3888 4.11667 28.2555 3.85C28.1221 3.58333 27.9221 3.41666 27.6555 3.35C27.4221 3.25 26.6721 3.31666 25.4055 3.55C25.2055 3.58333 25.1055 3.53333 25.1055 3.4C25.1055 3.23333 25.2055 3.13333 25.4055 3.1C25.9055 3 26.4055 2.86666 26.9055 2.7C27.4388 2.5 27.9888 2.26667 28.5555 2C28.9888 1.76666 29.5221 1.46666 30.1555 1.1C30.8221 0.699997 31.2555 0.449997 31.4555 0.349998C31.5555 0.283331 31.7221 0.299997 31.9555 0.399998C32.2221 0.499999 32.3555 0.599998 32.3555 0.699997V20.9C33.5555 19.2 35.0388 17.8833 36.8055 16.95C38.6055 15.9833 40.4555 15.5 42.3555 15.5C45.2888 15.5 47.7721 16.6333 49.8055 18.9C51.8721 21.1333 52.9055 23.9167 52.9055 27.25ZM32.3555 21.45V35.7C33.8888 37.3333 35.3388 38.5333 36.7055 39.3C38.0721 40.0333 39.4055 40.4 40.7055 40.4C43.4388 40.4 45.5388 39.4167 47.0055 37.45C48.4721 35.4833 49.2055 32.6833 49.2055 29.05C49.2055 25.6833 48.3388 22.8667 46.6055 20.6C44.9055 18.3 42.6721 17.15 39.9055 17.15C38.4721 17.15 37.0555 17.55 35.6555 18.35C34.2888 19.1167 33.1888 20.15 32.3555 21.45Z" fill="#2E1222"/>
</svg>
