<?xml version="1.0" encoding="UTF-8"?>
<svg width="512px" height="512px" viewBox="0 0 512 512" version="1.1" xmlns="http://www.w3.org/2000/svg" xmlns:xlink="http://www.w3.org/1999/xlink">
    <!-- Generator: Sketch 63.1 (92452) - https://sketch.com -->
    <title>Group</title>
    <desc>Created with Sketch.</desc>
    <g id="Page-1" stroke="none" stroke-width="1" fill="none" fill-rule="evenodd">
        <g id="Group" fill="#000000" fill-rule="nonzero">
            <path d="M510.5,150.5 C509.300781,123.300781 504.902343,104.601562 498.601562,88.398438 C492.101562,71.199219 482.101562,55.800781 469,43 C456.199219,30 440.699219,19.898438 423.699219,13.5 C407.402343,7.199219 388.800781,2.800781 361.601562,1.601562 C334.199219,0.300781 325.5,0 256,0 C186.5,0 177.800781,0.300781 150.5,1.5 C123.300781,2.699219 104.601562,7.101562 88.402343,13.398438 C71.199219,19.898438 55.800781,29.898438 43,43 C30,55.800781 19.902343,71.300781 13.5,88.300781 C7.199219,104.601562 2.800781,123.199219 1.601562,150.398438 C0.300781,177.800781 -2.84217094e-14,186.5 -2.84217094e-14,256 C-2.84217094e-14,325.5 0.300781,334.199219 1.5,361.5 C2.699219,388.699219 7.101562,407.398438 13.402343,423.601562 C19.902343,440.800781 30,456.199219 43,469 C55.800781,482 71.300781,492.101562 88.300781,498.5 C104.601562,504.800781 123.199219,509.199219 150.402343,510.398438 C177.699219,511.601562 186.402343,511.898438 255.902343,511.898438 C325.402343,511.898438 334.101562,511.601562 361.402343,510.398438 C388.601562,509.199219 407.300781,504.800781 423.5,498.5 C457.902343,485.199219 485.101562,458 498.402343,423.601562 C504.699219,407.300781 509.101562,388.699219 510.300781,361.5 C511.5,334.199219 511.800781,325.5 511.800781,256 C511.800781,186.5 511.699219,177.800781 510.5,150.5 Z M464.402343,359.5 C463.300781,384.5 459.101562,398 455.601562,407 C447,429.300781 429.300781,447 407,455.601562 C398,459.101562 384.402343,463.300781 359.5,464.398438 C332.5,465.601562 324.402343,465.898438 256.101562,465.898438 C187.800781,465.898438 179.601562,465.601562 152.699219,464.398438 C127.699219,463.300781 114.199219,459.101562 105.199219,455.601562 C94.101562,451.5 84,445 75.800781,436.5 C67.300781,428.199219 60.800781,418.199219 56.699219,407.101562 C53.199219,398.101562 49,384.5 47.902343,359.601562 C46.699219,332.601562 46.402343,324.5 46.402343,256.199219 C46.402343,187.898438 46.699219,179.699219 47.902343,152.800781 C49,127.800781 53.199219,114.300781 56.699219,105.300781 C60.800781,94.199219 67.300781,84.101562 75.902343,75.898438 C84.199219,67.398438 94.199219,60.898438 105.300781,56.800781 C114.300781,53.300781 127.902343,49.101562 152.800781,48 C179.800781,46.800781 187.902343,46.5 256.199219,46.5 C324.601562,46.5 332.699219,46.800781 359.601562,48 C384.601562,49.101562 398.101562,53.300781 407.101562,56.800781 C418.199219,60.898438 428.300781,67.398438 436.5,75.898438 C445,84.199219 451.5,94.199219 455.601562,105.300781 C459.101562,114.300781 463.300781,127.898438 464.402343,152.800781 C465.601562,179.800781 465.902343,187.898438 465.902343,256.199219 C465.902343,324.5 465.601562,332.5 464.402343,359.5 Z" id="Shape"></path>
            <g id="pinterest" transform="translate(137.000000, 109.000000)">
                <path d="M122.985179,0 C42.6835222,0.0122501733 0,51.6467307 0,107.948527 C0,134.053647 14.5370532,166.626858 37.8134263,176.953754 C44.4533566,179.955046 43.5745423,176.292244 49.2868352,154.364434 C49.7384481,152.539158 49.5065388,150.958886 48.0418483,149.256112 C14.7689625,110.631315 41.5483871,31.2256918 118.23714,31.2256918 C229.224063,31.2256918 208.486486,185.357373 137.546643,185.357373 C119.262424,185.357373 105.640802,170.951169 109.949433,153.127167 C115.173496,131.897616 125.401918,109.075543 125.401918,93.7750768 C125.401918,55.2115312 68.1569311,60.9323621 68.1569311,112.027835 C68.1569311,127.818308 73.722755,138.475959 73.722755,138.475959 C73.722755,138.475959 55.304272,213.153016 51.8866609,227.105963 C46.1011334,250.724297 52.6678291,288.957088 53.2414996,292.252385 C53.5954664,294.065411 55.6216216,294.641169 56.7567568,293.146648 C58.5754141,290.757864 80.8387097,258.882913 87.07585,235.840337 C89.3461203,227.448968 98.6591107,193.393486 98.6591107,193.393486 C104.798605,204.516644 122.496949,213.826775 141.354839,213.826775 C197.452485,213.826775 238,164.336075 238,102.925956 C237.804708,44.0516233 187.602441,0 122.985179,0 Z" id="Path"></path>
            </g>
        </g>
    </g>
</svg>