<?xml version="1.0" encoding="UTF-8"?>
<svg width="30px" height="30px" viewBox="0 0 30 30" version="1.1" xmlns="http://www.w3.org/2000/svg" xmlns:xlink="http://www.w3.org/1999/xlink">
    <title>linkedin</title>
    <g id="Page-1" stroke="none" stroke-width="1" fill="none" fill-rule="evenodd">
        <g id="linkedin" fill="#280334" fill-rule="nonzero">
            <path d="M27.727587,0 L2.21206497,0 C0.990278422,0 0,0.960069606 0,2.1450348 L0,27.7926682 C0,28.977703 0.99062645,29.9386079 2.21206497,29.9386079 L27.727587,29.9386079 C28.9490951,29.9386079 29.9382599,28.9770766 29.9382599,27.7926682 L29.9382599,2.1450348 C29.9382599,0.960417633 28.9490951,0 27.727587,0 Z M9.07642692,25.0606497 L4.55296984,25.0606497 L4.55296984,11.5437355 L9.07642692,11.5437355 L9.07642692,25.0606497 Z M6.81515081,9.69709977 L6.78473318,9.69709977 C5.26781903,9.69709977 4.28450116,8.65969838 4.28450116,7.36092807 C4.28450116,6.03598608 5.29670534,5.02670534 6.8436891,5.02670534 C8.39081207,5.02670534 9.3424594,6.03570766 9.372529,7.36092807 C9.372529,8.6599768 8.39116009,9.69709977 6.81515081,9.69709977 Z M25.3821578,25.0606497 L20.8601624,25.0606497 L20.8601624,17.8286311 C20.8601624,16.0114385 20.2049652,14.7714849 18.569652,14.7714849 C17.3186311,14.7714849 16.5760093,15.6080046 16.2499072,16.4156381 C16.1290719,16.7040835 16.0991415,17.1075174 16.0991415,17.5103944 L16.0991415,25.0603712 L11.5779814,25.0603712 C11.5779814,25.0603712 11.6371462,12.8112529 11.5779814,11.5435267 L16.0998376,11.5435267 L16.0998376,13.4598376 C16.700116,12.5390255 17.7728074,11.2254988 20.1741299,11.2254988 C23.150464,11.2254988 25.3821578,13.1562877 25.3821578,17.31 L25.3821578,25.0606497 Z" id="LinkedIn__x28_alt_x29_"></path>
        </g>
    </g>
</svg>