<?xml version="1.0" encoding="UTF-8"?>
<svg width="74px" height="74px" viewBox="0 0 74 74" version="1.1" xmlns="http://www.w3.org/2000/svg" xmlns:xlink="http://www.w3.org/1999/xlink">
    <title>stuart-wakeford-logo</title>
    <defs>
        <linearGradient x1="100%" y1="62.779321%" x2="0%" y2="37.220679%" id="linearGradient-1">
            <stop stop-color="#5516D8" offset="0%"></stop>
            <stop stop-color="#A14FF0" offset="100%"></stop>
        </linearGradient>
    </defs>
    <g id="Page-1" stroke="none" stroke-width="1" fill="none" fill-rule="evenodd">
        <g id="Desktop-HD-Copy" transform="translate(-57.000000, -41.000000)">
            <g id="stuart-wakeford-logo" transform="translate(57.000000, 41.000000)">
                <rect id="Rectangle-Copy-11" fill="#FFFFFF" x="0" y="0" width="74" height="74" rx="10"></rect>
                <path d="M22.324,48.448 C20.596,48.448 19.0706667,48.1386667 17.748,47.52 C16.4253333,46.9013333 15.3906667,46.016 14.644,44.864 C13.8973333,43.712 13.524,42.3253333 13.524,40.704 L13.524,39.808 L17.684,39.808 L17.684,40.704 C17.684,42.048 18.1,43.056 18.932,43.728 C19.764,44.4 20.8946667,44.736 22.324,44.736 C23.7746667,44.736 24.8573333,44.448 25.572,43.872 C26.2866667,43.296 26.644,42.56 26.644,41.664 C26.644,41.0453333 26.468,40.544 26.116,40.16 C25.764,39.776 25.252,39.4613333 24.58,39.216 C23.908,38.9706667 23.092,38.7413333 22.132,38.528 L21.396,38.368 C19.86,38.0266667 18.5426667,37.5946667 17.444,37.072 C16.3453333,36.5493333 15.5026667,35.8613333 14.916,35.008 C14.3293333,34.1546667 14.036,33.0453333 14.036,31.68 C14.036,30.3146667 14.3613333,29.1466667 15.012,28.176 C15.6626667,27.2053333 16.58,26.4586667 17.764,25.936 C18.948,25.4133333 20.34,25.152 21.94,25.152 C23.54,25.152 24.964,25.424 26.212,25.968 C27.46,26.512 28.4413333,27.3226667 29.156,28.4 C29.8706667,29.4773333 30.228,30.8266667 30.228,32.448 L30.228,33.408 L26.068,33.408 L26.068,32.448 C26.068,31.5946667 25.9026667,30.9066667 25.572,30.384 C25.2413333,29.8613333 24.7666667,29.4773333 24.148,29.232 C23.5293333,28.9866667 22.7933333,28.864 21.94,28.864 C20.66,28.864 19.716,29.104 19.108,29.584 C18.5,30.064 18.196,30.72 18.196,31.552 C18.196,32.1066667 18.34,32.576 18.628,32.96 C18.916,33.344 19.348,33.664 19.924,33.92 C20.5,34.176 21.236,34.4 22.132,34.592 L22.868,34.752 C24.468,35.0933333 25.86,35.5306667 27.044,36.064 C28.228,36.5973333 29.1506667,37.3013333 29.812,38.176 C30.4733333,39.0506667 30.804,40.1706667 30.804,41.536 C30.804,42.9013333 30.4573333,44.1013333 29.764,45.136 C29.0706667,46.1706667 28.0893333,46.9813333 26.82,47.568 C25.5506667,48.1546667 24.052,48.448 22.324,48.448 Z M35.732,48 L32.788,25.6 L36.98,25.6 L39.156,45.056 L39.732,45.056 L42.548,25.6 L49.844,25.6 L52.66,45.056 L53.236,45.056 L55.412,25.6 L59.604,25.6 L56.66,48 L49.364,48 L46.484,28.096 L45.908,28.096 L43.028,48 L35.732,48 Z" id="Shape" fill="url(#linearGradient-1)" fill-rule="nonzero"></path>
            </g>
        </g>
    </g>
</svg>