<?xml version="1.0" encoding="UTF-8"?>
<svg width="30px" height="30px" viewBox="0 0 30 30" version="1.1" xmlns="http://www.w3.org/2000/svg" xmlns:xlink="http://www.w3.org/1999/xlink">
    <!-- Generator: Sketch 59.1 (86144) - https://sketch.com -->
    <title>icno/linkedin/black copy</title>
    <desc>Created with Sketch.</desc>
    <g id="Page-1" stroke="none" stroke-width="1" fill="none" fill-rule="evenodd">
        <g id="Home-&gt;-Desktop-Copy-30" transform="translate(-261.000000, -6123.000000)">
            <g id="icno/twitter/black" transform="translate(261.000000, 6123.000000)">
                <path d="M27.727587,0 L2.21206497,0 C0.990278422,0 0,0.960069606 0,2.1450348 L0,27.7926682 C0,28.977703 0.99062645,29.9386079 2.21206497,29.9386079 L27.727587,29.9386079 C28.9490951,29.9386079 29.9382599,28.9770766 29.9382599,27.7926682 L29.9382599,2.1450348 C29.9382599,0.960417633 28.9490951,0 27.727587,0 Z" id="LinkedIn__x28_alt_x29_" fill="#000000" fill-rule="nonzero"></path>
                <path d="M11.5822559,22.4473086 C18.5167619,22.4473086 22.3089941,16.717155 22.3089941,11.7482921 C22.3089941,11.5854425 22.3057099,11.4233728 22.2982032,11.262161 C23.0343327,10.7314179 23.674204,10.0691785 24.1790322,9.3151411 C23.5034257,9.61447865 22.7765232,9.81616882 22.0139637,9.90710879 C22.7922404,9.44164592 23.3898863,8.70500102 23.6717018,7.82703261 C22.9431572,8.25771055 22.1365737,8.57108685 21.2778342,8.73978595 C20.5898729,8.00883454 19.6100871,7.55171694 18.5259108,7.55171694 C16.4437292,7.55171694 14.7552604,9.23574412 14.7552604,11.3117647 C14.7552604,11.6068906 14.7884152,11.8938272 14.8530826,12.1691429 C11.7198013,12.0120648 8.94136972,10.515611 7.08212265,8.24039608 C6.75800358,8.79594098 6.57150804,9.44164592 6.57150804,10.1303251 C6.57150804,11.4349938 7.23710552,12.58664 8.24918588,13.2604224 C7.6308965,13.2414701 7.04982803,13.0719131 6.54171567,12.790046 C6.54085553,12.8057226 6.54085553,12.8214772 6.54085553,12.8379338 C6.54085553,14.6593068 7.84061601,16.1797045 9.56552374,16.524512 C9.24891141,16.6104604 8.9156435,16.6567883 8.57166285,16.6567883 C8.32878859,16.6567883 8.09256091,16.6327664 7.86297983,16.5889343 C8.34286372,18.0828923 9.73458175,19.1701162 11.3849695,19.2006895 C10.0943578,20.2093744 8.46891437,20.8103892 6.70248499,20.8103892 C6.39830569,20.8103892 6.09819255,20.7929968 5.80316209,20.7582898 C7.47169109,21.8247676 9.45276627,22.4473086 11.5822559,22.4473086" id="Fill-4" fill="#FFFFFF" fill-rule="evenodd"></path>
            </g>
        </g>
    </g>
</svg>