<?xml version="1.0" encoding="UTF-8"?>
<svg width="50px" height="58px" viewBox="0 0 50 58" version="1.1" xmlns="http://www.w3.org/2000/svg" xmlns:xlink="http://www.w3.org/1999/xlink">
    <!-- Generator: Sketch 59.1 (86144) - https://sketch.com -->
    <title>logo10</title>
    <desc>Created with Sketch.</desc>
    <g id="Page-1" stroke="none" stroke-width="1" fill="none" fill-rule="evenodd" opacity="0.300000012">
        <g id="Home-&gt;-Desktop-Copy-30" transform="translate(-584.000000, -2861.000000)" fill="#000000">
            <g id="logo/land-sec" transform="translate(584.000000, 2861.000000)">
                <polygon id="Path" fill-rule="nonzero" points="0.0637362637 43.0365524 42.7978022 43.028819 28.5532967 28.7083429 14.3087912 28.7083429 14.3087912 14.3889714 14.3082418 14.3889714 0.0631868132 0.0679428571"></polygon>
                <g id="Clipped" stroke-width="1" fill-rule="evenodd" transform="translate(42.857143, 50.266667)">
                    <path d="M5.44835165,4.8167619 C5.14065934,5.21668571 4.60604396,5.58401905 3.94285714,5.58401905 C2.85989011,5.58401905 2.10604396,4.81234286 2.10604396,3.76447619 C2.10604396,2.74478095 2.87362637,1.93167619 3.9021978,1.93167619 C4.54395604,1.93167619 5.07692308,2.26034286 5.43296703,2.726 L6.62582418,1.52622857 C6.00274725,0.776095238 5.01043956,0.277847619 3.9021978,0.277847619 C1.87307692,0.277847619 0.324175824,1.8212 0.324175824,3.76447619 C0.324175824,5.69394286 1.83186813,7.23729524 3.88791209,7.23729524 C5.00824176,7.23729524 5.91648352,6.86499048 6.65659341,6.03144762 L5.44835165,4.8167619 Z" id="Path" fill-rule="nonzero"></path>
                </g>
                <g id="Clipped" stroke-width="1" fill-rule="evenodd" transform="translate(21.978022, 47.504762)">
                    <path d="M5.35824176,3.66062857 C4.83736264,3.24689524 4.20659341,3.04030476 3.48021978,3.04030476 C1.67087912,3.04030476 0.217582418,4.5560381 0.217582418,6.52748571 C0.217582418,7.43670476 0.546703297,8.26361905 1.06758242,8.86958095 C1.65659341,9.5584 2.58901099,9.99975238 3.57582418,9.99975238 C4.24725275,9.99975238 4.87802198,9.7931619 5.42637363,9.32419048 L5.42637363,9.86220952 L7.13956044,9.86220952 L7.13956044,0.21487619 L5.35769231,0.21487619 L5.35769231,3.66062857 L5.35824176,3.66062857 Z M5.35824176,7.51900952 C5.01593407,8.01504762 4.42637363,8.34592381 3.7543956,8.34592381 C2.75384615,8.34592381 2,7.5748 2,6.52693333 C2,5.56247619 2.67197802,4.69358095 3.71318681,4.69358095 C4.3989011,4.69358095 4.98791209,5.02500952 5.35824176,5.52049524 L5.35824176,7.51900952 L5.35824176,7.51900952 Z" id="Shape" fill-rule="nonzero"></path>
                </g>
                <g id="Clipped" stroke-width="1" fill-rule="evenodd" transform="translate(0.000000, 47.504762)">
                    <polygon id="Path" fill-rule="nonzero" points="1.92582418 0.21487619 0.0752747253 0.21487619 0.0752747253 9.86220952 5.96978022 9.86220952 5.96978022 8.20838095 1.92582418 8.20838095"></polygon>
                </g>
                <g id="Clipped" stroke-width="1" fill-rule="evenodd" transform="translate(6.043956, 50.266667)">
                    <path d="M5.68351648,0.953409524 C5.16263736,0.526419048 4.49065934,0.277847619 3.73736264,0.277847619 C1.92802198,0.277847619 0.474725275,1.79413333 0.474725275,3.76502857 C0.474725275,4.67424762 0.803846154,5.5011619 1.32472527,6.10712381 C1.91428571,6.79594286 2.84615385,7.23729524 3.83296703,7.23729524 C4.5043956,7.23729524 5.13571429,7.03070476 5.68351648,6.56173333 L5.68351648,7.09975238 L7.3967033,7.09975238 L7.3967033,0.415942857 L5.68351648,0.415942857 L5.68351648,0.953409524 L5.68351648,0.953409524 Z M5.61483516,4.75710476 C5.27197802,5.25314286 4.68241758,5.58401905 4.01098901,5.58401905 C3.01043956,5.58401905 2.25659341,4.81289524 2.25659341,3.76502857 C2.25659341,2.80057143 2.92802198,1.93167619 3.97032967,1.93167619 C4.65549451,1.93167619 5.24450549,2.26310476 5.61538462,2.75859048 L5.61538462,4.75710476 L5.61483516,4.75710476 Z" id="Shape" fill-rule="nonzero"></path>
                </g>
                <g id="Clipped" stroke-width="1" fill-rule="evenodd" transform="translate(14.285714, 50.266667)">
                    <path d="M3.98186813,0.2784 C3.24175824,0.2784 2.61098901,0.540780952 2.10384615,0.953961905 L2.10384615,0.416495238 L0.39010989,0.416495238 L0.39010989,7.10030476 L2.17252747,7.10030476 L2.17252747,2.75969524 C2.41923077,2.41500952 3.03626374,1.93278095 3.79010989,1.93278095 C4.20164835,1.93278095 4.55769231,2.07087619 4.79065934,2.30508571 C5.03736264,2.55255238 5.18791209,2.8972381 5.18791209,3.55954286 L5.18791209,7.10085714 L6.97032967,7.10085714 L6.97032967,3.69708571 C6.97032967,2.55310476 6.72362637,1.87754286 6.28461538,1.3544381 C5.73681319,0.692133333 4.90054945,0.2784 3.98186813,0.2784" id="Path" fill-rule="nonzero"></path>
                </g>
                <g id="Clipped" stroke-width="1" fill-rule="evenodd" transform="translate(35.714286, 50.266667)">
                    <path d="M3.53241758,0.2784 C1.55824176,0.2784 0.297252747,1.90460952 0.297252747,3.76558095 C0.297252747,5.86020952 1.79120879,7.23784762 3.77857143,7.23784762 C4.80659341,7.23784762 5.86263736,6.81085714 6.50659341,6.03862857 L5.49230769,5.01893333 C5.17747253,5.36361905 4.57417582,5.79060952 3.81978022,5.79060952 C2.87362637,5.79060952 2.11978022,5.14266667 2.02417582,4.20582857 L6.63021978,4.20582857 C6.65769231,4.05447619 6.67033037,3.8744 6.67033037,3.69542857 C6.67142857,1.8355619 5.36923077,0.2784 3.53241758,0.2784 M2.10714286,2.89668571 C2.18901099,2.29072381 2.79230769,1.72508571 3.53296703,1.72508571 C4.25879121,1.72508571 4.79395604,2.30453333 4.8489011,2.89668571 L2.10714286,2.89668571 Z" id="Shape" fill-rule="nonzero"></path>
                </g>
                <path d="M33.0373626,52.0602476 C33.3906593,52.0602476 33.6873626,52.1552571 34.0269231,52.3281524 L35.132967,51.1996381 C34.6241758,50.8422476 33.7192308,50.5417524 32.9005495,50.5439378 C31.5840659,50.5489333 30.3505495,51.3432571 30.3505495,52.6253333 C30.3505495,54.7752 33.5714286,54.4167048 33.5714286,55.4231429 C33.5714286,55.7534667 33.2010989,55.9876762 32.7214286,55.9876762 C32.1637363,55.9876762 31.4478022,55.777219 30.9769231,55.3894476 L29.8747253,56.4975238 C30.6527473,57.0670286 31.7972527,57.5034095 32.7071429,57.5034095 C34.1054945,57.5034095 35.3527478,56.7173714 35.3527478,55.4364 C35.3538462,53.1219238 32.1324176,53.4660571 32.1324176,52.5982667 C32.1324176,52.253581 32.5434066,52.0602476 33.0373626,52.0602476 Z" id="Path" fill-rule="nonzero"></path>
            </g>
        </g>
    </g>
</svg>