<?xml version="1.0" encoding="UTF-8"?>
<svg width="50px" height="50px" viewBox="0 0 50 50" version="1.1" xmlns="http://www.w3.org/2000/svg" xmlns:xlink="http://www.w3.org/1999/xlink">
    <!-- Generator: Sketch 59.1 (86144) - https://sketch.com -->
    <title>logo2</title>
    <desc>Created with Sketch.</desc>
    <g id="Page-1" stroke="none" stroke-width="1" fill="none" fill-rule="evenodd" opacity="0.300000012">
        <g id="Home-&gt;-Desktop-Copy-30" transform="translate(-584.000000, -2625.000000)" fill="#000000" fill-rule="nonzero">
            <g id="logo/bt" transform="translate(584.000000, 2625.000000)">
                <path d="M26.2251237,16.4752574 L38.6747958,16.4752574 L38.6747958,20.1248155 L34.4999808,20.1248155 L34.4999808,33.4748931 L30.3999386,33.4748931 L30.3999386,20.1248155 L26.2251237,20.1248155 L26.2251237,16.4752574 L26.2251237,16.4752574 Z M25,46.9256284 C12.9002262,46.9256284 3.07527129,37.1004851 3.07527129,25.0004793 C3.07527129,12.9004736 12.9002262,3.07533025 25,3.07533025 C37.0997738,3.07533025 46.9256873,12.9004736 46.9256873,25.0004793 C46.9256873,37.1004851 37.1007324,46.9256284 25,46.9256284 L25,46.9256284 Z M25,50 C38.7994172,50 50,38.8001611 50,24.9995207 C50,11.1988803 38.8003758,0 25,0 C11.2005828,0 0,11.1998389 0,25.0004793 C0,38.8011197 11.2005828,50 25,50 L25,50 Z M20.7753365,28.2752075 C20.7753365,27.2005675 20.100464,26.4748739 18.9501131,26.4748739 L16.1998159,26.4748739 L16.1998159,30.024734 L18.9501131,30.024734 C20.100464,30.0256917 20.7753365,29.2999981 20.7753365,28.2752075 L20.7753365,28.2752075 Z M20.2758925,21.4506202 C20.2758925,20.5504534 19.7007171,19.9254175 18.7257947,19.9254175 L16.2007746,19.9254175 L16.2007746,23.0256725 L18.7257947,23.0256725 C19.7007171,23.0247138 20.2758925,22.4006365 20.2758925,21.4506202 L20.2758925,21.4506202 Z M24.9252272,28.4755642 C24.9252272,31.7004429 22.6504084,33.4758518 19.4006672,33.4758518 L12.1553741,33.4758518 L12.1553741,16.4752574 L18.9261475,16.4752574 C22.2008129,16.4752574 24.4257832,18.1500086 24.4257832,21.2253389 C24.4257832,22.6249593 23.8007592,23.8750312 22.8009126,24.6256495 C23.9503048,25.3005349 24.9252272,26.6004563 24.9252272,28.4755642 L24.9252272,28.4755642 Z" id="Shape"></path>
            </g>
        </g>
    </g>
</svg>