<?xml version="1.0" encoding="UTF-8"?>
<svg width="100px" height="19px" viewBox="0 0 100 19" version="1.1" xmlns="http://www.w3.org/2000/svg" xmlns:xlink="http://www.w3.org/1999/xlink">
    <!-- Generator: Sketch 59.1 (86144) - https://sketch.com -->
    <title>logo11</title>
    <desc>Created with Sketch.</desc>
    <g id="Page-1" stroke="none" stroke-width="1" fill="none" fill-rule="evenodd" opacity="0.300000012">
        <g id="Home-&gt;-Desktop-Copy-30" transform="translate(-742.000000, -2881.000000)">
            <g id="logo/kantar" transform="translate(742.000000, 2881.000000)">
                <path d="M23.0023333,1.42108547e-14 L16.105,18.8393333 L19.739,18.8393333 L21.3616667,14.3943333 L28.1176667,14.3943333 L29.7583333,18.8393333 L33.392,18.8393333 L26.4596667,1.42108547e-14 L23.0023333,1.42108547e-14 Z M24.7486667,5.13333333 L26.936,11.166 L22.5436667,11.166 L24.7486667,5.13333333 L24.7486667,5.13333333 Z" id="Fill-1" fill="#000000" fill-rule="evenodd"></path>
                <path d="M71.847,1.42108547e-14 L64.95,18.8393333 L68.5833333,18.8393333 L70.2063333,14.3943333 L76.9623333,14.3943333 L78.603,18.8393333 L82.2366667,18.8393333 L75.322,1.42108547e-14 L71.847,1.42108547e-14 Z M73.593,5.13333333 L75.7806667,11.166 L71.388,11.166 L73.593,5.13333333 L73.593,5.13333333 Z" id="Fill-2" fill="#000000" fill-rule="evenodd"></path>
                <polyline id="Fill-3" fill="#000000" fill-rule="evenodd" points="47.5216667 1.42108547e-14 47.5216667 11.9776667 37.8726667 1.42108547e-14 35.1033333 1.42108547e-14 35.1033333 18.8393333 38.737 18.8393333 38.737 6.562 48.633 18.8393333 51.1556667 18.8393333 51.1556667 1.42108547e-14 47.5216667 1.42108547e-14"></polyline>
                <polyline id="Fill-4" fill="#000000" fill-rule="evenodd" points="53.325 1.42108547e-14 53.325 3.228 58.2993333 3.228 58.2993333 18.8393333 61.9156667 18.8393333 61.9156667 3.228 66.89 3.228 66.89 1.42108547e-14 53.325 1.42108547e-14"></polyline>
                <path d="M87.5813333,3.228 L90.8626667,3.228 C92.0973333,3.228 92.715,3.528 93.1556667,3.98666667 C93.5616667,4.41 93.773,4.97466667 93.773,5.60966667 C93.773,6.227 93.5616667,6.77366667 93.1556667,7.197 C92.7323333,7.65566667 92.1153333,7.95566667 90.8626667,7.95566667 L87.5813333,7.95566667 L87.5813333,3.228 Z M100,18.8393333 L94.108,10.69 C94.849,10.4073333 95.4313333,10.0016667 95.925,9.508 C96.86,8.53766667 97.407,7.09133333 97.407,5.60966667 C97.407,4.12766667 96.86,2.68133333 95.925,1.711 C94.8843333,0.582 93.4556667,1.42108547e-14 91.0213333,1.42108547e-14 L83.948,1.42108547e-14 L83.948,18.8393333 L87.5813333,18.8393333 L87.5813333,11.166 L90.545,11.166 L96.0486667,18.8393333 L100,18.8393333 L100,18.8393333 Z" id="Fill-5" fill="#000000" fill-rule="evenodd"></path>
                <polyline id="Fill-6" fill="#000000" fill-rule="evenodd" points="15.223 1.42108547e-14 11.2893333 1.42108547e-14 4.53333333 9.41966667 11.2893333 18.8393333 15.223 18.8393333 8.48466667 9.41966667 15.223 1.42108547e-14"></polyline>
                <polygon id="Fill-7" points="2.452 18.8393333 4.44533333 18.8393333 4.44533333 1.42108547e-14 2.452 1.42108547e-14"></polygon>
                <polygon id="Fill-9" fill="#000000" fill-rule="evenodd" points="-5.81756865e-14 18.8393333 2.43433333 18.8393333 2.43433333 1.42108547e-14 -5.81756865e-14 1.42108547e-14"></polygon>
                <polygon id="Fill-9" fill="#000000" fill-rule="evenodd" opacity="0.5" points="2 18.8393333 4.43433333 18.8393333 4.43433333 1.42108547e-14 2 1.42108547e-14"></polygon>
            </g>
        </g>
    </g>
</svg>