<?xml version="1.0" encoding="UTF-8"?>
<svg width="128px" height="17px" viewBox="0 0 128 17" version="1.1" xmlns="http://www.w3.org/2000/svg" xmlns:xlink="http://www.w3.org/1999/xlink">
    <!-- Generator: Sketch 59.1 (86144) - https://sketch.com -->
    <title>logo7</title>
    <desc>Created with Sketch.</desc>
    <g id="Page-1" stroke="none" stroke-width="1" fill="none" fill-rule="evenodd" opacity="0.300000012">
        <g id="Home-&gt;-Desktop-Copy-30" transform="translate(-728.000000, -2762.000000)" fill="#000000" fill-rule="nonzero">
            <g id="logo/futuregov" transform="translate(728.000000, 2762.273764)">
                <polygon id="Path" points="5.7171711 3.76193939 5.32246388 6.24339394 9.57225856 6.24339394 9.05247148 9.51224242 4.80219011 9.51224242 3.87455513 15.3420606 -3.49942297e-13 15.3420606 2.36288973 0.492606061 10.9228289 0.492606061 10.4025551 3.76193939"></polygon>
                <path d="M26.0078479,0.492606061 L24.6791787,8.84315152 C24.3754829,10.7534545 23.9953764,12.6443636 22.2836806,14.0819394 C20.8440456,15.3032727 18.8179468,15.7362424 17.0785095,15.7362424 C15.3390722,15.7362424 13.4507072,15.3027879 12.3999392,14.0819394 C11.1457338,12.6443636 11.3676654,10.7539394 11.6718479,8.84315152 L13.0000304,0.492606061 L16.8750722,0.492606061 L15.6306008,8.31127273 C15.3234981,10.2409697 15.1263878,12.3486061 17.6172776,12.3486061 C20.1081673,12.3486061 20.5822053,10.2409697 20.889308,8.31127273 L22.1337795,0.492606061 L26.0078479,0.492606061 Z" id="Path"></path>
                <polygon id="Path" points="32.4248821 15.3420606 28.550327 15.3420606 30.392943 3.76193939 27.1905095 3.76193939 27.7102966 0.492606061 37.9902053 0.492606061 37.4699316 3.76193939 34.2674981 3.76193939"></polygon>
                <path d="M52.7199392,0.492606061 L51.39127,8.84315152 C51.0875741,10.7534545 50.7074677,12.6443636 48.9957719,14.0819394 C47.5561369,15.3032727 45.530038,15.7362424 43.7906008,15.7362424 C42.0511635,15.7362424 40.1627985,15.3027879 39.1120304,14.0819394 C37.8578251,12.6443636 38.0797567,10.7539394 38.3839392,8.84315152 L39.7121217,0.492606061 L43.5871635,0.492606061 L42.342692,8.31127273 C42.0355894,10.2409697 41.8384791,12.3486061 44.3293688,12.3486061 C46.8202586,12.3486061 47.2942966,10.2409697 47.6013992,8.31127273 L48.8458707,0.492606061 L52.7199392,0.492606061 Z" id="Path"></path>
                <path d="M65.2060228,15.3420606 L60.3824183,15.3420606 L57.6345551,9.6310303 L57.5951331,9.6310303 L56.6859924,15.3420606 L52.8114373,15.3420606 L55.174327,0.492606061 L60.9664487,0.492606061 C63.9119087,0.492606061 65.9234068,1.89090909 65.4182205,5.06181818 C65.0926236,7.11030303 63.6641825,8.88242424 61.4891559,9.25672727 L65.2060228,15.3420606 Z M57.9888669,7.14909091 L58.3645932,7.14909091 C59.6299924,7.14909091 61.0910418,6.9129697 61.3475285,5.29793939 C61.6045019,3.68339394 60.2188897,3.44678788 58.9534905,3.44678788 L58.578251,3.44678788 L57.9888669,7.14909091 Z" id="Shape"></path>
                <polygon id="Path" points="71.9729886 3.76193939 71.5782814 6.24339394 75.9473156 6.24339394 75.4270418 9.51224242 71.0580076 9.51224242 70.6506464 12.0722424 75.2566996 12.0722424 74.7369125 15.3415758 66.2558175 15.3415758 68.6187072 0.492121212 77.0993156 0.492121212 76.5795285 3.76145455 71.9729886 3.76145455"></polygon>
                <path d="M93.3154068,7.05066667 C92.9314068,9.2169697 92.4782966,11.0681212 90.8595589,12.9192727 C89.0738859,14.9478788 86.738251,15.8341818 84.2473612,15.8341818 C79.5624639,15.8341818 76.8048669,12.6632727 77.5475589,7.99612121 C78.3155589,3.17090909 82.1020228,-2.77111667e-13 86.905673,-2.77111667e-13 C89.9698859,-2.77111667e-13 92.1230114,1.37890909 92.9654753,4.15563636 L89.0441977,5.69163636 C88.735635,4.27345455 87.7593308,3.32848485 86.1975361,3.32848485 C83.6477567,3.32848485 81.9375209,5.75078788 81.5768821,8.01551515 C81.210403,10.32 82.2212624,12.6632727 84.7710418,12.6632727 C86.4515894,12.6632727 87.8746768,11.7968485 88.3053992,10.0833939 L85.1423878,10.0833939 L85.6251863,7.05066667 L93.3154068,7.05066667 Z" id="Path"></path>
                <path d="M110.739468,7.64169697 C109.974875,12.4470303 105.976213,15.8341818 101.19203,15.8341818 C96.4083346,15.8341818 93.4876958,12.4470303 94.252289,7.64169697 C94.9667529,3.1510303 99.4219316,-2.77111667e-13 103.712122,-2.77111667e-13 C108.001338,-2.77111667e-13 111.453932,3.1510303 110.739468,7.64169697 Z M98.2816122,7.66109091 C97.874251,10.2215758 99.4744943,12.0926061 101.787255,12.0926061 C104.100015,12.0926061 106.29597,10.2220606 106.703331,7.66109091 C107.029414,5.61309091 105.429171,3.74206061 103.116411,3.74206061 C100.803163,3.74206061 98.6076958,5.61309091 98.2816122,7.66109091 Z" id="Shape"></path>
                <polygon id="Path" points="118.490038 9.51224242 123.543361 0.492121212 127.753734 0.492121212 119.025399 15.3415758 116.020076 15.3415758 112.116319 0.492121212 116.326692 0.492121212"></polygon>
            </g>
        </g>
    </g>
</svg>