<?xml version="1.0" encoding="UTF-8"?>
<svg width="100px" height="30px" viewBox="0 0 100 30" version="1.1" xmlns="http://www.w3.org/2000/svg" xmlns:xlink="http://www.w3.org/1999/xlink">
    <!-- Generator: Sketch 59.1 (86144) - https://sketch.com -->
    <title>logo8</title>
    <desc>Created with Sketch.</desc>
    <g id="Page-1" stroke="none" stroke-width="1" fill="none" fill-rule="evenodd" opacity="0.300000012">
        <g id="Home-&gt;-Desktop-Copy-30" transform="translate(-925.000000, -2755.000000)">
            <g id="logo/fidelity" transform="translate(925.000000, 2755.000000)">
                <polygon id="Fill-1" fill="#000000" points="2.09610107e-12 29.8150962 30.3055718 29.8150962 30.3055718 1.84741111e-13 2.09610107e-12 1.84741111e-13"></polygon>
                <polygon id="Fill-2" fill="#FFFFFF" points="20.6830792 9.58690385 20.6830792 6.77267308 11.6845455 6.77267308 11.6845455 12.8133462 11.4405572 12.8133462 9.74319648 12.8133462 9.74319648 14.7368077 10.2804399 14.7368077 11.6845455 14.7368077 11.6845455 16.2546923 11.3836657 16.2546923 9.74319648 16.2546923 9.74319648 18.1798846 10.2238416 18.1798846 11.6845455 18.1798846 11.6845455 24.0956538 15.1555132 24.0956538 15.1555132 18.1798846 18.2361584 18.1798846 19.1074194 16.2546923 15.1555132 16.2546923 15.1555132 15.6108462 15.1555132 14.7368077 19.8135777 14.7368077 20.6830792 12.8133462 15.1555132 12.8133462 15.1555132 9.58690385"></polygon>
                <path d="M95.2085337,29.7017596 L94.5727566,29.7017596 L94.5727566,27.3559904 L93.765132,27.3559904 L93.765132,26.8232019 L96.0158651,26.8232019 L96.0158651,27.3559904 L95.2085337,27.3559904 L95.2085337,29.7017596 Z M93.0774487,29.7017596 L92.4264223,29.7017596 L92.4231965,29.6968558 L91.1689443,27.7719519 L91.1689443,29.7017596 L90.5569208,29.7017596 L90.5569208,26.8232019 L91.2319941,26.8232019 L91.2358065,26.8286827 L92.4657185,28.7250288 L92.4657185,26.8232019 L93.0774487,26.8232019 L93.0774487,29.7017596 Z M89.8061877,29.7017596 L87.8229032,29.7017596 L87.8229032,26.8232019 L89.8061877,26.8232019 L89.8061877,27.3559904 L88.4604399,27.3559904 L88.4604399,27.9810865 L89.7680645,27.9810865 L89.7680645,28.5135865 L88.4604399,28.5135865 L88.4604399,29.1692596 L89.8061877,29.1692596 L89.8061877,29.7017596 Z M86.9299413,29.7017596 L86.3179179,29.7017596 L86.3179179,27.8256058 L85.508827,29.7017596 L85.1492962,29.7017596 L85.1460704,29.695125 L84.3419648,27.8628173 L84.3419648,29.7017596 L83.7299413,29.7017596 L83.7299413,26.8232019 L84.4484164,26.8232019 L84.4519355,26.830125 L85.3281818,28.7486827 L86.2094135,26.8232019 L86.9299413,26.8232019 L86.9299413,29.7017596 Z M82.2372727,29.7017596 L81.6014956,29.7017596 L81.6014956,27.3559904 L80.7921114,27.3559904 L80.7921114,26.8232019 L83.0446041,26.8232019 L83.0446041,27.3559904 L82.2372727,27.3559904 L82.2372727,29.7017596 Z M79.096217,29.7559904 C78.0343402,29.7559904 77.9208504,29.1205096 77.9208504,28.8464712 L77.9208504,28.836375 L77.9328739,28.8349327 L78.5566276,28.8245481 L78.5566276,28.836375 C78.5566276,29.2047404 78.936393,29.2454135 79.0976833,29.2454135 C79.3023754,29.2454135 79.5871261,29.1528173 79.5871261,28.9431058 C79.5871261,28.8046442 79.5343402,28.7250288 79.2252493,28.6200288 L78.5566276,28.3956058 C78.2026686,28.2756058 77.9724633,27.9914712 77.9724633,27.670125 C77.9724633,27.3591635 78.1994428,26.7709904 79.0495894,26.7709904 C80.1478299,26.7709904 80.1598534,27.5437788 80.1598534,27.5755096 L80.1598534,27.5873365 L80.1478299,27.5873365 L79.5223167,27.5991635 L79.5223167,27.5873365 C79.5223167,27.4082019 79.3402053,27.2798365 79.0856598,27.2798365 C78.7935777,27.2798365 78.6097067,27.396375 78.6097067,27.5821442 C78.6097067,27.7664712 78.7970968,27.8628173 78.9569208,27.9083942 L79.5167449,28.0777212 C80.0017889,28.2196442 80.2246628,28.4729135 80.2246628,28.8704135 C80.2246628,29.1764712 79.9894721,29.7559904 79.096217,29.7559904 L79.096217,29.7559904 Z M77.2868328,29.7017596 L75.3041349,29.7017596 L75.3041349,26.8232019 L77.2868328,26.8232019 L77.2868328,27.3559904 L75.9413783,27.3559904 L75.9413783,27.9810865 L77.2490029,27.9810865 L77.2490029,28.5135865 L75.9413783,28.5135865 L75.9413783,29.1692596 L77.2868328,29.1692596 L77.2868328,29.7017596 Z M73.7091202,29.7017596 L73.0478299,29.7017596 L73.0446041,29.695125 L72.041085,26.8232019 L72.7384457,26.8232019 L72.7419648,26.8318558 L73.3897654,28.9058942 L74.0270088,26.8232019 L74.7126393,26.8232019 L74.7058944,26.8384904 L73.7091202,29.7017596 Z M71.4481232,29.7017596 L70.7968035,29.7017596 L70.7935777,29.6968558 L69.5390323,27.7719519 L69.5390323,29.7017596 L68.9273021,29.7017596 L68.9273021,26.8232019 L69.6026686,26.8232019 L69.6058944,26.8286827 L70.836393,28.7250288 L70.836393,26.8232019 L71.4481232,26.8232019 L71.4481232,29.7017596 Z M67.3636657,29.7017596 L67.9994428,29.7017596 L67.9994428,26.8232019 L67.3636657,26.8232019 L67.3636657,29.7017596 Z M65.0372727,29.7017596 L63.0557478,29.7017596 L63.0557478,26.8232019 L65.0372727,26.8232019 L65.0372727,27.3559904 L63.6915249,27.3559904 L63.6915249,27.9810865 L65.0012023,27.9810865 L65.0012023,28.5135865 L63.6915249,28.5135865 L63.6915249,29.1692596 L65.0372727,29.1692596 L65.0372727,29.7017596 Z M60.2759824,29.1914712 L60.7809677,29.1914712 C61.41,29.1914712 61.6349267,28.6895481 61.6349267,28.2582981 C61.6349267,27.9118558 61.5161584,27.3320481 60.7325806,27.3320481 L60.2759824,27.3320481 L60.2759824,29.1914712 Z M60.8223167,29.7017596 L59.6402053,29.7017596 L59.6402053,26.8232019 L60.8064809,26.8232019 C61.753695,26.8232019 62.2965103,27.3473365 62.2965103,28.2617596 C62.2965103,29.2508942 61.5319941,29.7017596 60.8223167,29.7017596 L60.8223167,29.7017596 Z M58.0783284,29.7017596 L58.712346,29.7017596 L58.712346,26.8232019 L58.0783284,26.8232019 L58.0783284,29.7017596 Z M56.6035484,29.7017596 L55.9372727,29.7017596 L55.9334604,29.6936827 L55.4437243,27.7347404 L54.9437243,29.7017596 L54.2756891,29.7017596 L54.2739296,29.6936827 L53.4783284,26.8232019 L54.1572141,26.8232019 L54.1589736,26.8318558 L54.6278886,28.8972404 L55.1038416,26.8232019 L55.7839003,26.8232019 L55.7877126,26.8318558 L56.2792082,28.8972404 L56.7190909,26.8232019 L57.3941642,26.8232019 L57.3909384,26.8384904 L56.6035484,29.7017596 Z M50.9440176,29.1914712 L51.4507625,29.1914712 C52.0797947,29.1914712 52.3026686,28.6895481 52.3026686,28.2582981 C52.3026686,27.9118558 52.1844868,27.3320481 51.4006158,27.3320481 L50.9440176,27.3320481 L50.9440176,29.1914712 Z M51.4918182,29.7017596 L50.3082405,29.7017596 L50.3082405,26.8232019 L51.4765689,26.8232019 C52.4217302,26.8232019 52.9624927,27.3473365 52.9624927,28.2617596 C52.9624927,29.2508942 52.2000293,29.7017596 51.4918182,29.7017596 L51.4918182,29.7017596 Z M49.6138123,29.7017596 L47.7994428,29.7017596 L47.7994428,26.8232019 L48.4352199,26.8232019 L48.4352199,29.1473365 L49.6138123,29.1473365 L49.6138123,29.7017596 Z M45.4727566,28.0857981 L45.8680645,28.0857981 C46.3146921,28.0857981 46.3818475,27.8492596 46.3818475,27.7090673 C46.3818475,27.4555096 46.2061877,27.3320481 45.8475367,27.3320481 L45.4727566,27.3320481 L45.4727566,28.0857981 Z M47.1689443,29.7017596 L46.411173,29.7017596 L46.407654,29.695125 L45.8114663,28.5764712 L45.4727566,28.5764712 L45.4727566,29.7017596 L44.8352199,29.7017596 L44.8352199,26.8232019 L45.9935777,26.8232019 C46.6070674,26.8232019 47.0176246,27.1702212 47.0176246,27.6854135 C47.0176246,27.9946442 46.8404985,28.3765673 46.4539883,28.4936827 L47.1689443,29.7017596 Z M42.5707038,27.3037788 C41.9882991,27.3037788 41.7270088,27.7852212 41.7270088,28.2617596 C41.7270088,28.7417596 41.9882991,29.2217596 42.5707038,29.2217596 C43.1551613,29.2217596 43.4143988,28.7417596 43.4143988,28.2617596 C43.4143988,27.7852212 43.1551613,27.3037788 42.5707038,27.3037788 L42.5707038,27.3037788 Z M42.5707038,26.7810865 C43.5243695,26.7810865 44.0639589,27.4961827 44.0639589,28.2617596 C44.0639589,29.0290673 43.5243695,29.743875 42.5707038,29.743875 C41.6170381,29.743875 41.0792082,29.0290673 41.0792082,28.2617596 C41.0792082,27.4961827 41.6170381,26.7810865 42.5707038,26.7810865 L42.5707038,26.7810865 Z M39.7598534,29.7017596 L39.0929912,29.7017596 L39.0894721,29.6936827 L38.5997361,27.7347404 L38.1014956,29.7017596 L37.4328739,29.7017596 L36.6358065,26.8232019 L37.3143988,26.8232019 L37.7853666,28.8972404 L38.2613196,26.8232019 L38.9402053,26.8232019 L38.9434311,26.8318558 L39.436393,28.8972404 L39.8748094,26.8232019 L40.5495894,26.8232019 L39.7598534,29.7017596 Z M35.6460704,14.5578173 L35.6460704,16.2055096 L37.0619062,16.2072404 L37.0619062,21.3793558 L40.039912,21.3793558 L40.039912,16.2072404 L42.852522,16.2072404 L43.5965103,14.5578173 L40.039912,14.5578173 L40.039912,13.5943558 L44.0328739,13.5943558 L44.7803812,11.9446442 L40.039912,11.9446442 L40.039912,9.17627885 L44.7803812,9.17627885 L44.7803812,6.767625 L37.0619062,6.767625 L37.0619062,11.9446442 L35.6460704,11.9446442 L35.6460704,13.5943558 L37.0619062,13.5943558 L37.0619062,14.5578173 L35.6460704,14.5578173 Z M88.536393,24.021375 L91.3557478,24.021375 L96.0158651,11.8500288 L93.0534018,11.8500288 L91.0120528,18.1174327 L90.9759824,18.1174327 L88.9317009,11.8500288 L85.9762757,11.8500288 L89.5897654,21.3233942 L88.536393,24.021375 Z M85.1926979,19.2412788 C85.0273021,19.2784904 84.8780352,19.2989712 84.651349,19.2989712 C83.9572141,19.2989712 83.7715836,19.0958942 83.7715836,18.6698365 L83.7715836,13.8764712 L85.1926979,13.8764712 L85.1926979,11.8500288 L83.7715836,11.8500288 L83.7715836,8.88724038 L81.0721701,8.88724038 L81.0721701,11.8500288 L79.8384457,11.8500288 L79.8384457,13.8764712 L81.0721701,13.8764712 L81.0721701,18.9657981 C81.0721701,21.0107019 82.1407918,21.4350288 83.9003226,21.4350288 C84.3352199,21.4350288 84.7630792,21.3793558 85.1926979,21.3233942 L85.1926979,19.2412788 Z M76.0976833,21.3233942 L78.7988563,21.3233942 L78.7988563,11.8500288 L76.0976833,11.8500288 L76.0976833,21.3233942 Z M47.5554545,6.39406731 C46.6583871,6.39406731 45.9833138,7.18502885 45.9833138,7.96099038 C45.9833138,8.69599038 46.6583871,9.48868269 47.5554545,9.48868269 C48.4196774,9.48868269 49.1273021,8.73175962 49.1273021,7.92550962 C49.1273021,7.075125 48.3630792,6.39406731 47.5554545,6.39406731 L47.5554545,6.39406731 Z M77.4481232,6.39406731 C76.5481232,6.39406731 75.8742229,7.18502885 75.8742229,7.96099038 C75.8742229,8.69599038 76.5481232,9.48868269 77.4481232,9.48868269 C78.3108798,9.48868269 79.0205572,8.73175962 79.0205572,7.92550962 C79.0205572,7.075125 78.2542815,6.39406731 77.4481232,6.39406731 L77.4481232,6.39406731 Z M72.0839003,6.97733654 L72.0839003,21.3233942 L74.7833138,21.3233942 L74.7833138,6.97733654 L74.7833138,6.73041346 L72.0839003,6.73041346 L72.0839003,6.97733654 Z M68.4102933,15.6479135 C68.3138123,14.7265673 67.6023754,13.6211827 66.3102933,13.6211827 C64.9050147,13.6211827 64.212346,14.5797404 64.0648387,15.6479135 L68.4102933,15.6479135 Z M71.1061877,16.6064712 L71.1061877,17.3449327 L64.0648387,17.3449327 C64.1748094,18.4468558 64.8671848,19.5554135 66.3102933,19.5554135 C67.1366862,19.5554135 67.8654252,19.1685865 68.2402053,18.4318558 L70.8621994,18.6308942 C70.207654,20.5696442 68.4443109,21.583875 66.1797947,21.583875 C63.2742229,21.583875 61.253695,19.6298365 61.253695,16.6064712 C61.253695,13.5470481 63.2742229,11.5930096 66.1797947,11.5930096 C69.0839003,11.5930096 71.1061877,13.5470481 71.1061877,16.6064712 L71.1061877,16.6064712 Z M57.72261,16.6064712 C57.72261,15.1846442 56.9352199,13.8427212 55.2498827,13.8427212 C53.696217,13.8427212 52.8885924,15.2068558 52.8885924,16.6433942 C52.8885924,18.1358942 53.7322874,19.4457981 55.3255425,19.4457981 C56.8595601,19.4457981 57.72261,18.1932981 57.72261,16.6064712 L57.72261,16.6064712 Z M57.741085,21.3233942 L57.741085,19.9984904 L57.7050147,19.9984904 C56.9352199,21.1206058 55.8114663,21.583875 54.5742229,21.583875 C51.8956305,21.583875 50.0777419,19.2057981 50.0777419,16.5692596 C50.0777419,13.9341635 51.7665982,11.5930096 54.5366862,11.5930096 C55.7756891,11.5930096 56.6932845,11.980125 57.5918182,13.1414712 L57.6293548,13.1414712 L57.6293548,6.97733654 L57.6293548,6.73041346 L60.3258358,6.73041346 L60.3258358,6.97733654 L60.3258358,21.3233942 L57.741085,21.3233942 Z M46.067478,21.3421442 L49.0451906,21.3421442 L49.0451906,11.9192596 L46.067478,11.9192596 L46.067478,21.3421442 Z" id="Fill-3" fill="#000000"></path>
                <polygon id="Fill-5" fill="#000000" points="96.600088 5.05886538 96.0965689 5.05886538 96.0965689 4.72425 97.4833724 4.72425 97.4833724 5.05886538 96.9819062 5.05886538 96.9819062 6.60357692 96.600088 6.60357692"></polygon>
                <polygon id="Fill-7" fill="#000000" points="99.3874194 5.34957692 99.3818475 5.34957692 98.869824 6.60351923 98.6569208 6.60351923 98.1466569 5.37323077 98.1396188 5.37323077 98.1396188 6.60351923 97.7753959 6.60351923 97.7753959 4.72419231 98.21 4.72419231 98.7633724 6.00380769 99.3167449 4.72419231 99.7531085 4.72419231 99.7531085 6.60351923 99.3874194 6.60351923"></polygon>
            </g>
        </g>
    </g>
</svg>