<?xml version="1.0" encoding="UTF-8"?>
<svg width="100px" height="36px" viewBox="0 0 100 36" version="1.1" xmlns="http://www.w3.org/2000/svg" xmlns:xlink="http://www.w3.org/1999/xlink">
    <!-- Generator: Sketch 59.1 (86144) - https://sketch.com -->
    <title>logo6</title>
    <desc>Created with Sketch.</desc>
    <g id="Page-1" stroke="none" stroke-width="1" fill="none" fill-rule="evenodd" opacity="0.300000012">
        <g id="Home-&gt;-Desktop-Copy-30" transform="translate(-559.000000, -2752.000000)" fill="#000000">
            <g id="logo/ye" transform="translate(559.000000, 2752.000000)">
                <path d="M35.598859,20.2065 L35.598859,17.2565 L27.9365474,17.2565 L27.9365474,30.656 L35.598859,30.656 L35.598859,27.7055 L31.438055,27.7055 L31.438055,25.395 L35.3842861,25.395 L35.3842861,22.445 L31.438055,22.445 L31.438055,20.2065 L35.598859,20.2065 Z M40.3852911,21.5395 L37.1345374,21.5395 L37.1345374,35.205 L40.3852911,35.205 L40.3852911,29.785 C41.0822761,30.5845 42.1712208,30.9585 43.2254922,30.9585 C45.940065,30.9585 47.8154419,28.7545 47.8154419,26.1245 C47.8154419,23.512 45.9219746,21.237 43.1893112,21.237 C42.117452,21.237 41.0104168,21.6635 40.4209695,22.57 L40.3852911,22.57 L40.3852911,21.5395 Z M42.3682057,24.0445 C43.6893112,24.0445 44.457653,24.987 44.457653,26.106 C44.457653,27.2615 43.6893112,28.15 42.3682057,28.15 C41.0460952,28.15 40.278256,27.2615 40.278256,26.106 C40.278256,24.987 41.0460952,24.0445 42.3682057,24.0445 L42.3682057,24.0445 Z M48.9762459,30.656 L52.2264972,30.656 L52.2264972,21.5395 L48.9762459,21.5395 L48.9762459,30.656 Z M50.6013716,16.2255 C49.600869,16.2255 48.779261,17.0435 48.779261,18.0385 C48.779261,19.0335 49.600869,19.851 50.6013716,19.851 C51.6018741,19.851 52.4229796,19.0335 52.4229796,18.0385 C52.4229796,17.0435 51.6018741,16.2255 50.6013716,16.2255 L50.6013716,16.2255 Z M53.9234821,30.656 L57.1737334,30.656 L57.1737334,15.906 L53.9234821,15.906 L53.9234821,30.656 Z M61.8536329,24.774 C62.0496128,23.832 62.8360449,23.3345 63.7822761,23.3345 C64.657653,23.3345 65.4616731,23.903 65.6214721,24.774 L61.8536329,24.774 Z M68.6405675,26.302 C68.6405675,23.192 66.8003665,21.237 63.6209695,21.237 C60.6385575,21.237 58.5491102,23.068 58.5491102,26.106 C58.5491102,29.2515 60.8169494,30.9585 63.8531303,30.9585 C65.9435826,30.9585 67.9968489,29.98 68.5149394,27.8305 L65.3898138,27.8305 C65.0325273,28.4345 64.5320248,28.6655 63.8355424,28.6655 C62.4958439,28.6655 61.7993615,27.955 61.7993615,26.6395 L68.6405675,26.6395 L68.6405675,26.302 Z M73.1762459,21.5395 L69.9259947,21.5395 L69.9259947,35.205 L73.1762459,35.205 L73.1762459,29.785 C73.8737334,30.5845 74.9621756,30.9585 76.0159444,30.9585 C78.7310198,30.9585 80.6063967,28.7545 80.6063967,26.1245 C80.6063967,23.512 78.7134319,21.237 75.980266,21.237 C74.9084067,21.237 73.8013716,21.6635 73.2124268,22.57 L73.1762459,22.57 L73.1762459,21.5395 Z M75.158658,24.0445 C76.480266,24.0445 77.2491102,24.987 77.2491102,26.106 C77.2491102,27.2615 76.480266,28.15 75.158658,28.15 C73.8375525,28.15 73.0687082,27.2615 73.0687082,26.106 C73.0687082,24.987 73.8375525,24.0445 75.158658,24.0445 L75.158658,24.0445 Z M88.5546379,21.8235 C87.6074017,21.397 86.5717233,21.237 85.5355424,21.237 C83.5355424,21.237 81.499864,22.232 81.499864,24.4715 C81.499864,26.106 82.517452,26.604 83.5355424,26.8705 C84.5531303,27.1375 85.5712208,27.1725 85.5712208,27.8835 C85.5712208,28.3805 84.9641856,28.5765 84.5531303,28.5765 C83.7496128,28.5765 82.6430801,28.1145 81.9817736,27.652 L80.8028791,29.91 C81.9109193,30.5845 83.1963464,30.9585 84.499864,30.9585 C86.6249896,30.9585 88.8224771,29.9625 88.8224771,27.564 C88.8224771,25.8755 87.679261,25.165 86.1616731,24.863 C85.7144369,24.774 84.6963464,24.685 84.6963464,24.063 C84.6963464,23.601 85.33906,23.441 85.7144369,23.441 C86.2687082,23.441 86.9651906,23.6185 87.4651906,23.8855 L88.5546379,21.8235 Z M90.4486077,34.6425 L94.0144369,34.6425 L99.7109193,21.641 L96.2923263,21.641 L95.0063967,24.895 C94.8968489,25.1695 94.7310198,25.609 94.5837836,26.3225 C94.4551404,25.645 94.2717233,25.188 94.160668,24.895 L92.8928288,21.641 L89.3455927,21.641 L93.0028791,29.2845 L90.4486077,34.6425 L90.4486077,34.6425 Z" id="Fill-1"></path>
                <path d="M21.8471002,6.9665 L21.8471002,13.3995 L25.3471002,13.3995 L25.3471002,6.9665 L30.3124268,5.22248911e-13 L26.1154419,5.22248911e-13 L23.5968489,3.6435 L21.0787585,5.22248911e-13 L16.881271,5.22248911e-13 L21.8471002,6.9665 Z M37.8038841,8.857 C37.8038841,6.15 35.5677032,3.9625 32.6611705,3.9625 C29.7536329,3.9625 27.5360449,6.15 27.5360449,8.857 C27.5360449,11.5455 29.7350399,13.752 32.6611705,13.752 C35.5677032,13.752 37.8038841,11.564 37.8038841,8.857 L37.8038841,8.857 Z M34.7405675,8.857 C34.7405675,10.2105 34.0139344,11.045 32.8214721,11.045 C31.6290097,11.045 30.9023766,10.2105 30.9023766,8.857 C30.9023766,7.5035 31.6290097,6.6505 32.8214721,6.6505 C34.0139344,6.6505 34.7405675,7.5035 34.7405675,8.857 L34.7405675,8.857 Z M48.1119243,4.3845 L44.9873012,4.3845 L44.9873012,9.194 C44.9873012,10.602 44.6013716,11.3335 43.3883062,11.3335 C42.1752409,11.3335 41.7898138,10.602 41.7898138,9.194 L41.7898138,4.3845 L38.7385575,4.3845 L38.7385575,8.9925 C38.7385575,10.4555 38.7938339,11.5895 39.8043866,12.5585 C40.6506178,13.363 41.8259947,13.747 43.4249896,13.747 C45.0244871,13.747 46.2189595,13.363 47.0275022,12.5585 C48.0747384,11.5165 48.1119243,10.4005 48.1119243,8.9925 L48.1119243,4.3845 Z M52.7280047,4.283 L49.4772509,4.283 L49.4772509,13.3995 L52.7280047,13.3995 L52.7280047,8.6725 C52.7280047,7.535 53.1028791,6.5575 54.4249896,6.5575 C56.0325273,6.5575 55.8893112,8.086 55.8893112,8.9565 L55.8893112,13.3995 L59.140065,13.3995 L59.140065,7.7665 C59.140065,5.527 58.1571504,3.981 55.6928288,3.981 C54.4249896,3.981 53.5139344,4.3545 52.7641856,5.456 L52.7280047,5.456 L52.7280047,4.283 Z M70.8918238,4.283 L67.64107,4.283 L67.64107,5.2425 L67.6058942,5.2425 C66.9621756,4.3365 65.9807685,3.981 64.9089092,3.981 C62.1048891,3.981 60.2109193,6.2555 60.2109193,8.9215 C60.2109193,11.5515 62.0506178,13.5775 64.7300148,13.5775 C65.9445876,13.5775 66.8023766,13.1685 67.64107,12.3335 L67.64107,12.76 C67.64107,14.235 67.3023766,15.372 65.5511203,15.372 C65.2476027,15.372 64.9089092,15.3015 64.6229796,15.159 C64.3370499,15.017 64.1048891,14.786 64.0159444,14.466 L60.3727283,14.466 C60.6581555,16.865 63.4797635,17.949 65.5878037,17.949 C68.9626781,17.949 70.8918238,16.3855 70.8918238,12.5115 L70.8918238,4.283 Z M65.8189595,6.7175 C67.14107,6.7175 67.9094118,7.6595 67.9094118,8.779 C67.9094118,9.9345 67.14107,10.823 65.8189595,10.823 C64.4983565,10.823 63.7295123,9.9345 63.7295123,8.779 C63.7295123,7.6595 64.4983565,6.7175 65.8189595,6.7175 L65.8189595,6.7175 Z" id="Fill-2"></path>
                <path d="M16.1365474,26.6765 L15.5707183,26.8535 L15.5355424,27.443 C15.3506178,30.523 14.7124268,33.579 14.1531303,34.1005 C13.4129293,33.9665 11.2486077,31.7155 9.43755245,29.1825 L9.09383386,28.7015 L8.51996452,28.85 C5.51795446,29.627 2.40036653,29.9675 1.73001477,29.5995 C1.62800472,28.857 3.11091929,26.113 4.97323085,23.6175 L5.32649718,23.1435 L5.00689919,22.646 C3.33654743,20.0455 2.04810522,17.2005 2.19282884,16.452 C2.87021577,16.1265 5.95112029,16.682 8.91242683,17.6725 L9.47473838,17.861 L9.85112029,17.405 C11.8209695,15.02 14.1420751,12.922 14.9023766,12.8275 C15.4224771,13.368 15.8435826,16.4555 15.8119243,19.5635 L15.8058942,20.153 L16.3581555,20.3695 C19.2460952,21.496 21.9692107,23.044 22.2943364,23.734 C21.9385575,24.394 19.1179545,25.7465 16.1365474,26.6765 M20.3315223,20.2955 C19.2405675,19.729 18.158658,19.2585 17.5320248,18.997 C17.5219746,18.32 17.4867987,17.1435 17.3666982,15.922 C17.0817736,13.035 16.4993615,11.582 15.4777535,11.2105 C14.4551404,10.84 13.0717233,11.5795 10.9923263,13.6095 C10.1139344,14.4675 9.32900974,15.345 8.88529115,15.8575 C8.23604492,15.6575 7.09986401,15.328 5.8953414,15.0635 C3.04760271,14.4415 1.479261,14.543 0.808909239,15.3955 C0.138054967,16.249 0.417451952,17.7865 1.7154419,20.3815 C2.26368311,21.478 2.86066803,22.492 3.21292934,23.069 C2.82147205,23.6225 2.15463788,24.5955 1.53051728,25.654 C0.0551403944,28.156 -0.331794279,29.6725 0.275743409,30.569 C0.88378361,31.4685 2.44006502,31.6785 5.32147205,31.252 C6.53855748,31.072 7.69232632,30.821 8.35363286,30.666 C8.76117055,31.2075 9.48529115,32.139 10.3043866,33.057 C12.240065,35.226 13.5692107,36.061 14.6149394,35.763 C15.6616731,35.4655 16.3435826,34.058 16.8269997,31.2 C17.0310198,29.992 17.1471002,28.822 17.2033816,28.149 C17.8465977,27.9305 18.9611705,27.533 20.0913213,27.042 C22.7626781,25.8805 23.9717233,24.8805 24.0104168,23.7985 C24.0491102,22.7165 22.9144369,21.6355 20.3315223,20.2955" id="Fill-4"></path>
            </g>
        </g>
    </g>
</svg>