<?xml version="1.0" encoding="UTF-8"?>
<svg width="100px" height="19px" viewBox="0 0 100 19" version="1.1" xmlns="http://www.w3.org/2000/svg" xmlns:xlink="http://www.w3.org/1999/xlink">
    <!-- Generator: Sketch 59.1 (86144) - https://sketch.com -->
    <title>logo4</title>
    <desc>Created with Sketch.</desc>
    <g id="Page-1" stroke="none" stroke-width="1" fill="none" fill-rule="evenodd" opacity="0.300000012">
        <g id="Home-&gt;-Desktop-Copy-30" transform="translate(-925.000000, -2641.000000)" fill="#000000" fill-rule="nonzero">
            <g id="logo/bloomberg" transform="translate(925.000000, 2641.000000)">
                <path d="M89.529052,15.3255095 L93.1408922,15.3255095 C93.2800476,15.7926147 93.7564946,16.2599245 94.6496078,16.2599245 C95.8596192,16.2599245 96.2768853,15.4880965 96.2768853,14.3510102 L96.2768853,13.5393024 L96.1971109,13.5393024 C95.6021019,14.2499813 94.807757,14.7778266 93.6371329,14.7778266 C91.3350721,14.7778266 89.3307157,13.0317039 89.3307157,9.62167216 C89.3307157,6.49550299 90.9777868,4.05976606 93.4585902,4.05976606 C94.8875314,4.05976606 95.760851,4.64835136 96.3362662,5.58215277 L96.3954472,5.58215277 L96.3954472,4.3847355 L99.9677001,4.3847355 L99.9677001,13.8438207 C99.9677001,15.5895344 99.3726912,16.9495387 98.479578,17.76186 C97.5470774,18.6140611 96.2169045,18.9592773 94.7089887,18.9592773 C91.8709,18.9592773 89.8863373,17.76186 89.529052,15.3255095 M96.4350345,9.43904301 C96.4350345,8.07883425 95.8004382,6.9830594 94.7089887,6.9830594 C93.6569265,6.9830594 92.9821432,7.95714966 92.9821432,9.43904301 C92.9821432,10.9006897 93.6569265,11.9559712 94.7089887,11.9559712 C95.8004382,11.9559712 96.4350345,10.880443 96.4350345,9.43904301 M85.3419965,6.25233832 L85.4013774,6.25233832 C86.175129,4.7297471 87.1874039,4.16140849 88.4771898,4.16140849 C88.7744943,4.16140849 88.9736304,4.20210636 89.0921923,4.2628464 L89.0921923,7.61213806 L89.0130177,7.61213806 C86.8105249,7.20638642 85.5205391,8.28232361 85.5205391,10.7383072 L85.5205391,15.3054674 L81.7697435,15.3054674 L81.7697435,4.38494001 L85.3419965,4.38494001 L85.3419965,6.25233832 L85.3419965,6.25233832 Z M0,0 L7.3428422,0 C8.73159626,0 9.80325215,0.345216116 10.5580098,0.974294772 C11.410736,1.68476917 11.8675893,2.74045969 11.8675893,3.99882151 C11.8675893,5.46046818 11.2921741,6.37402292 10.1011565,6.94215702 L10.1011565,7.00330608 C11.6494593,7.53074232 12.5417728,8.9514866 12.5417728,10.6771582 C12.5417728,12.321434 11.9267703,13.6000425 10.9144953,14.3716659 C10.0615692,15.0009491 8.95052596,15.3054674 7.48199751,15.3054674 L0,15.3054674 L0,0 Z M6.98575686,11.9152733 C7.87867014,11.9152733 8.53306001,11.3671814 8.53306001,10.3525977 C8.53306001,9.29670272 7.8186894,8.78951317 6.96596321,8.78951317 L4.0684936,8.78951317 L4.0684936,11.9152733 L6.98575686,11.9152733 Z M6.60867794,5.98790442 C7.40222313,5.98790442 7.97763836,5.54165941 7.97763836,4.64835136 C7.97763836,3.77569901 7.38242948,3.34929166 6.58888429,3.34929166 L4.0684936,3.34929166 L4.0684936,5.98790442 L6.60867794,5.98790442 L6.60867794,5.98790442 Z" id="Shape"></path>
                <path d="M13.2181556,0 L17.0679195,0 L17.0679195,15.3054674 L13.2181556,15.3054674 L13.2181556,0 Z M17.8028835,9.86504134 C17.8028835,6.41431176 19.9857825,4.08001274 23.3588994,4.08001274 C26.732816,4.08001274 28.8761278,6.41431176 28.8761278,9.86504134 C28.8761278,13.3364266 26.732816,15.6500699 23.3588994,15.6500699 C19.9857825,15.6500699 17.8028835,13.3364266 17.8028835,9.86504134 M25.0659513,9.86504134 C25.0659513,7.95714966 24.4701426,6.75952788 23.3193121,6.75952788 C22.1686816,6.75952788 21.61306,7.95714966 21.61306,9.86504134 C21.61306,11.7935887 22.1686816,12.9912105 23.3193121,12.9912105 C24.4701426,12.9912105 25.0659513,11.7935887 25.0659513,9.86504134 M29.3141871,9.86504134 C29.3141871,6.41431176 31.4970862,4.08001274 34.8702031,4.08001274 C38.2441197,4.08001274 40.3874315,6.41431176 40.3874315,9.86504134 C40.3874315,13.3364266 38.2441197,15.6500699 34.8702031,15.6500699 C31.4970862,15.6500699 29.3141871,13.3364266 29.3141871,9.86504134 M36.577255,9.86504134 C36.577255,7.95714966 35.9814463,6.75952788 34.8306158,6.75952788 C33.6799853,6.75952788 33.1243637,7.95714966 33.1243637,9.86504134 C33.1243637,11.7935887 33.6799853,12.9912105 34.8306158,12.9912105 C35.9814463,12.9912105 36.577255,11.7935887 36.577255,9.86504134 M41.1223955,4.3847355 L44.6946484,4.3847355 L44.6946484,6.02860229 L44.7540294,6.02860229 C45.4684,4.74978927 46.4404878,4.05976606 47.968997,4.05976606 C49.3181638,4.05976606 50.3306387,4.74978927 50.846673,5.94741106 L50.905854,5.94741106 C51.7791736,4.50601107 52.9102104,4.05976606 54.2197899,4.05976606 C56.7005933,4.05976606 57.7722492,5.92716438 57.7722492,8.44429705 L57.7722492,15.3052628 L54.0214536,15.3052628 L54.0214536,9.13432026 C54.0214536,8.01768519 53.683962,7.28696411 52.7316677,7.28696411 C51.7989672,7.28696411 51.3223203,8.18027217 51.3223203,9.35785178 L51.3223203,15.3052628 L47.5723244,15.3052628 L47.5723244,9.13432026 C47.5723244,8.01768519 47.2348328,7.28696411 46.2825386,7.28696411 C45.3490383,7.28696411 44.873391,8.18027217 44.873391,9.35785178 L44.873391,15.3052628 L41.1223955,15.3052628 L41.1223955,4.3847355 L41.1223955,4.3847355 Z M62.3591763,13.8845186 L62.319789,13.8845186 L62.319789,15.3054674 L58.747536,15.3054674 L58.747536,0 L62.4983316,0 L62.4983316,5.52141273 L62.5577126,5.52141273 C63.2720832,4.56756915 64.2243774,4.05976606 65.5941376,4.05976606 C68.2732773,4.05976606 69.8207804,6.53599635 69.8207804,9.82475249 C69.8207804,13.5393024 68.134122,15.6707256 65.356214,15.6707256 C64.2045838,15.6707256 63.0143659,15.102387 62.3591763,13.8845186 M66.0106038,9.78425913 C66.0106038,8.0178897 65.3760076,6.88121247 64.244171,6.88121247 C63.0935405,6.88121247 62.3591763,8.0178897 62.3591763,9.78425913 C62.3591763,11.5295638 63.0935405,12.6868968 64.244171,12.6868968 C65.3958013,12.6868968 66.0106038,11.5498105 66.0106038,9.78425913 M70.2980271,9.82475249 C70.2980271,6.41431176 72.5007198,4.0397239 75.6960938,4.0397239 C77.283784,4.0397239 78.5143888,4.54691345 79.4468894,5.46046818 C80.6774943,6.67833665 81.2331159,8.58622832 81.1927288,10.8397451 L74.029229,10.8397451 C74.188178,12.1999539 74.8227742,12.8897726 75.9536111,12.8897726 C76.6088007,12.8897726 77.184216,12.5854589 77.4229393,11.8547378 L81.0339798,11.8547378 C80.3993836,14.3510102 78.5143888,15.6097811 75.8352491,15.6097811 C72.5213132,15.6097811 70.2980271,13.3163844 70.2980271,9.82475249 M74.029229,8.68807526 L77.442733,8.68807526 C77.3825523,7.36876888 76.6681817,6.67833665 75.7750684,6.67833665 C74.7437996,6.67833665 74.1683844,7.42930441 74.029229,8.68807526" id="Shape"></path>
            </g>
        </g>
    </g>
</svg>