<?xml version="1.0" encoding="UTF-8"?>
<svg width="75px" height="59px" viewBox="0 0 75 59" version="1.1" xmlns="http://www.w3.org/2000/svg" xmlns:xlink="http://www.w3.org/1999/xlink">
    <!-- Generator: Sketch 59.1 (86144) - https://sketch.com -->
    <title>logo1</title>
    <desc>Created with Sketch.</desc>
    <g id="Page-1" stroke="none" stroke-width="1" fill="none" fill-rule="evenodd" opacity="0.300000012">
        <g id="Home-&gt;-Desktop-Copy-30" transform="translate(-389.000000, -2621.000000)" fill-rule="nonzero">
            <g id="logo/nhs-digital" transform="translate(389.000000, 2621.000000)">
                <rect id="Rectangle" fill="#FFFFFF" x="1.45631068" y="1.46583851" width="71.723301" height="27.1180124"></rect>
                <path d="M-3.49231755e-12,39.0132919 L4.05946602,39.0132919 C8.60679612,39.0132919 12.6262136,40.5524224 12.6262136,46.4817391 C12.6262136,52.4110559 8.62135922,53.9465217 4.05946602,53.9465217 L-3.49231755e-12,53.9465217 L-3.49231755e-12,39.0132919 Z M2.97451456,51.5938509 L4.63106796,51.5938509 C7.11771845,51.5938509 9.52063107,49.732236 9.52063107,46.4634161 C9.52063107,43.1945963 7.11771845,41.3329814 4.63106796,41.3329814 L2.97451456,41.3329814 L2.97451456,51.5608696 L2.97451456,51.5938509 Z" id="Shape" fill="#000000"></path>
                <path d="M14.7305825,38.1814286 L17.5776699,38.1814286 L17.5776699,40.918882 L14.7305825,40.918882 L14.7305825,38.1814286 Z M14.7305825,42.9454037 L17.5776699,42.9454037 L17.5776699,53.9648447 L14.7305825,53.9648447 L14.7305825,42.9307453 L14.7305825,42.9454037 Z" id="Shape" fill="#000000"></path>
                <path d="M30.2184466,42.9307453 L30.2184466,52.8801242 C30.2184466,55.8740994 29.0279126,58.6995031 24.4368932,58.6995031 C23.13978,58.7143353 21.8530784,58.4650341 20.6541262,57.9665839 L20.8871359,55.5259627 C21.7572816,55.9950311 23.184466,56.4897516 24.0764563,56.4897516 C27.2220874,56.4897516 27.3531553,54.1150932 27.3531553,52.2095031 L27.3058252,52.2095031 C26.7742718,53.1513043 25.4854369,53.9648447 23.9053398,53.9648447 C20.6759709,53.9648447 19.4417476,51.3556522 19.4417476,48.4019876 C19.4417476,45.7488199 20.8033981,42.688882 24.0764563,42.688882 C25.532767,42.688882 26.6468447,43.1799379 27.4332524,44.4442236 L27.4769417,44.4442236 L27.4769417,42.9454037 L30.2184466,42.9454037 L30.2184466,42.9307453 Z M27.3713592,48.3213665 C27.3713592,46.437764 26.6432039,44.8986335 24.9902913,44.8986335 C23.0570388,44.8986335 22.4417476,46.6942857 22.4417476,48.3873292 C22.4417476,49.8861491 23.2281553,51.7257764 24.8665049,51.7257764 C26.6322816,51.7221118 27.3567961,50.1609938 27.3567961,48.3213665 L27.3713592,48.3213665 Z" id="Shape" fill="#000000"></path>
                <path d="M32.7669903,38.1814286 L35.6140777,38.1814286 L35.6140777,40.918882 L32.7669903,40.918882 L32.7669903,38.1814286 Z M32.7669903,42.9454037 L35.6140777,42.9454037 L35.6140777,53.9648447 L32.7669903,53.9648447 L32.7669903,42.9307453 L32.7669903,42.9454037 Z" id="Shape" fill="#000000"></path>
                <path d="M39.5570388,45.0268944 L37.4526699,45.0268944 L37.4526699,42.9307453 L39.5570388,42.9307453 L39.5570388,40.7319876 L42.4041262,39.8121739 L42.4041262,42.9344099 L44.934466,42.9344099 L44.934466,45.030559 L42.4041262,45.030559 L42.4041262,50.1609938 C42.4041262,51.102795 42.6589806,51.9932919 43.743932,51.9932919 C44.1947802,52.010368 44.6420514,51.9066709 45.0400485,51.692795 L45.1237864,53.9611801 C44.4379614,54.1466816 43.7294092,54.2330538 43.0194175,54.2177019 C40.7876214,54.2177019 39.5533981,52.8288199 39.5533981,50.6447205 L39.5533981,45.0378882 L39.5570388,45.0268944 Z" id="Path" fill="#000000"></path>
                <path d="M47.8033981,43.506087 C49.0032832,42.9741442 50.297038,42.6900237 51.6080097,42.670559 C54.9466019,42.670559 56.3410194,44.059441 56.3410194,47.3136025 L56.3410194,48.7391304 C56.3410194,49.8385093 56.3628641,50.6850311 56.3847087,51.4985714 C56.4065534,52.3121118 56.4502427,53.1036646 56.5121359,53.9575155 L54.0036408,53.9575155 C53.9276368,53.4109733 53.8850808,52.8602454 53.8762136,52.3084472 L53.8325243,52.3084472 C53.1198759,53.4998469 51.8354787,54.2242609 50.4538835,54.2141441 C48.5206311,54.2141441 46.6274272,53.0377019 46.6274272,50.9415528 C46.6274272,49.2924845 47.413835,48.3323602 48.4987864,47.7973292 C49.5837379,47.2622981 50.9854369,47.1560248 52.1759709,47.1560248 L53.7487864,47.1560248 C53.7487864,45.3786957 52.9623786,44.7813665 51.2839806,44.7813665 C50.0594343,44.8068755 48.8752692,45.2268704 47.9053398,45.9796894 L47.8033981,43.506087 Z M51.1419903,52.1068944 C51.9278541,52.124934 52.6733652,51.7572573 53.1407767,51.121118 C53.5801697,50.4508593 53.7886713,49.6538846 53.7342233,48.8527329 L52.5,48.8527329 C51.2257282,48.8527329 49.3325243,49.0652795 49.3325243,50.758323 C49.3325243,51.7001242 50.118932,52.1068944 51.1419903,52.1068944 Z" id="Shape" fill="#000000"></path>
                <polygon id="Path" fill="#000000" points="58.7730583 37.9029193 61.6201456 37.9029193 61.6201456 53.9501863 58.7730583 53.9501863"></polygon>
                <path d="M72.0109223,3.60229814 L70.4381068,8.4615528 C68.7515649,7.69364895 66.9148673,7.31789405 65.0643204,7.36217391 C62.4830097,7.36217391 60.3859223,7.72863354 60.3859223,9.70385093 C60.3859223,13.1632298 69.8519417,11.8732919 69.8519417,19.2867702 C69.8519417,26.0332919 63.6007282,27.7849689 57.9466019,27.7849689 C55.3870145,27.7221244 52.8488782,27.2977733 50.4065534,26.5243478 L51.9429612,21.5588199 C53.2317961,22.401677 55.8167476,22.9586957 57.9466019,22.9586957 C59.9745146,22.9586957 63.1492718,22.573913 63.1492718,20.0563354 C63.1492718,16.138882 53.6832524,17.6083851 53.6832524,10.7226087 C53.6832524,4.4268323 59.2026699,2.53956522 64.5436893,2.53956522 C67.5473301,2.53956522 70.368932,2.85838509 72.0145631,3.6389441 M53.2609223,2.93167702 L48.1966019,27.3378882 L41.6686893,27.3378882 L43.8349515,16.882795 L36.1165049,16.882795 L33.9538835,27.3378882 L27.4223301,27.3378882 L32.4866505,2.93167702 L39.0145631,2.93167702 L37.0958738,12.2690683 L44.8106796,12.2690683 L46.7330097,2.93167702 L53.2609223,2.93167702 L53.2609223,2.93167702 Z M30.0800971,2.93167702 L24.913835,27.3415528 L16.809466,27.3415528 L11.7123786,10.4514286 L11.6504854,10.4514286 L8.25728155,27.3415528 L2.11165049,27.3415528 L7.31432039,2.93167702 L15.4478155,2.93167702 L20.4429612,19.8621118 L20.5121359,19.8621118 L23.934466,2.93167702 L30.0800971,2.93167702 Z M74.8143204,2.20268248e-13 L2.61479727e-12,2.20268248e-13 L2.61479727e-12,30.3318634 L74.8143204,30.3318634 L74.8143204,2.20268248e-13 Z" id="Shape" fill="#000000"></path>
            </g>
        </g>
    </g>
</svg>