<?xml version="1.0" encoding="UTF-8"?>
<svg width="80px" height="80px" viewBox="0 0 80 80" version="1.1" xmlns="http://www.w3.org/2000/svg" xmlns:xlink="http://www.w3.org/1999/xlink">
    <!-- Generator: Sketch 60.1 (88133) - https://sketch.com -->
    <title>apps</title>
    <desc>Created with Sketch.</desc>
    <defs>
        <polygon id="path-1" points="0 0 80 0 80 65.6258462 0 65.6258462"></polygon>
        <linearGradient x1="100%" y1="83.6465641%" x2="0%" y2="16.3534359%" id="linearGradient-3">
            <stop stop-color="#3545DD" offset="0%"></stop>
            <stop stop-color="#C738EE" offset="100%"></stop>
        </linearGradient>
    </defs>
    <g id="apps" stroke="none" stroke-width="1" fill="none" fill-rule="evenodd">
        <g id="icon/skill/apps" transform="translate(0.000000, 5.000000)">
            <g id="Group-3" stroke-width="1">
                <mask id="mask-2" fill="white">
                    <use xlink:href="#path-1"></use>
                </mask>
                <g id="Clip-2"></g>
                <path d="M57.1387854,8.96835628 C58.2207287,8.96835628 59.0976518,8.09127126 59.0976518,7.00948988 C59.0976518,5.9277085 58.2207287,5.05062348 57.1387854,5.05062348 C56.0568421,5.05062348 55.179919,5.9277085 55.179919,7.00948988 C55.179919,8.09127126 56.0568421,8.96835628 57.1387854,8.96835628 L57.1387854,8.96835628 Z M64.8032389,8.96835637 C65.8851822,8.96868016 66.7624291,8.09191903 66.762753,7.01013765 L66.762753,7.00948988 C66.762753,5.92787045 65.8861538,5.05110931 64.8045344,5.05062339 C63.7225911,5.0502996 62.8453441,5.92706073 62.84502,7.00884211 C62.8445344,8.09078543 63.7212955,8.96803239 64.8032389,8.96835637 L64.8032389,8.96835637 Z M72.4683401,8.96835637 C73.5502834,8.96868016 74.4275304,8.09191903 74.4278543,7.01013765 L74.4278543,7.00948988 C74.4281781,5.92803239 73.5519028,5.05110931 72.4702834,5.05062339 L72.4696356,5.05062339 C71.3876923,5.0502996 70.5104453,5.92706073 70.5101213,7.00884211 C70.5096356,8.09078543 71.3863968,8.96803239 72.4683401,8.96835637 L72.4683401,8.96835637 Z M3.2388664,11.103417 L76.7611336,11.103417 L76.7611336,3.23880162 L3.2388664,3.23880162 L3.2388664,11.103417 Z M78.8663968,-6.49324092e-05 L1.13360324,-6.49324092e-05 C0.508016194,-6.49324092e-05 0,0.50665587 0,1.13224291 L0,65.6258462 L24.5097976,65.6258462 L24.5097976,62.5489231 L3.2388664,62.5489231 L3.2388664,14.3422834 L76.7611336,14.3422834 L76.7611336,62.5489231 L53.8707692,62.5489231 L53.8707692,65.6258462 L80,65.6258462 L80,1.13224291 C80,0.50665587 79.4919838,-6.49324092e-05 78.8663968,-6.49324092e-05 L78.8663968,-6.49324092e-05 Z" id="Fill-1" fill="url(#linearGradient-3)" mask="url(#mask-2)"></path>
            </g>
            <path d="M39.9436437,69.6032389 C41.0526316,69.6032389 41.9517409,68.7041296 41.9517409,67.5953036 C41.9517409,66.4861538 41.0526316,65.5870445 39.9436437,65.5870445 C38.8346559,65.5870445 37.9355466,66.4861538 37.9355466,67.5953036 C37.9355466,68.7041296 38.8346559,69.6032389 39.9436437,69.6032389 L39.9436437,69.6032389 Z M27.0443725,60.3692308 L52.842753,60.3692308 L52.842753,30.5178947 L27.0443725,30.5178947 L27.0443725,60.3692308 Z M52.842753,67.8963563 C52.8406478,69.9290688 51.1935223,71.5765182 49.1608097,71.5789474 L30.7264777,71.5789474 C28.6937652,71.5765182 27.0466397,69.9290688 27.0445344,67.8963563 L27.0445344,63.6080972 L52.842753,63.6080972 L52.842753,67.8963563 Z M30.7264777,24.4534413 L49.1608097,24.4534413 C50.8626721,24.4566802 52.3410526,25.6242915 52.7384615,27.2790283 L27.1488259,27.2790283 C27.5460729,25.6242915 29.0246154,24.4566802 30.7264777,24.4534413 L30.7264777,24.4534413 Z M50.1324696,21.2145749 L29.7548178,21.2145749 C26.471417,21.2202429 23.8110121,23.8809717 23.805668,27.1643725 L23.805668,68.8647773 C23.8110121,72.1483401 26.471417,74.8089069 29.7548178,74.8147368 L50.1324696,74.8147368 C53.4158704,74.8089069 56.0762753,72.1483401 56.0816194,68.8647773 L56.0816194,27.1643725 C56.0762753,23.8809717 53.4158704,21.2202429 50.1324696,21.2145749 L50.1324696,21.2145749 Z" id="Fill-1" fill="#FFFFFF"></path>
        </g>
    </g>
</svg>