<?xml version="1.0" encoding="UTF-8"?>
<svg width="80px" height="80px" viewBox="0 0 80 80" version="1.1" xmlns="http://www.w3.org/2000/svg" xmlns:xlink="http://www.w3.org/1999/xlink">
    <!-- Generator: Sketch 60.1 (88133) - https://sketch.com -->
    <title>ui</title>
    <desc>Created with Sketch.</desc>
    <defs>
        <linearGradient x1="100%" y1="87.2932557%" x2="0%" y2="12.7067443%" id="linearGradient-1">
            <stop stop-color="#3545DD" offset="0%"></stop>
            <stop stop-color="#C738EE" offset="100%"></stop>
        </linearGradient>
        <polygon id="path-2" points="0 4.8e-05 73.3331803 4.8e-05 73.3331803 79.952208 0 79.952208"></polygon>
    </defs>
    <g id="ui" stroke="none" stroke-width="1" fill="none" fill-rule="evenodd">
        <g id="icon/skill/ui">
            <path d="M69.89368,39.94664 L73.22696,39.94664 L73.22696,36.61336 L69.89368,36.61336 L69.89368,39.94664 Z M63.22688,39.94664 L66.56016,39.94664 L66.56016,36.61336 L63.22688,36.61336 L63.22688,39.94664 Z M34.89352,39.94664 L59.8936,39.94664 L59.8936,36.61336 L34.89352,36.61336 L34.89352,39.94664 Z M73.22696,73.28024 L69.89368,73.28024 L69.89368,66.61344 L73.22696,66.61344 C75.06792,66.61344 76.56024,68.10576 76.56024,69.9468 C76.56024,71.78792 75.06792,73.28024 73.22696,73.28024 L73.22696,73.28024 Z M79.89368,69.94064 L79.89368,19.94656 C79.89368,16.26472 76.90888,13.28 73.22696,13.28 L64.8936,13.28 L64.8936,16.61328 L73.22696,16.61328 C75.06792,16.61328 76.56024,18.1056 76.56024,19.94656 L76.56024,64.17424 C75.57952,63.60664 74.44168,63.28016 73.22696,63.28016 L48.2268,63.28016 L48.2268,66.61344 L66.56016,66.61344 L66.56016,74.9468 C66.56016,75.86728 67.30648,76.61352 68.22688,76.61352 L73.22696,76.61352 C76.90888,76.61352 79.89368,73.6288 79.89368,69.9468 C79.89368,69.9448 79.89368,69.94264 79.89368,69.94064 L79.89368,69.94064 Z M9.89328,61.61344 L9.89328,44.94664 L6.56,44.94664 L6.56,61.61344 C6.56,64.37488 8.79856,66.61344 11.56,66.61344 L28.22672,66.61344 L28.22672,63.28016 L11.56,63.28016 C10.63952,63.28016 9.89328,62.53392 9.89328,61.61344 L9.89328,61.61344 Z M9.89328,18.28 C9.89328,17.35952 10.63952,16.61328 11.56,16.61328 L51.56016,16.61328 L51.56016,13.28 L11.56,13.28 C8.79856,13.28 6.56,15.51856 6.56,18.28 L6.56,31.61336 L9.89328,31.61336 L9.89328,18.28 Z" id="Fill-1" fill="url(#linearGradient-1)"></path>
            <g id="Group-3" stroke-width="1">
                <mask id="mask-3" fill="white">
                    <use xlink:href="#path-2"></use>
                </mask>
                <g id="Clip-2"></g>
                <path d="M69.535,8.305408 L66.10388,11.736448 L61.54956,7.182048 L64.97996,3.751968 C65.60932,3.150528 66.60052,3.150528 67.22996,3.751968 L69.535,6.053728 C69.53516,6.053968 69.53548,6.054128 69.5358,6.054448 C70.157,6.676208 70.15668,7.683968 69.535,8.305408 L69.535,8.305408 Z M45.36812,32.472048 L40.81316,27.917088 L59.19252,9.538928 L63.74692,14.093408 L45.36812,32.472048 Z M37.63988,35.650528 L39.1882,31.005568 L42.28292,34.100288 L37.63988,35.650528 Z M71.89004,3.698688 L69.5866,1.395408 C67.63756,-0.465072 64.57036,-0.465072 62.62148,1.395408 L37.27812,26.738768 C37.08852,26.928448 36.95588,27.152848 36.87676,27.391168 L36.87484,27.390448 L33.41812,37.758768 C33.36156,37.928768 33.33268,38.106768 33.33268,38.285808 C33.33268,39.206288 34.07924,39.9520591 34.99972,39.9520591 C35.17612,39.952688 35.35156,39.925648 35.51972,39.872048 L45.88796,36.415408 L45.8866,36.411248 C46.13292,36.330448 46.35972,36.193888 46.54644,36.007248 L71.89004,10.663728 L71.89236,10.661328 C73.81436,8.738048 73.81332,5.620688 71.89004,3.698688 L71.89004,3.698688 Z M42.14316,75.928928 L4.023,37.808768 L11.18972,30.642048 L15.73596,35.188368 L12.15044,38.773808 L14.50748,41.130848 L18.093,37.545328 L22.405,41.857328 L18.82172,45.440528 L21.17876,47.797488 L24.76188,44.214288 L29.07156,48.523968 L25.48828,52.107248 L27.84524,54.464208 L31.42852,50.880928 L35.73644,55.188848 L32.15132,58.773968 L34.50828,61.131008 L38.0934,57.545808 L42.40628,61.858768 L38.821,65.444048 L41.17796,67.801008 L44.76332,64.215728 L49.30988,68.762288 L42.14316,75.928928 Z M12.36804,27.107088 C11.71724,26.456448 10.6622,26.456448 10.01132,27.107088 L0.48796,36.630528 C-0.16268,37.281328 -0.16268,38.336288 0.48796,38.987248 L40.96484,79.463968 C41.27732,79.776608 41.70124,79.952208 42.14316,79.952208 C42.58516,79.952208 43.00892,79.776448 43.3214,79.463968 L52.84476,69.940688 C53.49556,69.289728 53.49556,68.234688 52.84492,67.583888 L12.36804,27.107088 Z" id="Fill-1" fill="#FFFFFF" mask="url(#mask-3)"></path>
            </g>
        </g>
    </g>
</svg>