<?xml version="1.0" encoding="UTF-8"?>
<svg width="80px" height="80px" viewBox="0 0 80 80" version="1.1" xmlns="http://www.w3.org/2000/svg" xmlns:xlink="http://www.w3.org/1999/xlink">
    <!-- Generator: Sketch 60.1 (88133) - https://sketch.com -->
    <title>ux</title>
    <desc>Created with Sketch.</desc>
    <defs>
        <polygon id="path-1" points="0 -5.68434189e-14 79.9999844 -5.68434189e-14 79.9999844 68.1224844 0 68.1224844"></polygon>
        <linearGradient x1="100%" y1="86.2552735%" x2="0%" y2="13.7447265%" id="linearGradient-3">
            <stop stop-color="#3545DD" offset="0%"></stop>
            <stop stop-color="#C738EE" offset="100%"></stop>
        </linearGradient>
        <polygon id="path-4" points="0 9.375e-05 39.0837336 9.375e-05 39.0837336 59.7607187 0 59.7607187"></polygon>
    </defs>
    <g id="ux" stroke="none" stroke-width="1" fill="none" fill-rule="evenodd">
        <g id="icon/skill/ux" transform="translate(0.000000, 3.000000)">
            <g id="Group-3" transform="translate(0.000000, 5.312500)">
                <mask id="mask-2" fill="white">
                    <use xlink:href="#path-1"></use>
                </mask>
                <g id="Clip-2"></g>
                <path d="M51.4392031,51.4367031 L39.0259219,51.4367031 C38.1627969,51.4367031 37.4634219,52.1367031 37.4634219,52.9992031 C37.4634219,53.8621719 38.1627969,54.5617031 39.0259219,54.5617031 L53.6865469,54.5617031 C53.6901406,54.5617031 53.6945156,54.5623281 53.6981094,54.5623281 C53.7017031,54.5623281 53.7054531,54.5617031 53.7084219,54.5617031 L58.0310781,54.5617031 C58.8940469,54.5617031 59.5935781,53.8621719 59.5935781,52.9992031 C59.5935781,52.1367031 58.8940469,51.4367031 58.0310781,51.4367031 L54.7790469,51.4367031 L51.4392031,51.4367031 Z M48.9702969,18.4740469 L76.8749844,18.4740469 L76.8749844,64.9974844 L9.32373438,64.9974844 C5.90576563,64.9974844 3.12498438,62.2601406 3.12498438,58.8951406 C3.12498438,55.5095156 5.90576563,52.7551406 9.32373438,52.7551406 C10.1867031,52.7551406 10.8862344,52.0556094 10.8862344,51.1924844 L10.8862344,18.4740469 L32.0782656,18.4740469 L33.3996719,15.3490469 L10.8862344,15.3490469 L10.8862344,1.56248437 C10.8862344,0.699359375 10.1867031,-1.5625e-05 9.32373438,-1.5625e-05 C4.18279688,-1.5625e-05 -1.5625e-05,4.14842187 -1.5625e-05,9.24670312 L-1.5625e-05,58.8951406 C-1.5625e-05,63.9831094 4.18279688,68.1224844 9.32373438,68.1224844 L78.4374844,68.1224844 C79.3006094,68.1224844 79.9999844,67.4231094 79.9999844,66.5599844 L79.9999844,16.9115469 C79.9999844,16.0485781 79.3006094,15.3490469 78.4374844,15.3490469 L47.6526406,15.3490469 L48.9702969,18.4740469 Z M3.12498438,9.24670312 C3.12498438,6.40435937 5.09701563,4.00748437 7.76123438,3.32201562 L7.76123438,49.7601406 C6.04670313,50.0487344 4.42560938,50.8276406 3.12498438,51.9799844 L3.12498438,9.24670312 Z" id="Fill-1" fill="url(#linearGradient-3)" mask="url(#mask-2)"></path>
            </g>
            <g id="Group-3" transform="translate(20.937500, 0.000000)">
                <mask id="mask-5" fill="white">
                    <use xlink:href="#path-4"></use>
                </mask>
                <g id="Clip-2"></g>
                <path d="M35.493625,57.99275 C35.493625,58.8593125 36.1958125,59.5615 37.0622187,59.5615 C37.928625,59.5615 38.6309687,58.8593125 38.6309687,57.99275 L38.5897187,57.6038438 L36.3284687,52.2730625 L38.11925,51.5313437 C38.5031562,51.372125 38.8083125,51.0663437 38.9664375,50.6818125 C39.1244062,50.2972812 39.1226875,49.8657187 38.9620625,49.4824375 L33.0081562,35.307125 C34.4589375,33.7574375 35.202375,32.4829062 35.279875,32.3468125 C35.7064375,31.5985312 35.4458125,30.6482188 34.6987812,30.2197812 C33.952375,29.7913437 32.9983125,30.0500937 32.567375,30.795875 C32.5612812,30.8057187 32.25675,31.3263437 31.6544062,32.0844687 L27.937375,23.2349375 L26.6195625,20.1099375 L26.451125,19.7088437 C26.7587812,18.8922812 26.9278437,18.009 26.9278437,17.0868125 C26.9278437,14.8993125 25.981125,12.9291563 24.4759687,11.5643125 L24.4759687,5.1099375 C24.4759687,3.74634375 23.9456562,2.463375 22.9800312,1.49603125 C22.0156562,0.53103125 20.7320625,9.375e-05 19.366125,9.375e-05 C16.5500312,9.375e-05 14.2581562,2.29259375 14.2581562,5.1099375 L14.2581562,11.763375 C12.8756562,13.117125 12.0156562,15.0030625 12.0156562,17.0868125 C12.0156562,18.0291562 12.1933125,18.9307187 12.5137812,19.7613437 L12.3665937,20.1099375 L11.0451875,23.2349375 L7.2195625,32.28275 C6.51096875,31.4185312 6.1539375,30.8082187 6.1489375,30.799625 C5.72175,30.0500937 4.7676875,29.7888438 4.0183125,30.2160312 C3.26815625,30.64275 3.00690625,31.5972812 3.43409375,32.3468125 C3.51471875,32.488375 4.31065625,33.8519687 5.86815625,35.4779062 L2.57971875,43.2557187 L2.17128125,43.0829062 C1.37659375,42.7472813 0.459875,43.119 0.123625,43.9136875 C-0.21215625,44.7082188 0.1595625,45.6250937 0.95425,45.9613437 L2.0133125,46.4093125 L4.05846875,58.4594687 C4.1751875,59.1443125 4.728625,59.6697812 5.41846875,59.7504062 C5.47940625,59.757125 5.539875,59.7607187 5.59971875,59.7607187 C6.16784375,59.7607187 6.69034375,59.4482187 6.96503125,58.949625 C6.9851875,58.9136875 7.00409375,58.8769687 7.02175,58.8385313 C7.02721875,58.8275937 7.0339375,58.81775 7.0383125,58.8068125 L10.723625,50.0916562 L11.7581562,50.5291562 C11.9570625,50.613375 12.1628437,50.6530625 12.3659687,50.6530625 C12.9751875,50.6530625 13.5537812,50.2947812 13.8058125,49.6985312 C14.1422187,48.9038438 13.769875,47.987125 12.9751875,47.650875 L11.9406562,47.2132188 L14.6719062,40.7550938 C16.062375,41.1207187 17.5875312,41.34275 19.2508125,41.3568125 C19.266125,41.3574375 19.2819062,41.3574375 19.2978437,41.3574375 L19.416125,41.3574375 C19.4320625,41.3574375 19.447375,41.3574375 19.4631562,41.3568125 C21.2058125,41.3422812 22.7956563,41.0980625 24.23925,40.7007188 L29.5572187,53.3930625 C29.8855,54.1747812 31.5964375,54.2329062 31.5964375,54.2329062 L33.4395625,53.4686875 L35.6340937,58.6424375 L35.493625,57.99275 Z M17.3831563,9.9243125 L17.3831563,5.1099375 C17.3831563,4.0155625 18.273,3.12509375 19.366125,3.12509375 C19.8972188,3.12509375 20.3958125,3.33134375 20.7687812,3.7036875 C21.1440938,4.08025 21.3509687,4.57946875 21.3509687,5.1099375 L21.3509687,9.86821875 C20.0583125,9.5330625 18.6655,9.55196875 17.3831563,9.9243125 L17.3831563,9.9243125 Z M19.4887812,29.364 L23.0172188,37.7850937 C21.841125,38.0761875 20.6205,38.2282187 19.3570625,38.2324375 C18.168,38.2282187 17.0175313,38.0944687 15.9055,37.8369687 L19.4887812,29.364 Z M21.1905,25.3382187 L21.2850313,25.1135312 L21.6647188,24.2157187 C22.6534688,23.9130625 23.561125,23.4094687 24.3356563,22.7418125 L29.28675,34.525875 C29.2703438,34.5391562 29.2544063,34.5532187 29.238,34.5672812 C28.2009688,35.4382187 27.1059688,36.1535312 25.958,36.7150937 L21.1905,25.3382187 Z M14.6853437,22.7985312 C15.6790937,23.6322812 16.9003437,24.213375 18.1808125,24.4318125 C18.1734687,24.4494687 18.168,24.4750937 18.1564375,24.4897812 L12.9470625,36.8091562 C11.7758125,36.2561875 10.6600312,35.5419687 9.603,34.6704062 L14.6389375,22.7618125 C14.65425,22.7741562 14.6706562,22.7857187 14.6853437,22.7985312 L14.6853437,22.7985312 Z M7.8451875,48.8750937 L6.24846875,52.65025 L5.43065625,47.854 L7.8451875,48.8750937 Z M9.06221875,45.9968125 L5.458,44.47275 L8.3358125,37.6666562 C9.31425,38.40025 10.4428437,39.103375 11.7264375,39.6954062 L10.383,42.8729062 L9.06221875,45.9968125 Z M31.838625,50.749625 L27.1706563,39.6100937 C28.45425,39.00025 29.5797188,38.2807187 30.5514375,37.5354062 L35.4714375,49.2450937 L31.838625,50.749625 Z M16.9656562,13.55775 C18.4225313,12.52025 20.4245625,12.4982187 21.9033125,13.504625 C23.0489375,14.2847812 23.8028438,15.5994687 23.8028438,17.0868125 C23.8028438,17.8900938 23.5825313,18.6425937 23.1997188,19.288375 C23.1515937,19.369625 23.1009688,19.4494688 23.0472188,19.5275938 C22.463625,20.379625 21.5847188,21.0138437 20.5581563,21.2799375 C19.004875,21.6815 17.3226875,21.1694687 16.2509688,19.9793125 C15.5612812,19.2115 15.1406562,18.19775 15.1406562,17.0868125 C15.1406562,15.6769687 15.8175312,14.4225937 16.8631563,13.6310312 C16.8972188,13.6060312 16.9314375,13.582125 16.9656562,13.55775 L16.9656562,13.55775 Z" id="Fill-1" fill="#FFFFFF" mask="url(#mask-5)"></path>
            </g>
        </g>
    </g>
</svg>