<?xml version="1.0" encoding="UTF-8"?>
<svg width="1170px" height="799px" viewBox="0 0 1170 799" version="1.1" xmlns="http://www.w3.org/2000/svg" xmlns:xlink="http://www.w3.org/1999/xlink">
    <!-- Generator: Sketch 60.1 (88133) - https://sketch.com -->
    <title>Artboard Copy 2</title>
    <desc>Created with Sketch.</desc>
    <defs>
        <polygon id="path-1" points="0 7.19762791e-14 1509 0 1509 834 0 834"></polygon>
        <linearGradient x1="46.495124%" y1="65.594466%" x2="17.6416337%" y2="45.2161675%" id="linearGradient-3">
            <stop stop-color="#190C80" offset="0%"></stop>
            <stop stop-color="#C738EE" offset="100%"></stop>
        </linearGradient>
        <path d="M-364.496361,-332 C-80.3438474,-332 150.007278,-101.526138 150.007278,182.777778 C150.007278,275.743104 125.377151,362.952691 82.2896876,438.230459 L82.7248746,438.428651 C76.2298459,452.415344 72.6040757,468.006246 72.6040757,484.444444 C72.6040757,544.827577 121.528209,593.777778 181.879185,593.777778 C191.71491,593.777778 201.247126,592.477612 210.313517,590.039686 C233.591594,585.851361 257.564819,583.666667 282.048035,583.666667 C504.59226,583.666667 685,764.170532 685,986.833333 C685,996.918688 684.62988,1006.91755 683.90249,1016.81707 L683.888383,1016.81242 C757.228861,916.876184 875.538108,852 1009,852 C1231.57075,852 1412,1032.42925 1412,1255 C1412,1477.57075 1231.57075,1658 1009,1658 C786.429246,1658 606,1477.57075 606,1255 C606,1244.95596 606.367441,1234.99775 607.089613,1225.13806 L607.103962,1225.14251 C533.770949,1325.10698 415.483745,1390 282.048035,1390 C59.5038097,1390 -120.90393,1209.49613 -120.90393,986.833333 C-120.90393,926.576538 -107.691829,869.407238 -84.0079828,818.067251 L-191.477438,788.666667 L-214.335984,675.286072 C-261.839951,689.766576 -312.259034,697.555556 -364.496361,697.555556 C-648.648875,697.555556 -879,467.081694 -879,182.777778 C-879,-101.526138 -648.648875,-332 -364.496361,-332 Z M2607.5,275 C2878.39567,275 3098,494.60433 3098,765.5 C3098,1036.39567 2878.39567,1256 2607.5,1256 C2336.60433,1256 2117,1036.39567 2117,765.5 C2117,494.60433 2336.60433,275 2607.5,275 Z M1095,-552 C1317.57075,-552 1307.5,-73.5707542 1307.5,149 C1307.5,371.570754 1229.07075,247 1006.5,247 C783.929246,247 692,73.5707542 692,-149 C692,-371.570754 872.429246,-552 1095,-552 Z M1887,-1613 C2191.3089,-1613 2438,-1366.3089 2438,-1062 C2438,-757.691103 2191.3089,-511 1887,-511 C1582.6911,-511 1336,-757.691103 1336,-1062 C1336,-1366.3089 1582.6911,-1613 1887,-1613 Z" id="path-4"></path>
        <filter x="-11.8%" y="-14.4%" width="123.7%" height="128.8%" filterUnits="objectBoundingBox" id="filter-5">
            <feOffset dx="0" dy="0" in="SourceAlpha" result="shadowOffsetOuter1"></feOffset>
            <feGaussianBlur stdDeviation="157" in="shadowOffsetOuter1" result="shadowBlurOuter1"></feGaussianBlur>
            <feColorMatrix values="0 0 0 0 0   0 0 0 0 0   0 0 0 0 0  0 0 0 0.2 0" type="matrix" in="shadowBlurOuter1"></feColorMatrix>
        </filter>
    </defs>
    <g id="Artboard-Copy-2" stroke="none" stroke-width="1" fill="none" fill-rule="evenodd">
        <g id="Group-Copy-8">
            <g id="Group-6">
                <mask id="mask-2" fill="white">
                    <use xlink:href="#path-1"></use>
                </mask>
                <use id="Rectangle-Copy-4" fill="#000000" xlink:href="#path-1"></use>
                <g id="Combined-Shape" mask="url(#mask-2)">
                    <use fill="black" fill-opacity="1" filter="url(#filter-5)" xlink:href="#path-4"></use>
                    <use fill="url(#linearGradient-3)" fill-rule="evenodd" xlink:href="#path-4"></use>
                </g>
            </g>
        </g>
    </g>
</svg>