<?xml version="1.0" encoding="UTF-8"?>
<svg width="1170px" height="799px" viewBox="0 0 1170 799" version="1.1" xmlns="http://www.w3.org/2000/svg" xmlns:xlink="http://www.w3.org/1999/xlink">
    <!-- Generator: Sketch 60.1 (88133) - https://sketch.com -->
    <title>Artboard Copy 3</title>
    <desc>Created with Sketch.</desc>
    <defs>
        <polygon id="path-1" points="0 7.19762791e-14 1509 0 1509 834 0 834"></polygon>
        <linearGradient x1="38.255909%" y1="66.5085301%" x2="22.2533474%" y2="49.5041251%" id="linearGradient-3">
            <stop stop-color="#3545DD" offset="0%"></stop>
            <stop stop-color="#C738EE" offset="100%"></stop>
        </linearGradient>
        <path d="M706.27802,-741 C972.080531,-741 1187.55604,-525.382467 1187.55604,-259.404762 C1187.55604,-177.805831 1167.27565,-100.946761 1131.48348,-33.5993131 C1128.88285,-29.5821141 1126.55889,-25.3693242 1124.53542,-20.989071 L1124.21119,-20.417967 L1124.26328,-20.39495 C1118.41092,-7.50956605 1115.15138,6.80478909 1115.15138,21.8809524 C1115.15138,78.3717925 1160.91609,124.166667 1217.36972,124.166667 C1223.40264,124.166667 1229.31348,123.643684 1235.05945,122.640554 L1235.215,123.283 L1236.92527,122.937816 C1260.89808,118.152681 1285.69107,115.642857 1311.06987,115.642857 C1519.24263,115.642857 1688,284.511456 1688,492.821429 C1688,502.325104 1687.64874,511.746685 1686.95851,521.073881 L1686.94423,521.069166 C1755.55915,427.642934 1866.19762,367 1991,367 C2199.21135,367 2368,535.788649 2368,744 C2368,952.211351 2199.21135,1121 1991,1121 C1782.78865,1121 1614,952.211351 1614,744 C1614,734.542546 1614.34824,725.166429 1615.03261,715.883772 L1615.04651,715.888896 C1546.4426,809.341773 1435.83531,870 1311.06987,870 C1102.89711,870 934.139738,701.131402 934.139738,492.821429 C934.139738,439.177666 945.331052,388.149497 965.504827,341.947232 C973.99561,327.43505 978.860262,310.541952 978.860262,292.511905 C978.860262,238.37485 935.002415,194.488095 880.901019,194.488095 C866.442713,194.488095 852.715998,197.622473 840.362453,203.249226 C797.801421,215.582228 752.810932,222.190476 706.27802,222.190476 C440.475509,222.190476 225,6.57294367 225,-259.404762 C225,-525.382467 440.475509,-741 706.27802,-741 Z M3487,-173 C3740.4987,-173 3946,32.5012998 3946,286 C3946,539.4987 3740.4987,745 3487,745 C3233.5013,745 3028,539.4987 3028,286 C3028,32.5012998 3233.5013,-173 3487,-173 Z M2072,-947 C2280.21135,-947 2449,-778.211351 2449,-570 C2449,-361.788649 2280.21135,-193 2072,-193 C1863.78865,-193 1695,-361.788649 1695,-570 C1695,-778.211351 1863.78865,-947 2072,-947 Z M2812.5,-1940 C3097.20279,-1940 3328,-1709.20279 3328,-1424.5 C3328,-1139.79721 3097.20279,-909 2812.5,-909 C2527.79721,-909 2297,-1139.79721 2297,-1424.5 C2297,-1709.20279 2527.79721,-1940 2812.5,-1940 Z" id="path-4"></path>
        <filter x="-12.7%" y="-15.4%" width="125.3%" height="130.8%" filterUnits="objectBoundingBox" id="filter-5">
            <feOffset dx="0" dy="0" in="SourceAlpha" result="shadowOffsetOuter1"></feOffset>
            <feGaussianBlur stdDeviation="157" in="shadowOffsetOuter1" result="shadowBlurOuter1"></feGaussianBlur>
            <feColorMatrix values="0 0 0 0 0   0 0 0 0 0   0 0 0 0 0  0 0 0 0.2 0" type="matrix" in="shadowBlurOuter1"></feColorMatrix>
        </filter>
    </defs>
    <g id="Artboard-Copy-3" stroke="none" stroke-width="1" fill="none" fill-rule="evenodd">
        <g id="Group-Copy-8">
            <g id="Group-6">
                <mask id="mask-2" fill="white">
                    <use xlink:href="#path-1"></use>
                </mask>
                <use id="Rectangle-Copy-4" fill="#000000" xlink:href="#path-1"></use>
                <g id="Combined-Shape" mask="url(#mask-2)">
                    <use fill="black" fill-opacity="1" filter="url(#filter-5)" xlink:href="#path-4"></use>
                    <use fill="url(#linearGradient-3)" fill-rule="evenodd" xlink:href="#path-4"></use>
                </g>
            </g>
        </g>
    </g>
</svg>