<?xml version="1.0" encoding="UTF-8"?>
<svg width="30px" height="30px" viewBox="0 0 30 30" version="1.1" xmlns="http://www.w3.org/2000/svg" xmlns:xlink="http://www.w3.org/1999/xlink">
    <!-- Generator: Sketch 57.1 (83088) - https://sketch.com -->
    <title>icno/linkedin/black</title>
    <desc>Created with Sketch.</desc>
    <g id="Page-1" stroke="none" stroke-width="1" fill="none" fill-rule="evenodd">
        <g id="Home-&gt;-Desktop-Copy-26" transform="translate(-1149.000000, -7685.000000)" fill="#FFFFFF" fill-rule="nonzero">
            <g id="Group-9" transform="translate(29.000000, 7615.000000)">
                <g id="icno/linkedin/white" transform="translate(1120.000000, 70.000000)">
                    <path d="M27.7277262,0 L2.21220418,0 C0.990417633,0 0.000139211137,0.960069606 0.000139211137,2.1450348 L0.000139211137,27.7926682 C0.000139211137,28.977703 0.990765661,29.9386079 2.21220418,29.9386079 L27.7277262,29.9386079 C28.9492343,29.9386079 29.9383991,28.9770766 29.9383991,27.7926682 L29.9383991,2.1450348 C29.9383991,0.960417633 28.9492343,0 27.7277262,0 Z M9.07656613,25.0606497 L4.55310905,25.0606497 L4.55310905,11.5437355 L9.07656613,11.5437355 L9.07656613,25.0606497 Z M6.81529002,9.69709977 L6.78487239,9.69709977 C5.26795824,9.69709977 4.28464037,8.65969838 4.28464037,7.36092807 C4.28464037,6.03598608 5.29684455,5.02670534 6.84382831,5.02670534 C8.39095128,5.02670534 9.34259861,6.03570766 9.37266821,7.36092807 C9.37266821,8.6599768 8.3912993,9.69709977 6.81529002,9.69709977 Z M25.382297,25.0606497 L20.8603016,25.0606497 L20.8603016,17.8286311 C20.8603016,16.0114385 20.2051044,14.7714849 18.5697912,14.7714849 C17.3187703,14.7714849 16.5761485,15.6080046 16.2500464,16.4156381 C16.1292111,16.7040835 16.0992807,17.1075174 16.0992807,17.5103944 L16.0992807,25.0603712 L11.5781206,25.0603712 C11.5781206,25.0603712 11.6372854,12.8112529 11.5781206,11.5435267 L16.0999768,11.5435267 L16.0999768,13.4598376 C16.7002552,12.5390255 17.7729466,11.2254988 20.1742691,11.2254988 C23.1506032,11.2254988 25.382297,13.1562877 25.382297,17.31 L25.382297,25.0606497 Z M16.0795568,13.5273125 C16.0906568,13.5091125 16.1061568,13.4872125 16.1215568,13.4659125 L16.1215568,13.5273125 L16.0795568,13.5273125 Z" id="LinkedIn__x28_alt_x29_"></path>
                </g>
            </g>
        </g>
    </g>
</svg>