<svg width="60" height="60" viewBox="0 0 60 60" fill="none" xmlns="http://www.w3.org/2000/svg">
<rect width="60" height="60" rx="10" fill="#331345"/>
<path d="M45 17.5H15C14.6685 17.5 14.3505 17.6317 14.1161 17.8661C13.8817 18.1005 13.75 18.4185 13.75 18.75V40C13.75 40.663 14.0134 41.2989 14.4822 41.7678C14.9511 42.2366 15.587 42.5 16.25 42.5H43.75C44.413 42.5 45.0489 42.2366 45.5178 41.7678C45.9866 41.2989 46.25 40.663 46.25 40V18.75C46.25 18.4185 46.1183 18.1005 45.8839 17.8661C45.6495 17.6317 45.3315 17.5 45 17.5ZM41.7859 20L30 30.8047L18.2141 20H41.7859ZM43.75 40H16.25V21.5922L29.1547 33.4219C29.3853 33.6336 29.687 33.751 30 33.751C30.313 33.751 30.6147 33.6336 30.8453 33.4219L43.75 21.5922V40Z" fill="#A932F8"/>
</svg>
