<svg width="60" height="60" viewBox="0 0 60 60" fill="none" xmlns="http://www.w3.org/2000/svg">
<rect width="60" height="60" rx="10" fill="#331345"/>
<path d="M43.75 13.75H16.25C15.587 13.75 14.9511 14.0134 14.4822 14.4822C14.0134 14.9511 13.75 15.587 13.75 16.25V43.75C13.75 44.413 14.0134 45.0489 14.4822 45.5178C14.9511 45.9866 15.587 46.25 16.25 46.25H43.75C44.413 46.25 45.0489 45.9866 45.5178 45.5178C45.9866 45.0489 46.25 44.413 46.25 43.75V16.25C46.25 15.587 45.9866 14.9511 45.5178 14.4822C45.0489 14.0134 44.413 13.75 43.75 13.75ZM43.75 43.75H16.25V16.25H43.75V43.75ZM25 27.5V37.5C25 37.8315 24.8683 38.1495 24.6339 38.3839C24.3995 38.6183 24.0815 38.75 23.75 38.75C23.4185 38.75 23.1005 38.6183 22.8661 38.3839C22.6317 38.1495 22.5 37.8315 22.5 37.5V27.5C22.5 27.1685 22.6317 26.8505 22.8661 26.6161C23.1005 26.3817 23.4185 26.25 23.75 26.25C24.0815 26.25 24.3995 26.3817 24.6339 26.6161C24.8683 26.8505 25 27.1685 25 27.5ZM38.75 31.875V37.5C38.75 37.8315 38.6183 38.1495 38.3839 38.3839C38.1495 38.6183 37.8315 38.75 37.5 38.75C37.1685 38.75 36.8505 38.6183 36.6161 38.3839C36.3817 38.1495 36.25 37.8315 36.25 37.5V31.875C36.25 31.0462 35.9208 30.2513 35.3347 29.6653C34.7487 29.0792 33.9538 28.75 33.125 28.75C32.2962 28.75 31.5013 29.0792 30.9153 29.6653C30.3292 30.2513 30 31.0462 30 31.875V37.5C30 37.8315 29.8683 38.1495 29.6339 38.3839C29.3995 38.6183 29.0815 38.75 28.75 38.75C28.4185 38.75 28.1005 38.6183 27.8661 38.3839C27.6317 38.1495 27.5 37.8315 27.5 37.5V27.5C27.5016 27.1938 27.6154 26.8989 27.82 26.6711C28.0246 26.4433 28.3057 26.2985 28.61 26.2642C28.9142 26.2299 29.2205 26.3085 29.4707 26.485C29.7208 26.6615 29.8975 26.9237 29.9672 27.2219C30.8128 26.6482 31.7987 26.3158 32.819 26.2602C33.8393 26.2046 34.8554 26.428 35.7584 26.9063C36.6613 27.3847 37.4169 28.1 37.9439 28.9754C38.471 29.8508 38.7497 30.8532 38.75 31.875ZM25.625 23.125C25.625 23.4958 25.515 23.8584 25.309 24.1667C25.103 24.475 24.8101 24.7154 24.4675 24.8573C24.1249 24.9992 23.7479 25.0363 23.3842 24.964C23.0205 24.8916 22.6864 24.713 22.4242 24.4508C22.162 24.1886 21.9834 23.8545 21.911 23.4908C21.8387 23.1271 21.8758 22.7501 22.0177 22.4075C22.1596 22.0649 22.4 21.772 22.7083 21.566C23.0166 21.36 23.3792 21.25 23.75 21.25C24.2473 21.25 24.7242 21.4475 25.0758 21.7992C25.4275 22.1508 25.625 22.6277 25.625 23.125Z" fill="#A932F8"/>
</svg>
