<svg width="32" height="32" viewBox="0 0 32 32" fill="none" xmlns="http://www.w3.org/2000/svg">
<path d="M24.9961 28H18.8136C19.8522 27.0727 20.8316 26.0811 21.7461 25.0312C25.1773 21.085 26.9961 16.925 26.9961 13C26.9961 10.0826 25.8372 7.28473 23.7743 5.22183C21.7114 3.15893 18.9135 2 15.9961 2C13.0787 2 10.2808 3.15893 8.21792 5.22183C6.15502 7.28473 4.99609 10.0826 4.99609 13C4.99609 16.925 6.80984 21.085 10.2461 25.0312C11.1606 26.0811 12.14 27.0727 13.1786 28H6.99609C6.73088 28 6.47652 28.1054 6.28899 28.2929C6.10145 28.4804 5.99609 28.7348 5.99609 29C5.99609 29.2652 6.10145 29.5196 6.28899 29.7071C6.47652 29.8946 6.73088 30 6.99609 30H24.9961C25.2613 30 25.5157 29.8946 25.7032 29.7071C25.8907 29.5196 25.9961 29.2652 25.9961 29C25.9961 28.7348 25.8907 28.4804 25.7032 28.2929C25.5157 28.1054 25.2613 28 24.9961 28ZM6.99609 13C6.99609 10.6131 7.94431 8.32387 9.63213 6.63604C11.32 4.94821 13.6091 4 15.9961 4C18.383 4 20.6722 4.94821 22.3601 6.63604C24.0479 8.32387 24.9961 10.6131 24.9961 13C24.9961 20.1537 18.0623 26.125 15.9961 27.75C13.9298 26.125 6.99609 20.1537 6.99609 13ZM20.9961 13C20.9961 12.0111 20.7028 11.0444 20.1534 10.2221C19.604 9.3999 18.8231 8.75904 17.9095 8.3806C16.9959 8.00216 15.9905 7.90315 15.0206 8.09607C14.0507 8.289 13.1598 8.7652 12.4606 9.46447C11.7613 10.1637 11.2851 11.0546 11.0922 12.0245C10.8992 12.9945 10.9983 13.9998 11.3767 14.9134C11.7551 15.827 12.396 16.6079 13.2182 17.1573C14.0405 17.7068 15.0072 18 15.9961 18C17.3222 18 18.5939 17.4732 19.5316 16.5355C20.4693 15.5979 20.9961 14.3261 20.9961 13ZM12.9961 13C12.9961 12.4067 13.172 11.8266 13.5017 11.3333C13.8313 10.8399 14.2999 10.4554 14.848 10.2284C15.3962 10.0013 15.9994 9.94189 16.5814 10.0576C17.1633 10.1734 17.6979 10.4591 18.1174 10.8787C18.537 11.2982 18.8227 11.8328 18.9384 12.4147C19.0542 12.9967 18.9948 13.5999 18.7677 14.1481C18.5407 14.6962 18.1562 15.1648 17.6628 15.4944C17.1695 15.8241 16.5894 16 15.9961 16C15.2004 16 14.4374 15.6839 13.8748 15.1213C13.3122 14.5587 12.9961 13.7956 12.9961 13Z" fill="#A932F8"/>
</svg>
