<?xml version="1.0" encoding="UTF-8"?>
<svg width="122px" height="25px" viewBox="0 0 122 25" version="1.1" xmlns="http://www.w3.org/2000/svg" xmlns:xlink="http://www.w3.org/1999/xlink">
    <!-- Generator: Sketch 59.1 (86144) - https://sketch.com -->
    <title>logo5</title>
    <desc>Created with Sketch.</desc>
    <g id="Page-1" stroke="none" stroke-width="1" fill="none" fill-rule="evenodd" opacity="0.300000012">
        <g id="Home-&gt;-Desktop-Copy-30" transform="translate(-365.000000, -2757.000000)" fill="#000000">
            <g id="logo/sf" transform="translate(365.000000, 2757.905660)">
                <path d="M59.922717,2.94857143 C59.7477727,2.72914176 59.5106807,2.56685767 59.211434,2.46171429 C58.9121872,2.3565709 58.6290579,2.304 58.3620377,2.304 C58.2055087,2.304 58.0443782,2.32228553 57.8786415,2.35885714 C57.7129048,2.39542875 57.5563781,2.45257104 57.4090566,2.53028571 C57.2617351,2.60800039 57.1420382,2.7108565 57.0499623,2.83885714 C56.9578863,2.96685778 56.9118491,3.1222848 56.9118491,3.30514286 C56.9118491,3.59771575 57.0223385,3.82171351 57.2433208,3.97714286 C57.464303,4.13257221 57.7428285,4.26514231 58.0789057,4.37485714 C58.4149828,4.48457198 58.7763754,4.59428517 59.1630943,4.704 C59.5498133,4.81371483 59.9112059,4.96914185 60.247283,5.17028571 C60.5833602,5.37142958 60.8618857,5.64114117 61.0828679,5.97942857 C61.3038502,6.31771598 61.4143396,6.77028288 61.4143396,7.33714286 C61.4143396,7.87657413 61.3130576,8.34742656 61.1104906,8.74971429 C60.9079235,9.15200201 60.6340017,9.48571296 60.288717,9.75085714 C59.9434322,10.0160013 59.5429079,10.2125708 59.0871321,10.3405714 C58.6313562,10.4685721 58.1502667,10.5325714 57.6438491,10.5325714 C57.0085251,10.5325714 56.419248,10.4365724 55.876,10.2445714 C55.332752,10.0525705 54.826342,9.74171643 54.3567547,9.312 L55.8898113,7.63885714 C56.1107936,7.93143003 56.3893191,8.15771349 56.7253962,8.31771429 C57.0614734,8.47771509 57.4090548,8.55771429 57.7681509,8.55771429 C57.9430952,8.55771429 58.1203387,8.53714306 58.2998868,8.496 C58.4794349,8.45485694 58.6405653,8.39314327 58.783283,8.31085714 C58.9260007,8.22857102 59.0410939,8.12342921 59.128566,7.99542857 C59.2160382,7.86742793 59.2597736,7.7165723 59.2597736,7.54285714 C59.2597736,7.25028425 59.1469823,7.01942942 58.9213962,6.85028571 C58.6958102,6.68114201 58.4126809,6.53714345 58.072,6.41828571 C57.7313191,6.29942798 57.3630208,6.18057202 56.9670943,6.06171429 C56.5711678,5.94285655 56.2028696,5.78285815 55.8621887,5.58171429 C55.5215077,5.38057042 55.2383785,5.11543022 55.0127925,4.78628571 C54.7872064,4.45714121 54.6744151,4.02285984 54.6744151,3.48342857 C54.6744151,2.96228311 54.777999,2.50514482 54.9851698,2.112 C55.1923407,1.71885518 55.4685643,1.38971561 55.8138491,1.12457143 C56.1591338,0.859427246 56.5573562,0.660572091 57.0085283,0.528 C57.4597004,0.395427909 57.9246769,0.329142857 58.4034717,0.329142857 C58.9559273,0.329142857 59.4899597,0.406856366 60.0055849,0.562285714 C60.5212101,0.717715063 60.9861866,0.978283886 61.4005283,1.344 L59.922717,2.94857143 Z M63.297283,5.43085714 C63.297283,4.6537104 63.4284893,3.94971744 63.6909057,3.31885714 C63.9533221,2.68799685 64.3193184,2.15085936 64.7889057,1.70742857 C65.2584929,1.26399778 65.8155439,0.92342976 66.4600755,0.685714286 C67.104607,0.447998811 67.8089773,0.329142857 68.5732075,0.329142857 C69.3374378,0.329142857 70.0418081,0.447998811 70.6863396,0.685714286 C71.3308711,0.92342976 71.8879222,1.26399778 72.3575094,1.70742857 C72.8270967,2.15085936 73.193093,2.68799685 73.4555094,3.31885714 C73.7179258,3.94971744 73.8491321,4.6537104 73.8491321,5.43085714 C73.8491321,6.20800389 73.7179258,6.91199685 73.4555094,7.54285714 C73.193093,8.17371744 72.8270967,8.71085493 72.3575094,9.15428571 C71.8879222,9.5977165 71.3308711,9.93828453 70.6863396,10.176 C70.0418081,10.4137155 69.3374378,10.5325714 68.5732075,10.5325714 C67.8089773,10.5325714 67.104607,10.4137155 66.4600755,10.176 C65.8155439,9.93828453 65.2584929,9.5977165 64.7889057,9.15428571 C64.3193184,8.71085493 63.9533221,8.17371744 63.6909057,7.54285714 C63.4284893,6.91199685 63.297283,6.20800389 63.297283,5.43085714 Z M65.534717,5.43085714 C65.534717,5.88800229 65.6060748,6.30628382 65.7487925,6.68571429 C65.8915101,7.06514475 66.096376,7.39428432 66.3633962,7.67314286 C66.6304164,7.95200139 66.9503755,8.16914208 67.323283,8.32457143 C67.6961905,8.48000078 68.1128279,8.55771429 68.5732075,8.55771429 C69.0335872,8.55771429 69.4502246,8.48000078 69.8231321,8.32457143 C70.1960396,8.16914208 70.5159987,7.95200139 70.7830189,7.67314286 C71.0500391,7.39428432 71.2549049,7.06514475 71.3976226,6.68571429 C71.5403403,6.30628382 71.6116981,5.88800229 71.6116981,5.43085714 C71.6116981,4.9828549 71.5403403,4.56685906 71.3976226,4.18285714 C71.2549049,3.79885522 71.0500391,3.46742997 70.7830189,3.18857143 C70.5159987,2.90971289 70.1960396,2.69257221 69.8231321,2.53714286 C69.4502246,2.38171351 69.0335872,2.304 68.5732075,2.304 C68.1128279,2.304 67.6961905,2.38171351 67.323283,2.53714286 C66.9503755,2.69257221 66.6304164,2.90971289 66.3633962,3.18857143 C66.096376,3.46742997 65.8915101,3.79885522 65.7487925,4.18285714 C65.6060748,4.56685906 65.534717,4.9828549 65.534717,5.43085714 Z M82.513434,3.09942857 C82.3016593,2.84342729 82.0415487,2.64685783 81.7330943,2.50971429 C81.42464,2.37257074 81.0678511,2.304 80.662717,2.304 C80.2575829,2.304 79.8823791,2.38171351 79.5370943,2.53714286 C79.1918096,2.69257221 78.8925673,2.90971289 78.6393585,3.18857143 C78.3861497,3.46742997 78.1881894,3.79885522 78.0454717,4.18285714 C77.902754,4.56685906 77.8313962,4.9828549 77.8313962,5.43085714 C77.8313962,5.88800229 77.902754,6.30628382 78.0454717,6.68571429 C78.1881894,7.06514475 78.3838478,7.39428432 78.6324528,7.67314286 C78.8810578,7.95200139 79.1733945,8.16914208 79.5094717,8.32457143 C79.8455489,8.48000078 80.2069415,8.55771429 80.5936604,8.55771429 C81.0356249,8.55771429 81.4269417,8.46628663 81.7676226,8.28342857 C82.1083036,8.10057051 82.389131,7.84457307 82.6101132,7.51542857 L84.4055849,8.84571429 C83.9912432,9.42171717 83.4664183,9.84685577 82.8310943,10.1211429 C82.1957704,10.3954299 81.5420411,10.5325714 80.8698868,10.5325714 C80.1056566,10.5325714 79.4012862,10.4137155 78.7567547,10.176 C78.1122232,9.93828453 77.5551722,9.5977165 77.0855849,9.15428571 C76.6159977,8.71085493 76.2500013,8.17371744 75.9875849,7.54285714 C75.7251685,6.91199685 75.5939623,6.20800389 75.5939623,5.43085714 C75.5939623,4.6537104 75.7251685,3.94971744 75.9875849,3.31885714 C76.2500013,2.68799685 76.6159977,2.15085936 77.0855849,1.70742857 C77.5551722,1.26399778 78.1122232,0.92342976 78.7567547,0.685714286 C79.4012862,0.447998811 80.1056566,0.329142857 80.8698868,0.329142857 C81.1461146,0.329142857 81.4338476,0.354285463 81.7330943,0.404571429 C82.0323411,0.454857394 82.3269797,0.534856594 82.6170189,0.644571429 C82.9070581,0.754286263 83.1855836,0.900571429 83.4526038,1.08342857 C83.719624,1.26628663 83.9590178,1.49028439 84.1707925,1.75542857 L82.513434,3.09942857 Z M86.3575849,0.576 L88.5121509,0.576 L88.5121509,10.2857143 L86.3575849,10.2857143 L86.3575849,0.576 Z M94.4970566,0.576 L96.278717,0.576 L100.532604,10.2857143 L98.1018113,10.2857143 L97.2593208,8.22857143 L93.4612075,8.22857143 L92.6463396,10.2857143 L90.2707925,10.2857143 L94.4970566,0.576 Z M95.3257358,3.40114286 L94.1379623,6.41828571 L96.5273208,6.41828571 L95.3257358,3.40114286 Z M102.401736,0.576 L104.556302,0.576 L104.556302,8.31085714 L108.547774,8.31085714 L108.547774,10.2857143 L102.401736,10.2857143 L102.401736,0.576 Z" id="SOCIAL" fill-rule="nonzero"></path>
                <path d="M55.1716226,13.6045714 L61.732,13.6045714 L61.732,15.5794286 L57.3261887,15.5794286 L57.3261887,17.5542857 L61.4005283,17.5542857 L61.4005283,19.5291429 L57.3261887,19.5291429 L57.3261887,23.3142857 L55.1716226,23.3142857 L55.1716226,13.6045714 Z M64.0569057,13.6045714 L66.2114717,13.6045714 L66.2114717,23.3142857 L64.0569057,23.3142857 L64.0569057,13.6045714 Z M68.9783396,13.6045714 L71.9063396,13.6045714 L76.0635472,20.352 L76.0911698,20.352 L76.0911698,13.6045714 L78.2457358,13.6045714 L78.2457358,23.3142857 L75.4282264,23.3142857 L71.1605283,16.4022857 L71.1329057,16.4022857 L71.1329057,23.3142857 L68.9783396,23.3142857 L68.9783396,13.6045714 Z M84.2582642,13.6045714 L86.0399245,13.6045714 L90.2938113,23.3142857 L87.8630189,23.3142857 L87.0205283,21.2571429 L83.2224151,21.2571429 L82.4075472,23.3142857 L80.032,23.3142857 L84.2582642,13.6045714 Z M85.0869434,16.4297143 L83.8991698,19.4468571 L86.2885283,19.4468571 L85.0869434,16.4297143 Z M92.0800755,13.6045714 L95.0080755,13.6045714 L99.165283,20.352 L99.1929057,20.352 L99.1929057,13.6045714 L101.347472,13.6045714 L101.347472,23.3142857 L98.5299623,23.3142857 L94.2622642,16.4022857 L94.2346415,16.4022857 L94.2346415,23.3142857 L92.0800755,23.3142857 L92.0800755,13.6045714 Z M110.536604,16.128 C110.324829,15.8719987 110.064719,15.6754293 109.756264,15.5382857 C109.44781,15.4011422 109.091021,15.3325714 108.685887,15.3325714 C108.280753,15.3325714 107.905549,15.4102849 107.560264,15.5657143 C107.214979,15.7211436 106.915737,15.9382843 106.662528,16.2171429 C106.409319,16.4960014 106.211359,16.8274267 106.068642,17.2114286 C105.925924,17.5954305 105.854566,18.0114263 105.854566,18.4594286 C105.854566,18.9165737 105.925924,19.3348552 106.068642,19.7142857 C106.211359,20.0937162 106.407018,20.4228557 106.655623,20.7017143 C106.904228,20.9805728 107.196564,21.1977135 107.532642,21.3531429 C107.868719,21.5085722 108.230111,21.5862857 108.61683,21.5862857 C109.058795,21.5862857 109.450112,21.4948581 109.790792,21.312 C110.131473,21.1291419 110.412301,20.8731445 110.633283,20.544 L112.428755,21.8742857 C112.014413,22.4502886 111.489588,22.8754272 110.854264,23.1497143 C110.21894,23.4240014 109.565211,23.5611429 108.893057,23.5611429 C108.128826,23.5611429 107.424456,23.4422869 106.779925,23.2045714 C106.135393,22.966856 105.578342,22.6262879 105.108755,22.1828571 C104.639167,21.7394264 104.273171,21.2022889 104.010755,20.5714286 C103.748338,19.9405683 103.617132,19.2365753 103.617132,18.4594286 C103.617132,17.6822818 103.748338,16.9782889 104.010755,16.3474286 C104.273171,15.7165683 104.639167,15.1794308 105.108755,14.736 C105.578342,14.2925692 106.135393,13.9520012 106.779925,13.7142857 C107.424456,13.4765702 108.128826,13.3577143 108.893057,13.3577143 C109.169284,13.3577143 109.457017,13.3828569 109.756264,13.4331429 C110.055511,13.4834288 110.350149,13.563428 110.640189,13.6731429 C110.930228,13.7828577 111.208753,13.9291429 111.475774,14.112 C111.742794,14.2948581 111.982188,14.5188558 112.193962,14.784 L110.536604,16.128 Z M114.491245,13.6045714 L121.134491,13.6045714 L121.134491,15.5794286 L116.645811,15.5794286 L116.645811,17.3897143 L120.885887,17.3897143 L120.885887,19.3645714 L116.645811,19.3645714 L116.645811,21.3394286 L121.383094,21.3394286 L121.383094,23.3142857 L114.491245,23.3142857 L114.491245,13.6045714 Z" id="FINANCE" fill-rule="nonzero"></path>
                <rect id="Rectangle" fill-rule="evenodd" x="26.4716981" y="7.28306304e-13" width="23.4792453" height="23.3142857"></rect>
                <ellipse id="Oval" fill-rule="evenodd" cx="11.7396226" cy="11.6571429" rx="11.7396226" ry="11.6571429"></ellipse>
            </g>
        </g>
    </g>
</svg>