<?xml version="1.0" encoding="UTF-8"?>
<svg width="124px" height="32px" viewBox="0 0 124 32" version="1.1" xmlns="http://www.w3.org/2000/svg" xmlns:xlink="http://www.w3.org/1999/xlink">
    <!-- Generator: Sketch 59.1 (86144) - https://sketch.com -->
    <title>logo12</title>
    <desc>Created with Sketch.</desc>
    <g id="Page-1" stroke="none" stroke-width="1" fill="none" fill-rule="evenodd" opacity="0.300000012">
        <g id="Home-&gt;-Desktop-Copy-30" transform="translate(-913.000000, -2874.000000)" fill-rule="nonzero">
            <g id="logo/dca" transform="translate(913.000000, 2873.968630)">
                <path d="M40.3592961,5.36165192 C42.123948,5.36165192 42.6457536,6.22064897 42.6457536,6.22064897 L42.6837031,6.22064897 C42.6837031,6.22064897 42.6647284,6.05073746 42.6647284,5.83362832 L42.6647284,4.15339233 C42.6647284,3.54926254 42.9872992,3.22831858 43.5944912,3.22831858 L44.6570773,3.22831858 C45.2642693,3.22831858 45.5868401,3.54926254 45.5868401,4.15339233 L45.5868401,13.3097345 C45.5868401,13.9138643 45.2642693,14.2348083 44.6570773,14.2348083 L43.7747513,14.2348083 C43.1675593,14.2348083 42.8449885,13.9516224 42.8449885,13.3946903 L42.8449885,13.2908555 C42.8449885,13.2530973 42.8639633,13.1775811 42.8639633,13.1775811 L42.8260138,13.1775811 C42.8260138,13.1775811 42.0954858,14.4424779 40.3023718,14.4424779 C37.9305279,14.4424779 36.3745983,12.5923304 36.3745983,9.89262537 C36.3840857,7.15516224 38.0443764,5.36165192 40.3592961,5.36165192 Z M41.0423871,12.0353982 C41.9247131,12.0353982 42.7501148,11.3935103 42.7501148,9.89262537 C42.7501148,8.84483776 42.1903596,7.82536873 41.0423871,7.82536873 C40.1315991,7.82536873 39.3346595,8.57109145 39.3346595,9.89262537 C39.3346595,11.1952802 40.0272379,12.0353982 41.0423871,12.0353982 Z" id="Shape" fill="#000000"></path>
                <path d="M51.4310635,5.36165192 C54.1918898,5.36165192 56.392961,7.19292035 56.392961,9.92094395 C56.392961,12.6300885 54.1918898,14.4330383 51.4500383,14.4330383 C48.7081867,14.4330383 46.5071155,12.6300885 46.5071155,9.92094395 C46.5071155,7.20235988 48.7081867,5.36165192 51.4310635,5.36165192 Z M51.4500383,12.0165192 C52.5126243,12.0165192 53.4328998,11.2235988 53.4328998,9.93038348 C53.4328998,8.61828909 52.5221117,7.78761062 51.4500383,7.78761062 C50.3874522,7.78761062 49.4671767,8.60884956 49.4671767,9.93038348 C49.4671767,11.2235988 50.3779648,12.0165192 51.4500383,12.0165192 Z" id="Shape" fill="#000000"></path>
                <path d="M61.9905126,5.36165192 C63.3092578,5.36165192 64.2390207,5.76755162 64.7987758,6.13569322 C65.2731446,6.43775811 65.3110941,6.90973451 64.9980107,7.40058997 L64.7133894,7.83480826 C64.3908187,8.3539823 64.0018363,8.37286136 63.4610559,8.10855457 C63.1195103,7.93864307 62.683091,7.78761062 62.1707728,7.78761062 C60.7856159,7.78761062 60.0930375,8.83539823 60.0930375,9.85486726 C60.0930375,10.8743363 60.8045907,12.0070796 62.2751339,12.0070796 C62.8538638,12.0070796 63.4231064,11.7710914 63.8500383,11.5162242 C64.4097934,11.2141593 64.8272379,11.280236 65.1213466,11.8371681 L65.3395562,12.2619469 C65.5957154,12.7716814 65.5387911,13.2247788 65.0833971,13.5268437 C64.476205,13.9327434 63.4231064,14.4330383 61.9905126,14.4330383 C58.8786534,14.4330383 57.1329763,12.280826 57.1329763,9.88318584 C57.1329763,7.57050147 58.8596787,5.36165192 61.9905126,5.36165192 Z" id="Path" fill="#000000"></path>
                <path d="M66.117521,4.15339233 C66.117521,3.54926254 66.4400918,3.22831858 67.0472839,3.22831858 L68.1098699,3.22831858 C68.717062,3.22831858 69.0396327,3.54926254 69.0396327,4.15339233 L69.0396327,5.72035398 L69.9409334,5.72035398 C70.5481255,5.72035398 70.8706963,6.04129794 70.8706963,6.64542773 L70.8706963,7.07020649 C70.8706963,7.67433628 70.5481255,7.99528024 69.9599082,7.99528024 L69.0491201,7.99528024 L69.0491201,10.619469 C69.0491201,11.3651917 69.5424637,11.6483776 70.0642693,11.7144543 C70.737873,11.79941 70.9940321,11.9976401 70.9940321,12.639528 L70.9940321,13.3946903 C70.9940321,14.0837758 70.5671002,14.319764 69.7891354,14.319764 C68.4988523,14.319764 66.117521,13.7345133 66.117521,11.1575221 L66.117521,4.15339233 L66.117521,4.15339233 Z" id="Path" fill="#000000"></path>
                <path d="M76.2500383,5.36165192 C79.0108646,5.36165192 81.2119357,7.19292035 81.2119357,9.92094395 C81.2119357,12.6300885 79.0108646,14.4330383 76.269013,14.4330383 C73.5271614,14.4330383 71.3260903,12.6300885 71.3260903,9.92094395 C71.3260903,7.20235988 73.5271614,5.36165192 76.2500383,5.36165192 Z M76.269013,12.0165192 C77.3315991,12.0165192 78.2518745,11.2235988 78.2518745,9.93038348 C78.2518745,8.61828909 77.3410865,7.78761062 76.269013,7.78761062 C75.2064269,7.78761062 74.2861515,8.60884956 74.2861515,9.93038348 C74.2861515,11.2235988 75.1969396,12.0165192 76.269013,12.0165192 Z" id="Shape" fill="#000000"></path>
                <path d="M82.103749,6.49439528 C82.103749,5.89026549 82.4263198,5.56932153 83.0335119,5.56932153 L83.9822494,5.56932153 C84.5894415,5.56932153 84.9120122,5.89026549 84.9120122,6.49439528 L84.9120122,7.03244838 C84.9120122,7.31563422 84.8740627,7.57050147 84.8740627,7.57050147 L84.9120122,7.57050147 C85.1966335,6.67374631 86.1263963,5.48436578 87.2269319,5.48436578 C87.8151492,5.48436578 88.0238715,5.80530973 88.0238715,6.40943953 L88.0238715,7.35339233 C88.0238715,7.95752212 87.7013007,8.27846608 87.0941086,8.27846608 C85.7089518,8.27846608 85.0258607,9.45840708 85.0258607,10.8743363 L85.0258607,13.3097345 C85.0258607,13.9138643 84.70329,14.2348083 84.0960979,14.2348083 L83.0335119,14.2348083 C82.4263198,14.2348083 82.103749,13.9138643 82.103749,13.3097345 L82.103749,6.49439528 Z" id="Path" fill="#000000"></path>
                <path d="M95.9742923,5.36165192 C97.2930375,5.36165192 98.2228003,5.76755162 98.7825555,6.13569322 C99.2569243,6.43775811 99.2948738,6.90973451 98.9817904,7.40058997 L98.6971691,7.83480826 C98.3745983,8.3539823 97.9856159,8.37286136 97.4448355,8.10855457 C97.10329,7.93864307 96.6668707,7.78761062 96.1545524,7.78761062 C94.7693956,7.78761062 94.0768171,8.83539823 94.0768171,9.85486726 C94.0768171,10.8743363 94.7883703,12.0070796 96.2589135,12.0070796 C96.8376435,12.0070796 97.406886,11.7710914 97.8338179,11.5162242 C98.3935731,11.2141593 98.8110176,11.280236 99.1051262,11.8371681 L99.3233359,12.2619469 C99.579495,12.7716814 99.5225708,13.2247788 99.0671767,13.5268437 C98.4599847,13.9327434 97.406886,14.4330383 95.9742923,14.4330383 C92.8624331,14.4330383 91.1167559,12.280826 91.1167559,9.88318584 C91.1167559,7.57050147 92.8434583,5.36165192 95.9742923,5.36165192 Z" id="Path" fill="#000000"></path>
                <path d="M104.892425,8.83539823 L105.148585,8.83539823 L105.148585,8.68436578 C105.148585,7.95752212 104.560367,7.72153392 103.915226,7.72153392 C103.355471,7.72153392 102.776741,7.91032448 102.340321,8.10855457 C101.780566,8.34454277 101.363122,8.24070796 101.087988,7.70265487 L100.888753,7.27787611 C100.632594,6.75870206 100.736955,6.30560472 101.258761,6.03185841 C101.922877,5.72979351 102.938026,5.36165192 104.19036,5.36165192 C106.590666,5.36165192 108.080184,6.69262537 108.080184,8.90147493 L108.080184,13.3097345 C108.080184,13.9138643 107.757613,14.2348083 107.150421,14.2348083 L106.334507,14.2348083 C105.727314,14.2348083 105.404744,13.9327434 105.404744,13.2908555 L105.404744,13.2247788 C105.404744,13.120944 105.423718,13.0548673 105.423718,13.0548673 L105.385769,13.0548673 C105.385769,13.0548673 104.560367,14.4330383 102.81469,14.4330383 C101.135425,14.4330383 99.9684774,13.2908555 99.9684774,11.7899705 C99.9684774,9.47728614 102.738791,8.83539823 104.892425,8.83539823 Z M103.687529,12.2713864 C104.531905,12.2713864 105.177047,11.4501475 105.177047,10.7421829 L105.177047,10.5061947 L104.901913,10.5061947 C104.000612,10.5061947 102.85264,10.7421829 102.85264,11.5351032 C102.862127,11.9315634 103.146748,12.2713864 103.687529,12.2713864 Z" id="Shape" fill="#000000"></path>
                <path d="M109.133282,6.49439528 C109.133282,5.89026549 109.455853,5.56932153 110.063045,5.56932153 L111.011783,5.56932153 C111.618975,5.56932153 111.941546,5.89026549 111.941546,6.49439528 L111.941546,7.03244838 C111.941546,7.31563422 111.903596,7.57050147 111.903596,7.57050147 L111.941546,7.57050147 C112.226167,6.67374631 113.15593,5.48436578 114.256465,5.48436578 C114.844682,5.48436578 115.053405,5.80530973 115.053405,6.40943953 L115.053405,7.35339233 C115.053405,7.95752212 114.730834,8.27846608 114.123642,8.27846608 C112.738485,8.27846608 112.055394,9.45840708 112.055394,10.8743363 L112.055394,13.3097345 C112.055394,13.9138643 111.732823,14.2348083 111.125631,14.2348083 L110.063045,14.2348083 C109.455853,14.2348083 109.133282,13.9138643 109.133282,13.3097345 L109.133282,6.49439528 L109.133282,6.49439528 Z" id="Path" fill="#000000"></path>
                <path d="M119.948891,5.36165192 C122.538944,5.36165192 123.981025,7.18348083 123.981025,9.50560472 C123.981025,9.95870206 123.573068,10.4684366 123.003826,10.4684366 L118.421423,10.4684366 C118.639633,11.5256637 119.521959,12.0165192 120.451721,12.0165192 C121.039939,12.0165192 121.599694,11.8277286 122.045601,11.6106195 C122.605356,11.3557522 123.013313,11.4218289 123.297934,11.959882 L123.535119,12.3941003 C123.810252,12.9132743 123.724866,13.3663717 123.212548,13.6589971 C122.586381,14.0082596 121.552257,14.4330383 120.214537,14.4330383 C117.102678,14.4330383 115.423373,12.1958702 115.423373,9.88318584 C115.413925,7.35339233 117.140627,5.36165192 119.948891,5.36165192 Z M121.077888,8.79764012 C121.077888,8.08967552 120.622494,7.50442478 119.872992,7.50442478 C119.028615,7.50442478 118.620658,8.10855457 118.46886,8.79764012 L121.077888,8.79764012 Z" id="Shape" fill="#000000"></path>
                <path d="M41.7539403,21.1539823 L42.2472839,21.1539823 L42.2472839,20.880236 C42.2472839,19.2471976 41.3459832,18.6902655 40.1505738,18.6902655 C39.2018363,18.6902655 38.4713083,19.039528 38.0823259,19.2755162 C37.8451415,19.3982301 37.655394,19.360472 37.503596,19.1433628 L37.3992349,18.9734513 C37.2664116,18.7563422 37.2948738,18.539233 37.5225708,18.3976401 C37.9589901,18.1238938 38.9077276,17.6613569 40.2264728,17.6613569 C42.2567712,17.6613569 43.3952563,18.7846608 43.3952563,20.9085546 L43.3952563,25.9115044 C43.3952563,26.1852507 43.2624331,26.3362832 42.9872992,26.3362832 L42.7121653,26.3362832 C42.4370314,26.3362832 42.2852334,26.2041298 42.2852334,25.9115044 L42.2852334,25.2412979 C42.2852334,24.8542773 42.3326702,24.59941 42.3326702,24.59941 L42.2947207,24.59941 C42.3136955,24.59941 41.5357307,26.5345133 39.4200459,26.5345133 C37.9779648,26.5345133 36.5453711,25.6943953 36.5453711,24.0613569 C36.5548585,21.3050147 40.1126243,21.1539823 41.7539403,21.1539823 Z M39.6382555,25.5811209 C41.2795715,25.5811209 42.2472839,23.900885 42.2472839,22.4188791 L42.2472839,22.0129794 L41.7729151,22.0129794 C40.4351951,22.0129794 37.7407804,22.060177 37.7407804,23.9669617 C37.7407804,24.759882 38.3669472,25.5811209 39.6382555,25.5811209 Z" id="Shape" fill="#000000"></path>
                <path d="M44.676052,18.2938053 C44.676052,18.020059 44.82785,17.8690265 45.1029839,17.8690265 L45.40658,17.8690265 C45.6627391,17.8690265 45.8145371,18.020059 45.8145371,18.2938053 L45.8145371,19.2660767 C45.8145371,19.6058997 45.7481255,19.8702065 45.7481255,19.8702065 L45.786075,19.8702065 C46.1086458,19.0961652 47.2281561,17.6613569 49.220505,17.6613569 C51.3361897,17.6613569 52.076205,18.860177 52.076205,20.9463127 L52.076205,25.9115044 C52.076205,26.1852507 51.924407,26.3362832 51.6492731,26.3362832 L51.3267024,26.3362832 C51.0515685,26.3362832 50.9187452,26.1852507 50.9187452,25.9115044 L50.9187452,21.2483776 C50.9187452,19.9174041 50.7005356,18.7374631 49.0592196,18.7374631 C47.2471308,18.7374631 45.8240245,20.219469 45.8240245,22.1923304 L45.8240245,25.9115044 C45.8240245,26.1852507 45.6912012,26.3362832 45.4160673,26.3362832 L45.0934966,26.3362832 C44.8183627,26.3362832 44.6665647,26.1852507 44.6665647,25.9115044 L44.6665647,18.2938053 L44.676052,18.2938053 Z" id="Path" fill="#000000"></path>
                <path d="M53.1008416,28.6489676 C53.2905891,28.7339233 53.5372609,28.8660767 53.8503443,28.8660767 C54.6093344,28.8660767 55.1216526,28.2053097 55.4442234,27.4690265 L55.9565417,26.2702065 L52.6074981,18.359882 C52.4936496,18.0766962 52.6264728,17.8690265 52.9300689,17.8690265 L53.3190513,17.8690265 C53.5752104,17.8690265 53.7080337,17.9728614 53.79342,18.1899705 L56.1842387,24.0519174 C56.3360367,24.4766962 56.4878347,24.9486726 56.4878347,24.9486726 L56.5257842,24.9486726 C56.5257842,24.9486726 56.6396327,24.4766962 56.8104055,24.0519174 L59.1442999,18.2088496 C59.2296863,17.9728614 59.3625096,17.8690265 59.6186687,17.8690265 L59.9886764,17.8690265 C60.2922724,17.8690265 60.4250956,18.0578171 60.3302219,18.359882 L56.317062,28.0542773 C55.8806427,29.1492625 54.9983168,29.8761062 53.8598317,29.8761062 C53.3664881,29.8761062 52.958531,29.7061947 52.6928845,29.5740413 C52.4746748,29.4702065 52.4082632,29.2342183 52.503137,29.0359882 L52.6074981,28.8471976 C52.7118592,28.6300885 52.8921194,28.5828909 53.1008416,28.6489676 Z" id="Path" fill="#000000"></path>
                <path d="M61.5351186,18.3410029 C61.4497322,18.0578171 61.5825555,17.8690265 61.8861515,17.8690265 L62.2371844,17.8690265 C62.4743688,17.8690265 62.6451415,17.9728614 62.7115532,18.2182891 L64.6564652,24.1746313 C64.7892884,24.580531 64.9126243,25.080826 64.9126243,25.080826 L64.9505738,25.080826 C64.9505738,25.080826 65.0833971,24.5710914 65.2257077,24.1746313 L67.2085692,18.2277286 C67.2749809,17.9917404 67.4457536,17.8879056 67.682938,17.8879056 L68.0908952,17.8879056 C68.3280796,17.8879056 68.4988523,17.9917404 68.565264,18.2277286 L70.5481255,24.1746313 C70.6809487,24.580531 70.8232594,25.080826 70.8232594,25.080826 L70.8612089,25.080826 C70.8612089,25.080826 70.96557,24.5899705 71.117368,24.1746313 L73.06228,18.2182891 C73.1286917,17.9634218 73.2994644,17.8690265 73.5366488,17.8690265 L73.8876817,17.8690265 C74.1912777,17.8690265 74.3146136,18.0578171 74.2292272,18.3410029 L71.6201989,25.9870206 C71.5537873,26.2418879 71.3830145,26.3362832 71.1458301,26.3362832 L70.6240245,26.3362832 C70.3678653,26.3362832 70.2160673,26.2324484 70.1496557,25.9870206 L68.1667942,20.3138643 C68.0339709,19.8890855 67.910635,19.4076696 67.910635,19.4076696 L67.8726855,19.4076696 C67.8726855,19.4076696 67.758837,19.8985251 67.5975516,20.3138643 L65.6336649,25.9870206 C65.5672533,26.2418879 65.4154552,26.3362832 65.1592961,26.3362832 L64.6374904,26.3362832 C64.3813313,26.3362832 64.2295333,26.2324484 64.1441469,25.9870206 L61.5351186,18.3410029 Z" id="Path" fill="#000000"></path>
                <path d="M75.5289977,15.9811209 C75.5289977,15.7073746 75.661821,15.5563422 75.9369549,15.5563422 L76.2595256,15.5563422 C76.5346595,15.5563422 76.6864575,15.7073746 76.6864575,15.9811209 L76.6864575,19.1528024 C76.6864575,19.539823 76.6200459,19.8418879 76.6200459,19.8418879 L76.6579954,19.8418879 C76.9805662,19.0489676 78.1285386,17.6707965 80.0639633,17.6707965 C82.179648,17.6707965 82.9196634,18.8696165 82.9196634,20.9557522 L82.9196634,25.920944 C82.9196634,26.1946903 82.7868401,26.3457227 82.5117062,26.3457227 L82.1891354,26.3457227 C81.9140015,26.3457227 81.7622035,26.1946903 81.7622035,25.920944 L81.7622035,21.2578171 C81.7622035,19.9268437 81.5629686,18.7469027 79.9026779,18.7469027 C78.1095639,18.7469027 76.6864575,20.2100295 76.6864575,22.2489676 L76.6864575,25.920944 C76.6864575,26.1946903 76.5346595,26.3457227 76.2595256,26.3457227 L75.9369549,26.3457227 C75.661821,26.3457227 75.5289977,26.1946903 75.5289977,25.920944 L75.5289977,15.9811209 Z" id="Path" fill="#000000"></path>
                <path d="M88.1851568,17.6707965 C90.4526396,17.6707965 91.7429227,19.3038348 91.7429227,21.7109145 C91.7429227,21.9469027 91.5531752,22.1356932 91.3065034,22.1356932 L85.1776588,22.1356932 C85.2250956,24.2879056 86.7146136,25.5150442 88.4792655,25.5150442 C89.5418516,25.5150442 90.3198164,25.0430678 90.7087988,24.7410029 C90.9459832,24.5899705 91.1357307,24.6277286 91.2685539,24.8448378 L91.4013772,25.0430678 C91.5152257,25.2412979 91.4867636,25.4489676 91.2875287,25.6 C90.8321347,25.939823 89.8169855,26.5439528 88.441316,26.5439528 C85.8986993,26.5439528 83.9917014,24.7221239 83.9917014,22.1168142 C83.9822494,19.3415929 85.8797246,17.6707965 88.1851568,17.6707965 Z M90.5664881,21.2766962 C90.5000765,19.4926254 89.4185157,18.6147493 88.1472073,18.6147493 C86.724101,18.6147493 85.4907422,19.5587021 85.2156083,21.2766962 L90.5664881,21.2766962 Z" id="Shape" fill="#000000"></path>
                <path d="M93.4127008,18.2938053 C93.4127008,18.020059 93.5644989,17.8690265 93.8396327,17.8690265 L94.1432288,17.8690265 C94.3993879,17.8690265 94.5511859,18.020059 94.5511859,18.2938053 L94.5511859,19.4359882 C94.5511859,19.8041298 94.4847743,20.1061947 94.4847743,20.1061947 L94.5227238,20.1061947 C94.9306809,18.879056 95.9078806,17.8123894 97.2645754,17.8123894 C97.5681714,17.8123894 97.7009946,17.9445428 97.7009946,18.2182891 L97.7009946,18.520354 C97.7009946,18.7941003 97.5112471,18.9451327 97.2266259,18.9451327 C95.4335119,18.9451327 94.5701607,20.9840708 94.5701607,22.7492625 L94.5701607,25.9115044 C94.5701607,26.1852507 94.4373374,26.3362832 94.1622035,26.3362832 L93.8301454,26.3362832 C93.5550115,26.3362832 93.4032135,26.1852507 93.4032135,25.9115044 L93.4032135,18.2938053 L93.4127008,18.2938053 Z" id="Path" fill="#000000"></path>
                <path d="M102.349809,17.6707965 C104.617292,17.6707965 105.907575,19.3038348 105.907575,21.7109145 C105.907575,21.9469027 105.717827,22.1356932 105.471155,22.1356932 L99.3328233,22.1356932 C99.3802601,24.2879056 100.869778,25.5150442 102.63443,25.5150442 C103.697016,25.5150442 104.474981,25.0430678 104.863963,24.7410029 C105.101148,24.5899705 105.290895,24.6277286 105.423718,24.8448378 L105.556542,25.0430678 C105.67039,25.2412979 105.641928,25.4489676 105.442693,25.6 C104.987299,25.939823 103.97215,26.5439528 102.59648,26.5439528 C100.053864,26.5439528 98.1469013,24.7221239 98.1469013,22.1168142 C98.1469013,19.3415929 100.044376,17.6707965 102.349809,17.6707965 Z M104.73114,21.2766962 C104.664728,19.4926254 103.583168,18.6147493 102.311859,18.6147493 C100.888753,18.6147493 99.655394,19.5587021 99.3802601,21.2766962 L104.73114,21.2766962 Z" id="Shape" fill="#000000"></path>
                <ellipse id="Oval" fill="#838383" cx="16.0431523" cy="15.9622419" rx="6.83091048" ry="6.79646018"></ellipse>
                <ellipse id="Oval" fill="#838383" cx="108.801224" cy="24.8353982" rx="1.51798011" ry="1.51032448"></ellipse>
                <path d="M16.0431523,31.9339233 C13.9559296,31.9339233 11.9161438,31.5374631 9.99020658,30.7539823 C8.32991584,30.0837758 7.53297628,28.1958702 8.20657995,26.5439528 C8.88018363,24.8920354 10.7776588,24.099115 12.4379495,24.7693215 C13.585922,25.2318584 14.7908187,25.4678466 16.0431523,25.4678466 C21.3181331,25.4678466 25.6064269,21.2011799 25.6064269,15.9528024 C25.6064269,10.7044248 21.3181331,6.45663717 16.0431523,6.45663717 C10.7681714,6.45663717 6.48936496,10.7233038 6.48936496,15.9622419 C6.48936496,17.1988201 6.72654935,18.4070796 7.19143076,19.5492625 C7.86503443,21.2011799 7.06809487,23.079646 5.40780413,23.759292 C3.74751339,24.4294985 1.85952563,23.6365782 1.17643458,21.9846608 C0.398469778,20.0684366 2.64321898e-12,18.0483776 2.64321898e-12,15.9622419 C2.64321898e-12,7.16460177 7.20091813,-3.69482223e-13 16.0431523,-3.69482223e-13 C24.8853864,-3.69482223e-13 32.0863139,7.16460177 32.0863139,15.9622419 C32.0957919,24.7693215 24.8948738,31.9339233 16.0431523,31.9339233 Z" id="Path" fill="#000000"></path>
            </g>
        </g>
    </g>
</svg>