<?xml version="1.0" encoding="UTF-8"?>
<svg width="50px" height="50px" viewBox="0 0 50 50" version="1.1" xmlns="http://www.w3.org/2000/svg" xmlns:xlink="http://www.w3.org/1999/xlink">
    <!-- Generator: Sketch 59.1 (86144) - https://sketch.com -->
    <title>logo3</title>
    <desc>Created with Sketch.</desc>
    <g id="Page-1" stroke="none" stroke-width="1" fill="none" fill-rule="evenodd" opacity="0.300000012">
        <g id="Home-&gt;-Desktop-Copy-30" transform="translate(-767.000000, -2625.000000)" fill-rule="nonzero">
            <g id="logo/savills" transform="translate(767.000000, 2625.000000)">
                <polygon id="Path" fill="#000000" points="50 0 0 0 0 50 50 50"></polygon>
                <path d="M7.288,46.8165 C4.731,46.8165 2.997,45.5065 2.997,43.074 L2.997,42.9805 L4.4,42.9805 L4.4,43.043 C4.4,44.633 5.5535,45.569 7.3,45.569 C8.2355,45.569 10.013,45.164 10.013,43.667 C10.013,40.7665 3.3395,42.8245 3.3395,38.677 C3.3395,36.587 5.2855,35.652 7.219,35.652 C9.4955,35.652 11.042,36.962 11.042,39.082 L11.042,39.176 L9.64,39.176 L9.64,39.0825 C9.64,37.71 8.6735,36.8995 7.114,36.8995 C6.0225,36.8995 4.744,37.3675 4.744,38.6145 C4.744,41.3275 11.4175,39.4255 11.4175,43.6045 C11.4175,45.8185 9.3475,46.8165 7.289,46.8165 M19.4,41.016 C19.1825,41.203 18.652,41.297 18.371,41.328 L17.3735,41.453 C15.502,41.671 13.756,42.045 13.756,43.667 C13.756,45.008 14.9095,45.569 15.9385,45.569 C16.999,45.569 17.9345,45.195 18.5895,44.54 C19.1195,43.9785 19.4005,43.23 19.4005,42.4195 L19.4005,41.016 L19.4,41.016 Z M19.65,46.5045 C19.4935,45.943 19.4935,44.8205 19.4935,44.8205 C18.9635,45.9745 17.7475,46.8165 15.8455,46.8165 C13.6625,46.8165 12.3525,45.6315 12.3525,43.698 C12.3525,40.891 14.878,40.61 17.3425,40.33 L17.8725,40.2675 C18.87,40.1425 19.4005,40.0175 19.4005,38.926 C19.4005,37.5225 18.5895,36.899 16.8435,36.899 C15.3775,36.899 14.1925,37.5225 14.1925,39.1135 L14.1925,39.207 L12.789,39.207 L12.789,39.1135 C12.789,36.65 14.754,35.652 16.999,35.652 C19.4315,35.652 20.829,36.6185 20.829,38.895 L20.829,44.6335 C20.829,45.1325 20.917,46.1935 21.042,46.5045 L19.6495,46.5045 L19.65,46.5045 Z M29.972,35.9635 L30.097,35.9635 L26.48,46.5045 L24.952,46.5045 L21.209,35.9635 L22.8365,35.9635 L25.7315,44.8955 L28.596,35.9635 L29.972,35.9635 Z M32.483,33.189 C32.4813514,32.6468695 32.0421312,32.2078728 31.5,32.2065 C30.976,32.2065 30.5175,32.632 30.5175,33.156 C30.518874,33.6980496 30.9579504,34.137126 31.5,34.1385 C32.0420496,34.137126 32.481126,33.6980496 32.4825,33.156 L32.4825,33.189 L32.483,33.189 Z M30.783,35.9635 L32.249,35.9635 L32.249,46.5045 L30.783,46.5045 L30.783,35.9635 Z M33.6835,31.9715 L35.149,31.9715 L35.149,46.505 L33.684,46.505 L33.6835,31.9715 Z M36.553,31.9715 L38.019,31.9715 L38.019,46.505 L36.553,46.505 L36.553,31.9715 Z M43.1515,46.8165 C40.563,46.8165 38.829,45.5065 38.829,43.074 L38.829,42.9805 L40.2325,42.9805 L40.2325,43.043 C40.2325,44.633 41.4175,45.569 43.1325,45.569 C44.068,45.569 45.8775,45.164 45.8775,43.667 C45.8775,40.7665 39.1725,42.8245 39.1725,38.677 C39.1725,36.587 41.1185,35.652 43.0515,35.652 C45.3595,35.652 46.9065,36.962 46.9065,39.082 L46.9065,39.176 L45.503,39.176 L45.503,39.0825 C45.503,37.71 44.5365,36.8995 42.977,36.8995 C41.8545,36.8995 40.5755,37.3675 40.5755,38.6145 C40.5755,41.3275 47.2805,39.4255 47.2805,43.6045 C47.2805,45.8185 45.2105,46.8165 43.152,46.8165" id="Shape" fill="#FFFFFF"></path>
            </g>
        </g>
    </g>
</svg>