<?xml version="1.0" encoding="UTF-8"?>
<svg width="690px" height="130px" viewBox="0 0 690 130" version="1.1" xmlns="http://www.w3.org/2000/svg" xmlns:xlink="http://www.w3.org/1999/xlink">
    <title>mybuilder-logo</title>
    <defs>
        <polygon id="path-1" points="0 0 598.659 0 598.659 125.59441 0 125.59441"></polygon>
    </defs>
    <g id="Page-1" stroke="none" stroke-width="1" fill="none" fill-rule="evenodd" opacity="0.300000012">
        <g id="mybuilder-logo" transform="translate(0.000000, 0.000000)">
            <path d="M218.166,80.061 L204.537,80.061 C203.74,80.061 203.545,79.866 203.545,79.069 L203.545,56.559 L218.166,56.559 C225.213,56.559 229.58,61.035 229.58,68.245 C229.58,75.644 225.318,80.061 218.166,80.061 Z M203.545,18.734 L216.299,18.734 C222.533,18.734 226.111,22.312 226.111,28.547 C226.111,34.754 222.361,38.762 216.564,38.762 L203.545,38.762 L203.545,18.734 Z M238.361,46.477 C243.338,42.684 247.783,35.949 247.783,26.41 C247.783,10.367 235.475,0 216.432,0 L175.4,0 C174.322,0 173.451,0.875 173.451,1.949 L173.451,16.785 C173.451,17.863 174.322,18.734 175.4,18.734 L182.135,18.734 L182.135,87.761 C182.135,95.187 185.748,98.8 193.174,98.8 L216.834,98.8 C238.229,98.8 251.525,87.499 251.525,69.315 C251.525,59.031 246.463,50.441 238.361,46.477 L238.361,46.477 Z" id="Fill-1" fill="#000000"></path>
            <path d="M357.842,0 L340.998,0 C339.924,0 339.049,0.875 339.049,1.949 L339.049,16.781 C339.049,17.859 339.924,18.734 340.998,18.734 L357.842,18.734 C358.916,18.734 359.791,17.859 359.791,16.781 L359.791,1.949 C359.791,0.875 358.916,0 357.842,0" id="Fill-2" fill="#000000"></path>
            <path d="M497.53,51.992 C499.741,45.687 504.78,42.125 511.667,42.125 C517.136,42.125 521.39,46.168 522.351,51.992 L497.53,51.992 Z M511.667,25.125 C490.14,25.125 475.101,40.605 475.101,62.762 C475.101,84.573 491.323,100.401 513.671,100.401 C531.245,100.401 541.991,89.991 542.44,89.55 C543.085,88.917 543.206,87.925 542.745,87.155 L535.659,75.394 C535.354,74.89 534.843,74.55 534.257,74.468 C533.679,74.394 533.089,74.569 532.659,74.972 C532.581,75.046 524.948,82.065 514.874,82.065 C507.315,82.065 498.835,78.23 496.702,67.651 L541.476,67.651 C542.479,67.651 543.319,66.887 543.413,65.883 C543.429,65.707 543.827,61.492 543.827,59.418 C543.827,38.91 530.901,25.125 511.667,25.125 L511.667,25.125 Z" id="Fill-3" fill="#000000"></path>
            <path d="M348.752,26.73 L332.713,26.73 C331.635,26.73 330.764,27.605 330.764,28.68 L330.764,43.117 C330.764,44.195 331.635,45.066 332.713,45.066 L338.057,45.066 C338.92,45.066 339.049,45.195 339.049,46.055 L339.049,96.847 C339.049,97.925 339.92,98.8 340.998,98.8 L357.838,98.8 C358.916,98.8 359.787,97.925 359.787,96.847 L359.787,36.793 C359.787,32.364 357.76,26.73 348.752,26.73" id="Fill-4" fill="#000000"></path>
            <path d="M387.377,0 L370.537,0 C369.459,0 368.588,0.875 368.588,1.953 L368.588,96.847 C368.588,97.925 369.459,98.8 370.537,98.8 L387.377,98.8 C388.455,98.8 389.326,97.925 389.326,96.847 L389.326,1.953 C389.326,0.875 388.455,0 387.377,0" id="Fill-5" fill="#000000"></path>
            <path d="M330.014,80.597 L324.666,80.597 C323.869,80.597 323.607,80.401 323.607,79.601 L323.607,28.68 C323.607,27.605 322.666,26.73 321.588,26.73 L304.752,26.73 C303.674,26.73 302.799,27.605 302.799,28.68 L302.799,59.957 C302.799,70.093 297.428,80.999 285.639,80.999 C279.361,80.999 277.029,77.757 277.029,69.046 L277.029,28.68 C277.029,27.605 276.154,26.73 275.076,26.73 L258.24,26.73 C257.162,26.73 256.287,27.605 256.287,28.68 L256.287,72.522 C256.287,91.023 264.857,100.401 281.76,100.401 C291.35,100.401 298.924,96.011 303.541,90.573 C304.115,95.753 308.072,98.8 314.373,98.8 L330.014,98.8 C331.088,98.8 331.963,97.925 331.963,96.847 L331.963,82.546 C331.963,81.468 331.088,80.597 330.014,80.597" id="Fill-6" fill="#000000"></path>
            <path d="M431.854,82.202 C422.812,82.202 416.968,74.573 416.968,62.762 C416.968,51.297 423.058,43.598 432.124,43.598 C442.409,43.598 447.015,53.152 447.015,62.629 C447.015,77.061 439.183,82.202 431.854,82.202 Z M473.69,80.597 L468.479,80.597 C467.683,80.597 467.487,80.401 467.487,79.604 L467.487,1.953 C467.487,0.875 466.616,0 465.538,0 L448.698,0 C447.62,0 446.749,0.875 446.749,1.953 L446.749,30.719 C443.124,27.973 437.772,25.125 428.784,25.125 C409.378,25.125 395.823,40.605 395.823,62.762 C395.823,85.276 408.8,100.401 428.116,100.401 C438.397,100.401 444.651,95.952 447.991,92.429 C448.718,95.308 451.046,98.8 458.054,98.8 L473.69,98.8 C474.769,98.8 475.64,97.925 475.64,96.847 L475.64,82.546 C475.64,81.468 474.769,80.597 473.69,80.597 L473.69,80.597 Z" id="Fill-7" fill="#000000"></path>
            <g id="Group-11" transform="translate(0.000000, 3.459161)">
                <mask id="mask-2" fill="white">
                    <use xlink:href="#path-1"></use>
                </mask>
                <g id="Clip-9"></g>
                <path d="M597.03,22.6298394 C596.956,22.6178394 595.249,22.3368394 593.632,22.3368394 C585.819,22.3368394 578.585,26.5318394 573.929,33.3328394 C573.882,28.6998394 571.901,23.2708394 562.894,23.2708394 L547.39,23.2708394 C546.312,23.2708394 545.44,24.1448394 545.44,25.2198394 L545.44,39.6568394 C545.44,40.7348394 546.312,41.6058394 547.39,41.6058394 L552.733,41.6058394 C553.597,41.6058394 553.726,41.7348394 553.726,42.5948394 L553.726,93.3878394 C553.726,94.4658394 554.597,95.3408394 555.675,95.3408394 L572.515,95.3408394 C573.593,95.3408394 574.464,94.4658394 574.464,93.3878394 L574.464,65.7488394 C574.464,50.1578394 582.521,42.9418394 592.565,42.9418394 C594.776,42.9418394 596.394,43.1848394 596.413,43.1888394 C596.968,43.2698394 597.546,43.1098394 597.979,42.7388394 C598.409,42.3678394 598.659,41.8288394 598.659,41.2588394 L598.659,24.5518394 C598.659,23.6028394 597.968,22.7858394 597.03,22.6298394" id="Fill-8" fill="#000000" mask="url(#mask-2)"></path>
                <path d="M146.424,79.4018394 C145.362,85.4268394 144.438,90.3878394 142.23,96.3998394 C141.121,99.4018394 139.196,102.352839 137.434,105.135839 C135.662,107.899839 133.478,110.534839 130.608,112.595839 C128.991,113.763839 127.99,114.305839 127.184,114.774839 C126.362,115.228839 125.71,115.603839 124.442,116.039839 C124.086,116.045839 123.735,116.041839 123.394,116.023839 C121.932,116.436839 120.369,116.616839 118.712,116.619839 C117.24,116.584839 115.85,116.386839 114.648,115.971839 C113.448,115.559839 112.472,114.921839 111.794,114.141839 C111.11,113.354839 111.218,112.535839 110.924,111.548839 C110.779,111.041839 110.665,110.561839 110.567,109.976839 C110.435,109.167839 110.349,108.296839 110.248,107.429839 C110.323,106.712839 110.203,106.317839 110.36,106.150839 C110.517,105.984839 110.082,105.588839 110.2,105.420839 C110.32,105.252839 110.399,105.251839 110.516,104.890839 C110.632,104.525839 111.027,103.828839 111.025,103.715839 C111.026,103.603839 111.062,102.950839 111.062,102.950839 C110.652,102.856839 111.188,102.008839 111.341,101.284839 C111.448,101.353839 112.112,100.027839 112.591,99.4428394 L112.649,99.4788394 L113.063,98.6018394 L113.696,97.7818394 C114.03,97.2048394 114.567,96.0618394 115.273,95.4068394 C116.45,94.6358394 116.935,93.3638394 117.266,92.9878394 C117.597,92.6118394 118.511,91.4768394 119.011,90.7908394 C119.51,90.1048394 120.084,89.7498394 120.501,89.1388394 C120.941,88.5778394 121.397,88.4558394 121.619,87.9938394 C121.789,87.8498394 122.187,87.7538394 122.217,87.8788394 C122.755,87.4558394 123.377,87.0298394 123.362,86.9828394 C123.346,86.9378394 123.609,86.9398394 124.16,86.5148394 C124.71,86.0888394 124.415,86.3818394 124.862,85.9518394 C125.309,85.5238394 125.949,85.4608394 126.587,84.8978394 C127.226,84.3358394 127.833,83.9338394 128.31,83.6428394 C128.788,83.3488394 129.364,82.7668394 129.684,82.6098394 C130.003,82.4508394 131.319,81.7168394 131.474,81.6488394 C131.624,81.5788394 131.599,81.3988394 131.885,81.2418394 C132.174,81.0878394 132.333,81.2258394 132.333,81.2258394 C132.333,81.2258394 133.223,80.9548394 133.325,80.8508394 C133.426,80.7408394 134.187,80.1738394 134.285,80.1028394 C134.378,80.0388394 135.144,79.8428394 135.656,79.5068394 C136.166,79.1698394 136.263,78.9418394 136.263,78.9418394 C136.263,78.9418394 136.71,78.8898394 137.157,78.7238394 C137.606,78.5588394 138.627,78.2178394 138.821,78.1048394 C139.013,77.9918394 140.39,77.8788394 140.473,77.8438394 C140.554,77.8078394 140.665,77.4588394 140.665,77.4588394 C140.665,77.4588394 140.792,77.4118394 141.176,77.2348394 C141.559,77.0568394 140.907,77.2168394 141.134,77.0808394 C141.356,76.9488394 142.309,77.0578394 142.739,76.6828394 C143.172,76.3048394 142.867,76.4118394 143.315,76.1188394 C143.762,75.8258394 144.864,76.0378394 145.49,75.7658394 C145.83,75.6198394 146.127,75.5618394 146.396,75.5118394 L146.563,75.4798394 C146.755,75.5018394 146.945,75.5418394 147.151,75.5078394 C146.971,76.7508394 146.75,78.0288394 146.424,79.4018394 Z M172.075,71.0038394 C172.32,70.6178394 171.952,70.8968394 172.015,70.4038394 C172.068,69.9168394 171.937,69.3538394 171.751,68.8498394 C172.21,68.8378394 171.998,68.0668394 171.514,67.3438394 C171.045,66.6048394 170.368,65.9098394 170.29,65.4008394 L169.63,64.9398394 C169.411,64.7888394 169.049,64.5338394 168.739,64.3818394 C168.406,64.1968394 168.047,64.1938394 167.691,64.1588394 L166.868,64.0948394 C165.875,64.0138394 164.837,63.9278394 163.729,63.9868394 C164.371,64.4538394 162.001,63.9648394 160.912,63.9878394 C161.159,58.8978394 161.577,50.0948394 161.549,48.8498394 C161.496,46.4728394 161.867,40.4048394 161.922,37.3088394 C161.98,34.2068394 162.246,34.7878394 161.98,34.2068394 C161.715,33.6298394 161.799,31.4998394 161.799,31.4998394 C161.799,31.4998394 161.768,28.9938394 161.639,25.4348394 C161.902,25.5968394 161.666,25.1378394 161.756,24.9268394 L161.834,21.6738394 C161.682,20.8678394 161.75,21.3868394 161.637,19.1938394 L161.85,18.5148394 C161.785,16.2628394 161.545,13.9728394 161.01,11.5138394 C160.734,10.2858394 160.387,9.01483941 159.813,7.69983941 C159.234,6.41683941 158.414,4.94683941 156.773,3.96683941 C156.693,3.97283941 156.775,4.07383941 156.908,4.21983941 L156.383,4.03783941 L155.377,3.75983941 L154.621,3.67983941 L154.297,3.72983941 L153.336,3.41983941 C152.012,3.38783941 150.488,3.78383941 149.482,4.50583941 C148.463,5.19783941 147.82,5.93683941 147.451,6.25383941 C147.699,6.17283941 147.514,6.80683941 146.744,7.84783941 C144.17,11.3328394 145.688,8.93883941 144.186,10.9508394 C143.959,11.4348394 143.43,12.1698394 142.943,12.8868394 C142.473,13.6078394 142.145,14.2508394 142.279,14.3748394 C141.619,15.4778394 141.375,15.6088394 141.047,15.9968394 C140.223,17.6408394 137.871,23.2168394 137.715,24.1848394 C136.482,27.3058394 135.129,30.4748394 133.709,33.6118394 C132.141,37.0858394 130.539,40.4878394 128.703,43.6008394 L128.605,43.5268394 C127.954,44.6848394 124.666,49.0098394 121.896,52.5338394 C121.405,51.8478394 121.286,51.2258394 121.313,51.0038394 C120.686,49.8368394 120.346,49.0188394 120.053,48.2018394 C120.102,48.2208394 120.104,48.0058394 120.002,47.2998394 C119.908,46.7328394 120.189,47.3138394 119.654,46.0558394 C119.16,43.8848394 119.008,42.5308394 118.795,41.1438394 C118.596,39.7558394 118.357,38.3288394 117.957,35.9538394 C118.363,37.4018394 118.074,33.5868394 117.896,31.2718394 C117.916,30.3248394 117.979,29.4608394 117.947,28.2588394 C118.006,23.6838394 117.467,19.5728394 117.074,15.7438394 C116.875,13.8328394 116.699,11.9868394 116.639,10.2028394 C116.619,8.49383941 116.574,6.67983941 116.244,4.86583941 C116.238,4.85983941 116.229,4.83983941 116.215,4.79383941 C116.221,4.77883941 116.229,4.78783941 116.234,4.80383941 C116.225,4.75783941 116.223,4.71083941 116.213,4.66283941 C116.172,4.57683941 116.139,4.50383941 116.109,4.44083941 C116.107,4.43283941 116.105,4.42683941 116.102,4.41683941 C115.805,3.34183941 115.006,2.24183941 114.227,1.30683941 C113.84,0.818839415 113.189,0.358839415 112.582,0.156839415 C111.965,-0.0671605852 111.287,0.00783941483 110.916,0.0298394148 C110.064,0.109839415 109.49,0.313839415 109.135,0.452839415 C107.596,1.05483941 106.715,1.73583941 106.018,2.29983941 C105.328,2.87483941 104.867,3.38583941 104.406,3.90083941 C103.955,4.44383941 103.506,4.90183941 102.902,5.71683941 C102.344,6.50983941 101.805,7.52483941 101.271,8.95283941 C101.436,8.65983941 100.645,10.5018394 100.418,11.2528394 C100.395,11.3048394 100.365,11.3358394 100.344,11.3938394 L100.371,11.9648394 C100.08,12.9668394 99.76,14.9038394 99.514,16.3768394 C99.269,17.8468394 99.223,18.8528394 99.234,18.1978394 C98.91,20.1708394 98.777,20.4018394 98.937,19.6328394 C98.1,23.2448394 97.391,25.9678394 96.281,30.1448394 C96.256,30.2318394 96.23,30.3328394 96.197,30.4568394 L95.633,33.5668394 C95.434,34.3068394 95.363,34.6548394 95.326,34.9318394 C95.242,35.4808394 95.254,34.7618394 94.357,37.2658394 C93.049,39.9868394 94.172,36.8958394 92.309,41.9038394 C92.24,42.0478394 92.178,42.2188394 92.135,42.3518394 C90.508,46.6758394 88.559,49.6688394 87.238,51.9748394 C86.602,53.3578394 87.094,52.1518394 86.471,53.2568394 L86.611,53.5448394 C85.848,54.8338394 86.029,54.5088394 85.94,54.4238394 C85.781,55.3558394 85.09,56.0508394 84.772,56.5678394 L84.76,56.3628394 L84.728,55.5498394 L84.684,54.3318394 C84.641,53.6838394 84.576,53.3178394 84.498,52.9438394 C84.35,52.1958394 84.143,51.4118394 84.195,48.2028394 L84.117,44.5128394 C84.404,40.4158394 84.139,40.0218394 84.236,37.8688394 C84.057,37.0088394 83.986,37.4038394 84.043,34.5248394 L84.416,30.7868394 L84.709,27.7658394 C84.801,26.7598394 84.855,25.5528394 84.685,24.3898394 C84.648,23.2968394 84.717,23.2348394 84.807,23.2128394 C84.889,23.1848394 85.004,23.2008394 84.85,22.2058394 C84.084,19.4948394 83.291,18.0308394 82.215,16.6138394 C81.658,15.9148394 80.959,15.2358394 79.949,14.6348394 C79.135,14.1568394 78.086,13.7588394 76.855,13.5728394 C76.609,13.5138394 76.346,13.4698394 76.041,13.4688394 C76.021,13.4688394 75.996,13.4698394 75.975,13.4718394 C75.969,13.4698394 75.961,13.4688394 75.955,13.4688394 C75.959,13.4688394 75.961,13.4708394 75.965,13.4728394 C74.869,13.4808394 72.459,13.7438394 71.363,13.9768394 C69.537,14.3498394 68.002,15.4058394 67.023,16.6728394 C66.031,17.9458394 65.447,19.3578394 64.98,20.8088394 C64.508,22.2638394 64.215,23.7978394 63.795,25.3578394 C63.373,26.9388394 63.728,26.2608394 63.092,28.1218394 C63.055,29.2278394 61.672,32.7728394 60.986,35.2388394 C60.836,34.9298394 60.26,36.4158394 59.783,37.3998394 C59.992,37.3348394 57.975,42.8818394 58.207,43.7318394 L56.832,46.9778394 C56.42,48.1978394 56.111,49.2188394 55.867,50.1198394 L55.697,50.7738394 C55.643,50.9868394 55.586,51.2128394 55.578,51.2918394 L55.465,51.9778394 C55.338,52.8538394 55.176,53.9928394 54.82,55.4978394 L54.687,56.0368394 L54.65,56.1758394 C54.646,56.1928394 54.641,56.2368394 54.633,56.2308394 L54.6,56.1748394 L54.471,55.9358394 C54.297,55.6048394 54.15,53.6248394 53.947,53.1908394 C53.836,52.7518394 53.666,52.2508394 53.535,51.4418394 C53.504,51.2178394 53.477,51.0948394 53.447,50.7558394 L53.371,49.6438394 C53.338,48.9318394 53.336,48.2898394 53.385,47.8158394 C53.268,46.9318394 53.014,46.6218394 53.027,44.2818394 C53.059,44.1268394 53.094,44.1728394 53.119,44.2308394 C53.019,43.7418394 52.925,42.2948394 52.728,42.6438394 C53.453,36.2718394 53.01,24.7218394 53.063,19.0168394 C52.779,16.6898394 52.336,14.0928394 51.346,11.5928394 C50.846,10.3498394 50.191,9.12683941 49.299,8.07283941 C48.416,7.01683941 47.572,6.22783941 46.408,5.75783941 C45.17,5.15283941 44.195,5.02883941 43.521,4.96883941 C42.721,4.92083941 42.215,4.98783941 41.678,5.06283941 C41.191,5.14283941 38.736,5.50883941 37.684,5.71283941 L37.414,5.76783941 C37.094,5.69883941 36.416,5.89983941 35.641,6.42783941 C34.859,6.95083941 34.025,7.80883941 33.348,8.86183941 C32.662,9.91083941 32.121,11.1368394 31.656,12.3358394 L31.004,14.0998394 C30.803,14.6428394 30.881,14.1868394 30.643,14.6588394 C29.32,17.5718394 27.986,22.1198394 25.82,26.9768394 C25.82,26.9768394 25.859,26.7108394 25.723,26.8988394 C24.645,30.4068394 21.988,36.7778394 20.117,41.5558394 C20.203,41.6798394 20.041,41.9438394 19.31,43.7768394 L18.209,46.6468394 L18.088,46.7898394 L17.959,46.9188394 C17.984,46.7498394 17.834,45.8148394 17.861,45.7398394 L17.662,42.4488394 L17.732,41.8528394 L17.818,41.1878394 C17.889,40.7938394 17.965,40.5098394 18.049,40.4078394 C18.023,38.9848394 18.178,37.9768394 18.289,36.8308394 L18.455,37.1508394 C18.643,33.8058394 18.695,32.0908394 18.752,30.3138394 C18.818,28.5388394 18.674,27.4098394 19.156,23.8388394 C19.213,19.8348394 19.842,20.6178394 20.072,16.6608394 L20.715,15.5918394 L21.01,13.0158394 C21.172,11.9838394 21.219,10.5368394 20.697,9.17683941 C19.711,6.37483941 17.746,4.21583941 15.094,3.65783941 C14.814,3.57483941 14.525,3.49483941 14.223,3.44183941 C13.92,3.37983941 13.541,3.33783941 13.213,3.40383941 C12.498,3.53683941 12.064,3.89383941 11.582,4.10483941 C11.102,4.33683941 10.578,4.50983941 10.01,4.61083941 C9.717,4.66583941 9.434,4.69483941 9.125,4.71883941 C9.037,4.72483941 8.98,4.71983941 8.867,4.73883941 C8.746,4.74983941 8.635,4.77783941 8.533,4.82383941 C8.328,4.90883941 8.184,5.03883941 8.053,5.16983941 C7.58,5.71183941 7.385,6.33183941 7.186,6.95683941 C7.039,6.65383941 6.666,7.32983941 6.365,8.59583941 C6.057,9.85983941 5.826,11.6948394 5.656,13.6718394 C5.312,17.6208394 5.076,22.1618394 4.625,23.9868394 C4.484,33.1808394 3.578,42.1128394 3.018,52.7568394 C3.33,54.1388394 2.857,55.8638394 3.619,55.3178394 C3.518,57.7918394 3.439,58.7328394 3.379,58.9528394 L3.445,58.4348394 L3.373,58.9678394 L3.377,58.9668394 C3.07,61.4428394 2.754,63.9068394 2.395,66.3698394 C2.117,67.6178394 1.752,66.4128394 1.27,69.9618394 C1.426,70.4578394 1.484,71.9028394 1.143,74.9718394 L1.135,76.8818394 C0.918,84.5068394 0.756,79.3388394 0.602,82.0418394 L0.457,82.3698394 C0.391,84.3538394 0.098,87.9288394 0.002,91.6358394 C-9.93149079e-05,91.8878394 -0.004,92.0808394 0.01,92.4208394 C0.027,92.8508394 0.135,93.2018394 0.227,93.4828394 C0.422,94.0648394 0.652,94.5418394 0.896,95.0048394 C1.383,95.9208394 1.924,96.7308394 2.475,97.4778394 C3.584,98.9518394 4.018,99.7218394 5.143,100.389839 C5.48,100.699839 5.42,100.811839 5.582,100.939839 C5.703,101.021839 6.088,101.299839 6.051,101.275839 C6.252,101.408839 6.469,101.537839 6.729,101.662839 C7.211,101.910839 7.852,102.045839 8.318,102.049839 C9.103,102.088839 9.928,102.018839 10.705,101.791839 C12.291,101.355839 13.52,100.322839 14.369,99.2258394 C16.059,96.9868394 16.816,94.4908394 17.549,92.1138394 C18.865,87.3818394 20.207,82.9828394 21.519,79.6438394 L21.709,79.2058394 C22.203,77.5578394 22.1,77.4088394 22.967,75.4358394 C23,75.5688394 23.119,75.2648394 23.385,74.5108394 C23.617,73.6278394 23.914,72.8818394 24.76,70.7648394 C27.918,62.3458394 28.836,57.5388394 31.19,50.3578394 C31.682,50.5688394 34.162,43.9328394 35.371,40.6068394 L35.402,40.7508394 C36.111,38.6948394 36.75,36.7548394 37.336,34.8898394 C37.523,34.2998394 37.535,34.2508394 37.588,34.0438394 C37.641,33.8588394 37.701,33.6458394 37.711,33.5778394 L37.873,32.8498394 L37.906,32.6988394 C37.918,32.6428394 37.928,32.5818394 37.955,32.6358394 L38.117,32.7858394 C38.223,32.8938394 38.375,33.0048394 38.447,33.1688394 C38.527,33.3298394 38.584,33.5148394 38.637,33.7188394 L38.709,34.0468394 C38.717,34.0628394 38.74,34.2438394 38.762,34.4068394 L38.82,34.8898394 C39.111,37.4828394 39.264,40.1918394 39.387,43.1018394 C39.17,46.1598394 39.144,51.3668394 39.184,57.0708394 C39.209,59.9218394 39.254,62.8968394 39.359,65.7998394 C39.418,67.2668394 39.463,68.6548394 39.6,70.1258394 C39.75,71.5828394 40.027,72.9988394 40.424,74.3308394 C40.793,75.0298394 40.797,74.5478394 41.68,76.3168394 C42.164,77.5238394 43.217,79.0728394 44.215,80.1668394 C45.195,81.2688394 44.588,80.6158394 45.016,81.3018394 C44.871,81.1728394 44.977,81.2758394 45.037,81.3348394 C45.348,81.8038394 45.887,82.4168394 46.646,83.0538394 C47.031,83.3818394 47.477,83.7098394 47.973,84.0298394 C48.221,84.1898394 48.482,84.3468394 48.76,84.4988394 C49.152,84.7158394 49.631,84.9368394 50.086,85.1008394 C50.881,85.2178394 51.777,84.9328394 52.412,84.5888394 C52.937,84.3168394 53.375,84.0068394 53.787,83.6788394 C54.603,83.0258394 55.268,82.3118394 55.855,81.6278394 L55.748,80.7448394 C57.471,78.9208394 58.996,76.5668394 60.215,73.8328394 C61.389,71.1158394 62.225,68.2058394 62.986,65.4288394 C64.465,59.8668394 65.684,54.8368394 66.852,52.5048394 C67.357,50.2618394 68.242,47.5848394 68.947,45.4618394 L69.217,45.7118394 C70.014,43.8728394 69.955,44.1278394 70.16,43.7718394 L70.631,43.0968394 C70.668,43.0548394 70.719,42.9548394 70.742,42.9548394 L70.742,43.1888394 L70.758,43.6698394 L70.785,44.2108394 L70.801,44.5218394 L70.826,45.4458394 C70.85,45.4828394 70.875,45.6188394 70.834,45.6948394 C70.867,46.1728394 70.703,46.5118394 70.758,46.9248394 C70.859,47.7488394 70.994,48.4668394 71.127,49.1738394 C71.393,50.5868394 71.664,51.9558394 71.695,54.0578394 L71.205,55.2748394 C71.225,57.2608394 71.217,59.2468394 71.184,61.2308394 C71.176,61.6948394 71.162,62.2888394 71.221,62.8598394 C71.271,63.4308394 71.375,63.9928394 71.512,64.5498394 C71.787,65.6548394 72.201,66.7258394 72.717,67.7468394 C73.777,69.7858394 75.105,71.6668394 77.098,73.2648394 C77.357,73.4598394 77.633,73.6548394 77.949,73.8388394 C78.33,74.0618394 78.77,74.2688394 79.211,74.3488394 C80.213,74.4558394 80.779,74.3268394 81.41,74.1728394 C82.629,73.8348394 82.115,74.3658394 82.957,73.7298394 C82.877,73.8428394 84.068,73.1648394 83.219,73.5968394 C84.185,73.1198394 85.336,72.3538394 86.424,71.3918394 C87.615,70.3468394 88.752,69.1058394 89.693,67.9358394 C91.437,65.7568394 92.551,63.8618394 92.168,63.9108394 C92.535,63.6548394 93.564,62.1198394 94.658,60.1468394 C95.894,57.9338394 96.994,55.6258394 97.852,53.7078394 L98.059,53.9998394 C99.269,50.6298394 99.228,50.4858394 101.184,45.9448394 C101.455,45.4028394 101.602,45.2378394 101.615,45.3358394 L101.682,45.3848394 C101.766,45.2058394 101.83,45.0508394 101.885,44.9038394 L101.959,44.6918394 L101.992,44.5868394 C102.008,44.5618394 102.053,44.5878394 102.082,44.5868394 L102.296,44.3098394 L102.687,44.0398394 L102.822,45.5348394 L102.805,45.4608394 L102.836,46.6128394 L102.891,47.6428394 C102.932,48.2338394 102.977,48.6548394 103.033,49.0208394 C103.145,49.7478394 103.273,50.2428394 103.521,51.3898394 C103.736,52.7008394 104.006,54.6778394 104.359,56.4128394 C104.691,58.1478394 105.115,59.6438394 105.096,59.9848394 C105.498,60.4998394 105.674,61.9298394 107.369,64.0968394 C108.451,65.7258394 109.83,66.9718394 111.264,67.7688394 C111.793,68.0648394 112.322,68.2838394 112.846,68.4718394 C113.176,68.6568394 113.596,68.8698394 114.018,69.0648394 C114.369,69.4328394 114.451,69.6318394 114.889,69.9208394 C115.994,70.1438394 116.4,70.0188394 117.77,69.9248394 C119.123,69.8268394 120.506,69.5088394 121.793,69.0278394 C124.381,68.0768394 126.6,66.5498394 128.387,65.2718394 C128.574,65.1648394 128.764,65.0618394 128.916,64.9968394 L129.486,64.5968394 C130.313,63.9948394 129.328,64.2488394 129.918,63.6438394 C130.977,62.7428394 131.623,62.1458394 132.529,61.1878394 C132.797,61.0838394 133.32,59.3428394 134.262,58.2128394 C135.209,57.0858394 136.205,55.7398394 136.85,54.8608394 C136.697,54.8418394 136.875,54.4698394 137.029,54.1538394 C139.156,51.9688394 140.273,44.2088394 140.869,43.6468394 C142.402,40.7228394 144.1,37.2238394 145.436,33.8938394 C146.104,32.2338394 146.684,30.6138394 147.141,29.1528394 L147.457,28.0868394 C147.543,27.7628394 147.662,27.3488394 147.688,27.1808394 L147.805,26.5308394 L148.693,24.9228394 C148.688,24.8708394 148.713,24.8648394 148.744,24.8648394 L148.918,31.0918394 C148.957,32.6798394 148.998,34.1088394 149.08,35.0588394 C148.998,35.4628394 148.926,36.4548394 148.914,38.4848394 L148.748,39.0818394 C148.879,41.6418394 148.918,48.9948394 148.805,49.5958394 C148.756,49.8538394 149.11,53.6698394 148.618,58.6588394 C148.413,60.7458394 148.337,62.9748394 148.181,65.0598394 L148.159,65.0618394 C148.156,65.0868394 148.163,65.1108394 148.175,65.1368394 C148.167,65.2378394 148.16,65.3398394 148.151,65.4408394 L147.287,65.6898394 C146.112,66.0828394 144.953,66.4008394 143.707,66.8958394 C143.707,66.8958394 143.356,67.0878394 142.972,67.2658394 C142.59,67.4468394 142.653,67.3088394 142.653,67.3088394 C142.653,67.3088394 141.952,67.6478394 141.408,67.8418394 C140.863,68.0388394 140.992,68.1798394 140.768,68.2928394 C140.546,68.4028394 140.802,68.6108394 140.802,68.6108394 L139.939,68.8308394 C139.939,68.8308394 139.472,68.9138394 139.333,68.9598394 C139.192,69.0058394 138.834,69.1798394 138.5,69.2238394 C138.167,69.2688394 138.188,69.4978394 137.477,69.7818394 C136.767,70.0688394 136.614,70.2068394 135.848,70.5598394 C135.082,70.9188394 135.402,70.7358394 134.825,70.9618394 C134.252,71.1878394 134.635,71.1178394 134.284,71.4348394 C133.935,71.7458394 134.285,71.2758394 133.996,71.3648394 C133.707,71.4518394 133.249,71.6708394 133.007,71.7388394 C132.761,71.8098394 131.824,72.4108394 131.824,72.4108394 L131.09,72.7418394 C131.09,72.7418394 130.93,72.6308394 130.866,72.7198394 C130.802,72.8098394 130.675,73.3098394 130.549,73.4668394 C130.419,73.6248394 130.198,73.8968394 130.198,73.8968394 C130.198,73.8968394 129.607,73.8278394 129.559,73.9128394 C129.507,73.9928394 128.888,74.2048394 128.473,74.4258394 C128.053,74.6448394 127.447,74.9598394 127.447,74.9598394 C127.447,74.9598394 127.383,74.8258394 127.126,74.9098394 C126.874,75.0008394 126.776,75.2268394 126.555,75.3598394 C126.33,75.4938394 126.331,75.4738394 125.723,75.9228394 C125.116,76.3708394 124.798,76.4358394 124.798,76.4358394 C124.334,76.5788394 123.705,77.4498394 123.127,77.8068394 C122.549,78.1628394 121.878,78.9348394 121.399,79.1928394 C120.922,79.4518394 119.763,80.1028394 119.263,80.7878394 C118.763,81.4748394 118.025,81.7018394 117.047,82.2948394 C116.069,82.8868394 115.236,83.7248394 113.676,84.9148394 C112.115,86.1048394 112.443,85.8588394 110.88,87.3578394 C110.728,87.5028394 109.763,88.4378394 109.477,89.0768394 C109.189,89.7098394 109.225,89.0428394 108.967,89.5928394 C108.708,90.1408394 108.134,90.3128394 107.479,91.0288394 L107.473,90.8668394 C105.455,92.1468394 106.022,93.7768394 103.989,95.2338394 C104.05,95.1948394 104.097,95.1748394 104.147,95.1758394 C102.146,97.1208394 101.267,99.6248394 99.492,101.643839 C99.032,102.238839 99.255,102.380839 99.256,102.814839 L98.855,102.863839 L98.91,103.625839 C98.564,104.436839 98.114,105.678839 97.783,106.053839 C97.452,106.429839 97.19,107.299839 96.854,107.917839 C96.518,108.536839 96.516,108.617839 96.031,110.101839 C96.019,110.542839 96.318,111.320839 96.482,111.335839 L96.506,111.480839 C96.531,111.655839 96.556,111.853839 96.564,112.075839 L96.577,112.425839 L96.568,112.750839 L96.389,112.826839 C96.648,114.734839 97.122,116.649839 98.073,118.466839 C98.551,119.538839 98.863,120.019839 98.945,120.270839 C99.048,120.514839 98.954,120.524839 98.909,120.591839 C98.863,120.656839 98.85,120.785839 99.193,121.266839 C99.561,121.720839 100.211,122.626839 102.199,123.742839 C102.955,124.133839 103.96,124.521839 105.026,124.782839 C106.092,125.049839 108.368,125.504839 109.318,125.562839 C111.229,125.658839 112.478,125.508839 111.835,125.470839 C111.563,125.468839 111.265,125.461839 110.965,125.452839 C111.018,125.400839 111.092,125.310839 111.131,125.289839 C111.291,125.295839 111.44,125.309839 111.603,125.310839 C120.301,125.402839 129.207,122.467839 136.688,117.186839 C138.532,115.887839 140.286,114.444839 141.953,112.880839 C141.902,112.960839 141.86,113.040839 141.812,113.121839 C141.989,112.923839 142.154,112.722839 142.327,112.525839 C143.254,111.641839 143.466,111.664839 144.33,110.701839 C144.325,110.753839 144.439,110.621839 144.505,110.536839 C146.338,108.792839 145.861,108.800839 147.493,107.166839 C147.687,106.982839 147.637,107.080839 147.506,107.270839 C148.011,106.571839 148.274,106.593839 148.736,105.880839 C151.56,102.385839 152.272,99.8618394 153.4,98.5268394 L153.247,98.8658394 C154.638,96.1008394 154.557,95.9298394 154.439,95.9458394 C154.369,95.9468394 154.278,95.9958394 154.304,95.7628394 C154.724,94.8898394 155.128,94.0138394 155.514,93.1168394 C155.968,92.5318394 156.425,91.9498394 156.862,91.3558394 L156.733,90.7288394 C156.973,90.1458394 157.415,88.9918394 157.474,89.2338394 C157.991,86.9988394 157.413,88.2678394 157.413,88.2678394 C158.055,86.8808394 158.105,85.8238394 158.53,84.1288394 C158.53,84.1288394 158.944,83.0508394 158.943,82.7408394 C158.943,82.3798394 158.982,81.7688394 159.099,81.4028394 C159.121,80.8788394 159.158,80.0178394 159.253,79.3768394 C159.705,78.9108394 159.906,75.7798394 160.06,73.8388394 C160.077,73.8168394 160.102,73.7458394 160.134,73.6108394 C160.133,73.6058394 160.133,73.5958394 160.131,73.5888394 C160.632,73.5398394 161.077,73.4308394 161.348,73.1908394 C161.389,73.1558394 161.439,73.1248394 161.489,73.0938394 L163.378,73.2148394 C163.897,73.5588394 164.511,73.2708394 164.994,73.2848394 C166.37,73.0788394 166.317,72.6498394 167.779,72.4848394 L167.601,72.3808394 C168.318,71.8558394 168.311,72.5268394 169.062,72.0968394 L169.425,72.4668394 C169.585,72.4048394 169.626,72.5708394 169.99,72.5208394 C170.24,72.4528394 170.591,72.3508394 170.991,72.1448394 C170.999,72.1388394 171.009,72.1388394 171.017,72.1328394 C171.021,72.1308394 171.022,72.1258394 171.026,72.1238394 C171.109,72.0808394 171.188,72.0398394 171.276,71.9848394 C171.751,71.6898394 172.022,71.2958394 172.061,71.0718394 C172.071,71.1538394 172.329,70.9068394 172.075,71.0038394 L172.075,71.0038394 Z" id="Fill-10" fill="#000000" mask="url(#mask-2)"></path>
            </g>
            <path d="M588.479,91.14 L583.639,91.14 C582.873,91.14 582.254,91.761 582.254,92.526 L582.254,97.409 C582.254,98.171 582.873,98.792 583.639,98.792 L588.479,98.792 C589.24,98.792 589.859,98.171 589.859,97.409 L589.859,92.526 C589.859,91.761 589.24,91.14 588.479,91.14" id="Fill-12" fill="#000000"></path>
            <path d="M614.992,90.101 C614.779,89.714 614.391,89.448 613.945,89.397 C613.504,89.343 613.063,89.507 612.76,89.839 C612.734,89.866 610.189,92.608 606.387,92.608 C602.27,92.608 599.281,89.562 599.281,85.366 C599.281,81.222 602.211,78.21 606.242,78.21 C609.633,78.21 611.852,80.503 611.867,80.523 C612.156,80.831 612.563,80.991 612.988,80.956 C613.41,80.925 613.793,80.706 614.027,80.354 L616.207,77.128 C616.559,76.612 616.518,75.929 616.113,75.456 C615.977,75.292 612.637,71.46 606.051,71.46 C597.938,71.46 591.82,77.46 591.82,85.409 C591.82,93.495 597.803,99.362 606.051,99.362 C612.865,99.362 616.523,95.218 616.68,95.042 C617.059,94.604 617.125,93.98 616.844,93.468 L614.992,90.101" id="Fill-13" fill="#000000"></path>
            <path d="M632.605,92.608 C628.695,92.608 625.742,89.495 625.742,85.366 C625.742,81.288 628.695,78.21 632.605,78.21 C636.523,78.21 639.477,81.288 639.477,85.366 C639.477,89.495 636.523,92.608 632.605,92.608 Z M632.605,71.46 C624.57,71.46 618.277,77.569 618.277,85.366 C618.277,93.214 624.57,99.362 632.605,99.362 C640.641,99.362 646.938,93.214 646.938,85.366 C646.938,77.569 640.641,71.46 632.605,71.46 L632.605,71.46 Z" id="Fill-14" fill="#000000"></path>
            <path d="M679.727,71.46 C676.598,71.46 673.5,72.98 671.461,75.351 C670.029,72.796 667.455,71.46 663.887,71.46 C661.219,71.46 658.801,72.612 657.02,74.194 L657.02,73.413 C657.02,72.648 656.398,72.03 655.633,72.03 L651.182,72.03 C650.416,72.03 649.793,72.648 649.793,73.413 L649.793,97.409 C649.793,98.171 650.416,98.792 651.182,98.792 L655.777,98.792 C656.543,98.792 657.162,98.171 657.162,97.409 L657.162,86.456 C657.162,85.554 657.193,84.515 657.402,83.675 C658.043,81.245 659.879,78.401 662.938,78.401 C664.828,78.401 665.727,79.097 665.727,83.038 L665.727,97.409 C665.727,98.171 666.348,98.792 667.111,98.792 L671.711,98.792 C672.477,98.792 673.094,98.171 673.094,97.409 L673.094,86.456 C673.094,85.249 673.191,84.296 673.383,83.487 C674.039,80.952 675.969,78.401 678.777,78.401 C680.691,78.401 681.664,79.116 681.664,83.038 L681.664,97.409 C681.664,98.171 682.281,98.792 683.047,98.792 L687.645,98.792 C688.414,98.792 689.027,98.171 689.027,97.409 L689.027,82.046 C689.027,73.296 683.973,71.46 679.727,71.46" id="Fill-15" fill="#000000"></path>
        </g>
    </g>
</svg>