<?xml version="1.0" encoding="UTF-8"?>
<svg width="20px" height="18px" viewBox="0 0 20 18" version="1.1" xmlns="http://www.w3.org/2000/svg" xmlns:xlink="http://www.w3.org/1999/xlink">
    <!-- Generator: Sketch 53.2 (72643) - https://sketchapp.com -->
    <title>icon/burger/white</title>
    <desc>Created with Sketch.</desc>
    <g id="Page-1" stroke="none" stroke-width="1" fill="none" fill-rule="evenodd">
        <g id="02-Home---Initial" transform="translate(-20.000000, -16.000000)" fill="#000000">
            <g id="icon/burger/black" transform="translate(20.000000, 16.000000)">
                <path d="M4.05310077,3.17633825 L18.5013533,3.17633825 C19.3287181,3.17633825 20,2.4646331 20,1.58803679 C20,0.710646463 19.3287181,0 18.5013533,0 L1.49839699,0.000132336399 C0.670782388,0.000132336399 0,0.7107788 0,1.58816913 C0,2.46476543 0.670782388,3.17647059 1.49839699,3.17647059" id="Fill-1"></path>
                <path d="M4.05310077,10.588103 L18.5013533,10.588103 C19.3287181,10.588103 20,9.8763978 20,8.9998015 C20,8.12241117 19.3287181,7.41176471 18.5013533,7.41176471 L1.49839699,7.41189704 C0.670782388,7.41189704 0,8.12254351 0,8.99993383 C0,9.87653014 0.670782388,10.5882353 1.49839699,10.5882353" id="Fill-1-Copy"></path>
                <path d="M4.05310077,17.9998677 L18.5013533,17.9998677 C19.3287181,17.9998677 20,17.2881625 20,16.4115662 C20,15.5341759 19.3287181,14.8235294 18.5013533,14.8235294 L1.49839699,14.8236617 C0.670782388,14.8236617 0,15.5343082 0,16.4116985 C0,17.2882948 0.670782388,18 1.49839699,18" id="Fill-1-Copy-2"></path>
            </g>
        </g>
    </g>
</svg>