<?xml version="1.0" encoding="UTF-8"?>
<svg width="14px" height="14px" viewBox="0 0 14 14" version="1.1" xmlns="http://www.w3.org/2000/svg" xmlns:xlink="http://www.w3.org/1999/xlink">
    <!-- Generator: Sketch 53.2 (72643) - https://sketchapp.com -->
    <title>icon/X/white</title>
    <desc>Created with Sketch.</desc>
    <g id="Page-1" stroke="none" stroke-width="1" fill="none" fill-rule="evenodd">
        <g id="03---Pick-teams---ENG-Copy-27" transform="translate(-326.000000, -18.000000)" fill="#000000">
            <g id="icon/X/black" transform="translate(326.000000, 18.000000)">
                <path d="M8.29971912,5.70016009 L8.29971912,-0.993323933 C8.29971912,-1.71115589 7.71777156,-2.29310345 6.99993961,-2.29310345 C6.28210765,-2.29310345 5.70016009,-1.71115589 5.70016009,-0.993323933 L5.70016009,5.70016009 L-0.993323933,5.70016009 C-1.71127667,5.70016009 -2.29310345,6.28210765 -2.29310345,6.99993961 C-2.29310345,7.71789235 -1.71127667,8.29983991 -0.993323933,8.29983991 L5.70016009,8.29983991 L5.70016009,14.9933239 C5.70016009,15.7111559 6.28210765,16.2931034 6.99993961,16.2931034 C7.71777156,16.2931034 8.29971912,15.7111559 8.29971912,14.9933239 L8.29971912,8.29983991 L14.9932031,8.29983991 C15.7111559,8.29983991 16.2931034,7.71789235 16.2931034,6.99993961 C16.2931034,6.28198687 15.7111559,5.70016009 14.9932031,5.70016009 L8.29971912,5.70016009 Z" id="Fill-4" transform="translate(7.000000, 7.000000) rotate(-315.000000) translate(-7.000000, -7.000000) "></path>
            </g>
        </g>
    </g>
</svg>