<?xml version="1.0" encoding="UTF-8"?>
<svg width="60px" height="14px" viewBox="0 0 60 14" version="1.1" xmlns="http://www.w3.org/2000/svg" xmlns:xlink="http://www.w3.org/1999/xlink">
    <!-- Generator: Sketch 53.2 (72643) - https://sketchapp.com -->
    <title>TEAMZ-logo/white</title>
    <desc>Created with Sketch.</desc>
    <g id="Symbols" stroke="none" stroke-width="1" fill="none" fill-rule="evenodd">
        <g id="brand-bar/mobile" transform="translate(-150.000000, -18.000000)" fill="#000000" fill-rule="nonzero">
            <g id="TEAMZ-logo/black" transform="translate(150.000000, 18.000000)">
                <path d="M10.8205369,0.586352941 L10.8205369,3.00629412 C10.8205369,3.25252941 10.6993289,3.37647059 10.4589262,3.37647059 L7.3852349,3.37647059 C7.28416107,3.37647059 7.23302013,3.42876471 7.23302013,3.53170588 L7.23302013,13.5050588 C7.23302013,13.7512941 7.11181208,13.8748235 6.87100671,13.8748235 L4.00711409,13.8748235 C3.76630872,13.8748235 3.64510067,13.7508824 3.64510067,13.5050588 L3.64510067,3.53211765 C3.64510067,3.42917647 3.59395973,3.37688235 3.49288591,3.37688235 L0.515838926,3.37688235 C0.273422819,3.37688235 0.15261745,3.25294118 0.15261745,3.00670588 L0.15261745,0.586352941 C0.15261745,0.338470588 0.273825503,0.214941176 0.515838926,0.214941176 L10.4585235,0.214941176 C10.6993289,0.214941176 10.8205369,0.338882353 10.8205369,0.586352941 Z" id="Shape"></path>
                <path d="M21.2504698,3.35752941 L15.6785235,3.35752941 C15.5762416,3.35752941 15.5251007,3.40982353 15.5251007,3.51317647 L15.5251007,5.22982353 C15.5251007,5.33441176 15.5762416,5.38711765 15.6785235,5.38711765 L19.0751678,5.38711765 C19.3159732,5.38711765 19.4367785,5.51105882 19.4367785,5.75688235 L19.4367785,8.13770588 C19.4367785,8.38558824 19.3155705,8.50911765 19.0751678,8.50911765 L15.6785235,8.50911765 C15.5762416,8.50911765 15.5251007,8.56141176 15.5251007,8.66435294 L15.5251007,10.577 C15.5251007,10.6815882 15.5762416,10.7342941 15.6785235,10.7342941 L21.2508725,10.7342941 C21.4916779,10.7342941 21.6128859,10.8578235 21.6128859,11.1040588 L21.6128859,13.5050588 C21.6128859,13.7512941 21.4916779,13.8748235 21.2508725,13.8748235 L12.3004027,13.8748235 C12.0579866,13.8748235 11.9367785,13.7508824 11.9367785,13.5050588 L11.9367785,0.586352941 C11.9367785,0.338470588 12.0579866,0.214941176 12.3004027,0.214941176 L21.2504698,0.214941176 C21.4912752,0.214941176 21.6124832,0.338882353 21.6124832,0.586352941 L21.6124832,2.98611765 C21.6124832,3.234 21.4916779,3.35752941 21.2504698,3.35752941 Z" id="Shape"></path>
                <path d="M31.545906,13.5627059 L31.1641611,12.159 C31.1391946,12.0667647 31.0816107,12.0227059 30.9930201,12.0227059 L27.0237584,12.0227059 C26.933557,12.0227059 26.8779866,12.0667647 26.8510067,12.159 L26.4704698,13.5627059 C26.4193289,13.7722941 26.2860403,13.8756471 26.0685906,13.8756471 L22.9779866,13.8756471 C22.8507383,13.8756471 22.7573154,13.8361176 22.7013423,13.7582941 C22.6437584,13.6804706 22.6344966,13.5775294 22.6719463,13.447 L26.6416107,0.527882353 C26.7052349,0.319941176 26.8389262,0.214941176 27.0422819,0.214941176 L30.9732886,0.214941176 C31.1766443,0.214941176 31.3107383,0.319529412 31.3755705,0.527882353 L35.3436242,13.447 C35.355302,13.4848824 35.3637584,13.5314118 35.3637584,13.5837059 C35.3637584,13.7792941 35.2546309,13.8756471 35.0391946,13.8756471 L31.9465772,13.8756471 C31.7311409,13.8752353 31.5974497,13.7718824 31.545906,13.5627059 Z M27.6914094,9.07488235 C27.6914094,9.16670588 27.7365101,9.21117647 27.8251007,9.21117647 L30.1916779,9.21117647 C30.2420134,9.21117647 30.2806711,9.19552941 30.3052349,9.16176471 C30.3310067,9.13047059 30.3374497,9.08723529 30.3257718,9.03617647 L29.1032215,4.52776471 C29.0907383,4.46270588 29.062953,4.431 29.0178523,4.431 C28.9727517,4.431 28.9385235,4.46270588 28.912349,4.52776471 L27.6914094,9.03617647 L27.6914094,9.07488235 L27.6914094,9.07488235 Z" id="Shape"></path>
                <path d="M36.5452349,13.5054706 L36.5452349,0.586352941 C36.5452349,0.338470588 36.666443,0.214941176 36.9084564,0.214941176 L39.7522148,0.214941176 C39.9555705,0.214941176 40.1021477,0.300588235 40.1903356,0.469 L42.4993289,4.31364706 C42.5242953,4.36594118 42.5637584,4.39147059 42.6144966,4.39147059 C42.6644295,4.39147059 42.7026846,4.36594118 42.7296644,4.31364706 L45.037047,0.469 C45.127651,0.300588235 45.2730201,0.214941176 45.4767785,0.214941176 L48.3205369,0.214941176 C48.5613423,0.214941176 48.6821477,0.338882353 48.6821477,0.586352941 L48.6821477,13.5054706 C48.6821477,13.7517059 48.5609396,13.8752353 48.3205369,13.8752353 L45.4586577,13.8752353 C45.2158389,13.8752353 45.0950336,13.7512941 45.0950336,13.5054706 L45.0950336,6.61664706 C45.0950336,6.53882353 45.0732886,6.49270588 45.0281879,6.47994118 C44.9830872,6.46717647 44.9428188,6.49270588 44.9041611,6.55776471 L43.7218792,8.56841176 C43.6316779,8.73641176 43.4855034,8.82082353 43.2821477,8.82082353 L41.9468456,8.82082353 C41.7434899,8.82082353 41.5961074,8.73641176 41.5071141,8.56841176 L40.3240268,6.55776471 C40.2861745,6.50547059 40.2475168,6.47994118 40.2104698,6.47994118 C40.1589262,6.47994118 40.1327517,6.52605882 40.1327517,6.61664706 L40.1327517,13.5054706 C40.1327517,13.7517059 40.0115436,13.8752353 39.7711409,13.8752353 L36.9088591,13.8752353 C36.666443,13.8752353 36.5452349,13.7512941 36.5452349,13.5054706 Z" id="Shape"></path>
                <path d="M49.9465772,13.5054706 L49.9465772,10.8121176 C49.9465772,10.6552353 49.9973154,10.5057647 50.0987919,10.3624706 L55.5765101,3.55270588 C55.6014765,3.50041176 55.6139597,3.46705882 55.6139597,3.45429412 C55.6139597,3.38923529 55.5704698,3.35752941 55.4802685,3.35752941 L50.3081879,3.35752941 C50.0677852,3.35752941 49.9469799,3.23358824 49.9469799,2.98611765 L49.9469799,0.586352941 C49.9469799,0.338470588 50.0681879,0.214941176 50.3081879,0.214941176 L59.3363758,0.214941176 C59.5775839,0.214941176 59.6979866,0.338882353 59.6979866,0.586352941 L59.6979866,3.28011765 C59.6979866,3.43535294 59.646443,3.58482353 59.5457718,3.72770588 L54.0310067,10.5391176 C54.0052349,10.5914118 53.9919463,10.6231176 53.9919463,10.6358824 C53.9919463,10.7005294 54.037047,10.7342941 54.1256376,10.7342941 L59.3359732,10.7342941 C59.5771812,10.7342941 59.6975839,10.8578235 59.6975839,11.1040588 L59.6975839,13.5050588 C59.6975839,13.7512941 59.5767785,13.8748235 59.3359732,13.8748235 L50.3077852,13.8748235 C50.0677852,13.8752353 49.9465772,13.7512941 49.9465772,13.5054706 Z" id="Shape"></path>
            </g>
        </g>
    </g>
</svg>