<?xml version="1.0" encoding="UTF-8"?>
<svg width="30px" height="30px" viewBox="0 0 30 30" version="1.1" xmlns="http://www.w3.org/2000/svg" xmlns:xlink="http://www.w3.org/1999/xlink">
    <!-- Generator: Sketch 53.2 (72643) - https://sketchapp.com -->
    <title>Group 4</title>
    <desc>Created with Sketch.</desc>
    <g id="Page-1" stroke="none" stroke-width="1" fill="none" fill-rule="evenodd" opacity="0.200000003">
        <g id="03---Pick-teams---ENG-Copy-17" transform="translate(-310.000000, -546.000000)" fill-rule="nonzero">
            <g id="Group-3" transform="translate(0.000000, 535.000000)">
                <g id="Group-4" transform="translate(310.000000, 11.000000)">
                    <circle id="Oval" stroke="#000000" stroke-width="3" cx="15" cy="15" r="13.5"></circle>
                    <path d="M13.872,16.448 C13.6906658,16.448 13.6,16.3573342 13.6,16.176 L13.6,15.744 C13.6,15.210664 13.7359986,14.781335 14.008,14.456 C14.2800014,14.130665 14.6719974,13.7866685 15.184,13.424 C15.6000021,13.1359986 15.9093323,12.8800011 16.112,12.656 C16.3146677,12.4319989 16.416,12.1600016 16.416,11.84 C16.416,11.498665 16.2880013,11.224001 16.032,11.016 C15.7759987,10.807999 15.4400021,10.704 15.024,10.704 C14.5759978,10.704 14.2160014,10.8159989 13.944,11.04 C13.6719986,11.2640011 13.536,11.5519982 13.536,11.904 L13.536,12.08 C13.536,12.2506675 13.4453342,12.336 13.264,12.336 L11.552,12.272 C11.477333,12.272 11.4133336,12.2533335 11.36,12.216 C11.3066664,12.1786665 11.28,12.1333336 11.28,12.08 L11.28,11.904 C11.28,11.2639968 11.4399984,10.6960025 11.76,10.2 C12.0800016,9.70399752 12.5253305,9.32000136 13.096,9.048 C13.6666695,8.77599864 14.3253296,8.64 15.072,8.64 C15.797337,8.64 16.4346639,8.77066536 16.984,9.032 C17.5333361,9.29333464 17.9573318,9.65866432 18.256,10.128 C18.5546682,10.5973357 18.704,11.1413302 18.704,11.76 C18.704,12.2293357 18.6213342,12.6319983 18.456,12.968 C18.2906658,13.3040017 18.0906678,13.5786656 17.856,13.792 C17.6213322,14.0053344 17.3226685,14.2399987 16.96,14.496 C16.5759981,14.762668 16.2933342,14.991999 16.112,15.184 C15.9306658,15.376001 15.84,15.6106653 15.84,15.888 L15.84,16.176 C15.84,16.3573342 15.7493342,16.448 15.568,16.448 L13.872,16.448 Z M14.816,20.032 C14.4426648,20.032 14.122668,19.9066679 13.856,19.656 C13.589332,19.4053321 13.456,19.1040018 13.456,18.752 C13.456,18.3999982 13.5919986,18.0986679 13.864,17.848 C14.1360014,17.5973321 14.4586648,17.472 14.832,17.472 C15.1946685,17.472 15.5119986,17.5973321 15.784,17.848 C16.0560014,18.0986679 16.192,18.3999982 16.192,18.752 C16.192,19.1040018 16.0560014,19.4053321 15.784,19.656 C15.5119986,19.9066679 15.1893352,20.032 14.816,20.032 Z" id="?" fill="#000000"></path>
                </g>
            </g>
        </g>
    </g>
</svg>