<?xml version="1.0" encoding="UTF-8"?>
<svg width="10px" height="10px" viewBox="0 0 10 10" version="1.1" xmlns="http://www.w3.org/2000/svg" xmlns:xlink="http://www.w3.org/1999/xlink">
    <!-- Generator: Sketch 53.2 (72643) - https://sketchapp.com -->
    <title>icon/flag/eng copy 22</title>
    <desc>Created with Sketch.</desc>
    <g id="Page-1" stroke="none" stroke-width="1" fill="none" fill-rule="evenodd">
        <g id="03---Pick-teams---ENG-Copy-19" transform="translate(-65.000000, -1339.000000)">
            <g id="Group-15" transform="translate(0.000000, 1334.000000)">
                <g id="icon/flag/eng" transform="translate(65.000000, 5.000000)">
                    <g id="Group-426">
                        <path d="M0.156819338,3.79262087 C0.818015267,1.11959288 3.52063613,-0.509923664 6.19277354,0.151653944 C8.86562341,0.812722646 10.4950636,3.51501272 9.83391858,6.18753181 C9.17254453,8.85979644 6.47035623,10.4900763 3.79763359,9.82849873 C1.12534351,9.16743003 -0.505012723,6.4648855 0.156819338,3.79262087" id="Fill-423" fill="#FFFFFF"></path>
                        <path d="M5.91900763,0.0921119593 C5.31715013,-0.0221374046 4.71745547,-0.0218829517 4.14335878,0.0778625954 L4.14335878,4.0605598 L0.0982697201,4.0605598 C-0.0165139949,4.66208651 -0.0171246819,5.26157761 0.0819338422,5.83562341 L4.14335878,5.83562341 L4.14335878,9.90101781 C4.74625954,10.0063613 5.34600509,9.99770992 5.91900763,9.88931298 L5.91900763,5.83562341 L9.9075827,5.83562341 C10.0119338,5.23282443 10.0024173,4.63333333 9.89348601,4.0605598 L5.91900763,4.0605598 L5.91900763,0.0921119593" id="Fill-425" fill="#DB372D"></path>
                    </g>
                </g>
            </g>
        </g>
    </g>
</svg>