<?xml version="1.0" encoding="UTF-8"?>
<svg width="10px" height="10px" viewBox="0 0 10 10" version="1.1" xmlns="http://www.w3.org/2000/svg" xmlns:xlink="http://www.w3.org/1999/xlink">
    <!-- Generator: Sketch 53.2 (72643) - https://sketchapp.com -->
    <title>icon/flag/eng copy 26</title>
    <desc>Created with Sketch.</desc>
    <g id="Page-1" stroke="none" stroke-width="1" fill="none" fill-rule="evenodd">
        <g id="03---Pick-teams---ENG-Copy-19" transform="translate(-125.000000, -1339.000000)">
            <g id="Group-15" transform="translate(0.000000, 1334.000000)">
                <g id="icon/flag/fra" transform="translate(125.000000, 5.000000)">
                    <g id="Group-483">
                        <path d="M0.15,3.79949495 C0.811363636,1.1260101 3.51439394,-0.503535354 6.18686869,0.157828283 C8.86010101,0.819191919 10.489899,3.52171717 9.82878788,6.19469697 C9.16717172,8.86767677 6.46464646,10.4979798 3.79141414,9.83636364 C1.11868687,9.17525253 -0.511868687,6.47222222 0.15,3.79949495" id="Fill-479" fill="#FFFFFF"></path>
                        <path d="M0.15,3.79949495 C-0.471969697,6.31111111 0.93030303,8.8489899 3.31944444,9.69469697 L3.31944444,0.299494949 C1.79722222,0.841919192 0.567171717,2.11262626 0.15,3.79949495 Z" id="Fill-481" fill="#0166B3"></path>
                        <path d="M6.66691919,0.302272727 L6.66691919,9.69191919 C8.18560606,9.14772727 9.41212121,7.87828283 9.82878788,6.19469697 C10.4492424,3.68585859 9.05151515,1.15075758 6.66691919,0.302272727" id="Fill-482" fill="#DB372D"></path>
                    </g>
                </g>
            </g>
        </g>
    </g>
</svg>