<?xml version="1.0" encoding="UTF-8"?>
<svg width="10px" height="10px" viewBox="0 0 10 10" version="1.1" xmlns="http://www.w3.org/2000/svg" xmlns:xlink="http://www.w3.org/1999/xlink">
    <!-- Generator: Sketch 53.2 (72643) - https://sketchapp.com -->
    <title>icon/flag/eng copy 24</title>
    <desc>Created with Sketch.</desc>
    <g id="Page-1" stroke="none" stroke-width="1" fill="none" fill-rule="evenodd">
        <g id="03---Pick-teams---ENG-Copy-19" transform="translate(-185.000000, -1339.000000)">
            <g id="Group-15" transform="translate(0.000000, 1334.000000)">
                <g id="icon/flag/ger" transform="translate(185.000000, 5.000000)">
                    <g id="Group-499">
                        <path d="M0.154545455,3.8020202 C0.815858586,1.12878788 3.5189899,-0.501010101 6.19156566,0.160606061 C8.86484848,0.821717172 10.4945707,3.52449495 9.83330808,6.19747475 C9.17176768,8.87020202 6.46916667,10.5007576 3.7960101,9.83914141 C1.12325758,9.17777778 -0.507348485,6.475 0.154545455,3.8020202" id="Fill-495" fill="#FBCE24"></path>
                        <path d="M0.297929293,3.325 L9.68997475,3.325 C9.14641414,1.80505051 7.87638889,0.577272727 6.19156566,0.160353535 C3.68189394,-0.460606061 1.14545455,0.938636364 0.297929293,3.325" id="Fill-497" fill="#16140E"></path>
                        <path d="M9.87272727,6.02474747 C9.87494949,6.01414141 9.87712121,6.00353535 9.87929293,5.99292929 C9.88308081,5.97424242 9.88674242,5.95580808 9.89027778,5.93737374 C9.89237374,5.92651515 9.89444444,5.91565657 9.89641414,5.90505051 C9.89997475,5.88585859 9.90338384,5.86666667 9.90669192,5.84747475 C9.90843434,5.83787879 9.91010101,5.8280303 9.91174242,5.81843434 C9.91573232,5.79444444 9.91954545,5.77070707 9.92320707,5.74671717 C9.92393939,5.74191919 9.92472222,5.73712121 9.92542929,5.73232323 C9.92974747,5.70353535 9.93376263,5.67474747 9.93757576,5.6459596 C9.93858586,5.63838384 9.9394697,5.63080808 9.94042929,5.62323232 C9.94313131,5.6020202 9.94573232,5.58106061 9.94815657,5.55984848 C9.94926768,5.54974747 9.95035354,5.53964646 9.95143939,5.52979798 C9.9534596,5.51085859 9.95542929,5.49191919 9.95727273,5.4729798 C9.95825758,5.46262626 9.95924242,5.4520202 9.96017677,5.44166667 C9.96189394,5.42247475 9.9634596,5.40328283 9.965,5.38434343 C9.96573232,5.37449495 9.9665404,5.36489899 9.96724747,5.35505051 C9.96886364,5.33308081 9.97025253,5.31111111 9.9715404,5.28939394 C9.97191919,5.28282828 9.97237374,5.2760101 9.97280303,5.26944444 C9.97434343,5.24065657 9.97570707,5.21186869 9.97679293,5.18308081 C9.9769697,5.17828283 9.97704545,5.17373737 9.97722222,5.16893939 C9.97805556,5.14520202 9.97873737,5.12146465 9.97924242,5.09747475 C9.97939394,5.08838384 9.97949495,5.07954545 9.97964646,5.07045455 C9.97992424,5.05075758 9.98017677,5.03106061 9.98020202,5.01161616 C9.98027778,5.00176768 9.98020202,4.99191919 9.98020202,4.98207071 C9.98010101,4.96262626 9.97994949,4.94343434 9.97967172,4.92424242 C9.9795202,4.91489899 9.97939394,4.90530303 9.97919192,4.8959596 C9.97878788,4.87474747 9.97818182,4.85378788 9.97747475,4.83282828 C9.97722222,4.82550505 9.97707071,4.81818182 9.97679293,4.81085859 C9.97467172,4.75378788 9.9715404,4.6969697 9.96744949,4.64015152 C9.96686869,4.63282828 9.96626263,4.62525253 9.96568182,4.61792929 C9.96409091,4.59722222 9.96239899,4.57626263 9.96055556,4.55555556 C9.95972222,4.54646465 9.95886364,4.53762626 9.9580303,4.52853535 C9.95618687,4.50909091 9.95421717,4.48939394 9.95214646,4.46994949 C9.95118687,4.46111111 9.95020202,4.4520202 9.94921717,4.44318182 C9.94689394,4.42247475 9.94439394,4.40176768 9.94176768,4.38106061 C9.94088384,4.37373737 9.94005051,4.36666667 9.93906566,4.35934343 C9.93176768,4.30277778 9.9234596,4.24646465 9.91421717,4.19040404 C9.91335859,4.18535354 9.91244949,4.18055556 9.91161616,4.17525253 C9.90782828,4.15277778 9.90388889,4.13005051 9.89974747,4.10757576 C9.89835859,4.09974747 9.89686869,4.09191919 9.89540404,4.08434343 C9.89161616,4.06414141 9.88772727,4.04393939 9.88368687,4.02373737 C9.88209596,4.01565657 9.88045455,4.00757576 9.87881313,3.99974747 C9.87454545,3.9790404 9.87017677,3.95833333 9.86563131,3.93762626 C9.86409091,3.93080808 9.86265152,3.9239899 9.86113636,3.91717172 C9.85550505,3.89166667 9.84964646,3.86666667 9.84361111,3.84141414 L9.84229798,3.83560606 C9.83593434,3.80934343 9.82941919,3.78308081 9.82260101,3.75656566 L9.8225,3.75656566 C9.78477273,3.61060606 9.7405303,3.46641414 9.68994949,3.325 L0.297954545,3.325 C0.24290404,3.48005051 0.19489899,3.63914141 0.154545455,3.8020202 C-0.0111111111,4.47121212 -0.0329040404,5.14191919 0.0691161616,5.78207071 C0.0695959596,5.78510101 0.0700757576,5.78787879 0.0705050505,5.79065657 C0.0742171717,5.81414141 0.0781565657,5.83737374 0.0822979798,5.86060606 C0.0831313131,5.86565657 0.084040404,5.87045455 0.0849242424,5.87550505 C0.0888383838,5.89722222 0.0928282828,5.91893939 0.0970454545,5.94065657 C0.0982828283,5.94722222 0.0995959596,5.95378788 0.100833333,5.96010101 C0.104873737,5.98055556 0.109015152,6.00126263 0.113282828,6.02171717 C0.114924242,6.02929293 0.116641414,6.03712121 0.118308081,6.04494949 C0.122449495,6.06439394 0.126641414,6.08358586 0.131085859,6.1030303 C0.133131313,6.11212121 0.13530303,6.1209596 0.13739899,6.13005051 C0.141666667,6.14823232 0.145858586,6.16641414 0.15030303,6.18434343 C0.153636364,6.19823232 0.15719697,6.21186869 0.160707071,6.22550505 C0.165909091,6.2459596 0.171212121,6.26641414 0.176666667,6.28686869 C0.182045455,6.30681818 0.187474747,6.3270202 0.193106061,6.3469697 C0.195580808,6.35580808 0.198207071,6.36464646 0.200732323,6.37348485 C0.206212121,6.39242424 0.211717172,6.41161616 0.217449495,6.43055556 C0.22010101,6.43939394 0.222878788,6.44823232 0.225606061,6.45707071 C0.231388889,6.4760101 0.237222222,6.49494949 0.243257576,6.51363636 C0.246010101,6.52247475 0.248888889,6.53106061 0.251691919,6.53964646 C0.257853535,6.55858586 0.264141414,6.57752525 0.270479798,6.59646465 C0.273358586,6.60479798 0.276313131,6.61338384 0.279217172,6.6219697 C0.285782828,6.64090909 0.292449495,6.65984848 0.299242424,6.67878788 C0.300808081,6.68308081 0.30229798,6.68762626 0.303888889,6.69191919 L0.304015152,6.69191919 C0.308282828,6.70378788 0.312373737,6.71540404 0.316691919,6.7270202 L9.67058081,6.7270202 C9.67484848,6.71540404 9.67876263,6.70378788 9.68295455,6.69191919 L9.68363636,6.69191919 C9.69411616,6.66287879 9.70409091,6.63333333 9.71406566,6.60378788 C9.71502525,6.6010101 9.71606061,6.5979798 9.71704545,6.59520202 C9.73002525,6.55681818 9.74247475,6.51792929 9.75457071,6.4790404 C9.75623737,6.47373737 9.75800505,6.46818182 9.75969697,6.46287879 C9.77085859,6.42651515 9.7814899,6.38964646 9.79189394,6.35277778 C9.7940404,6.34520202 9.79641414,6.33762626 9.79853535,6.32979798 C9.81068182,6.28585859 9.82232323,6.24191919 9.83333333,6.19747475 C9.84042929,6.16868687 9.84717172,6.13989899 9.85373737,6.11136364 C9.85588384,6.1020202 9.85785354,6.09292929 9.85987374,6.08383838 C9.86429293,6.06414141 9.86861111,6.04444444 9.87272727,6.02474747" id="Fill-498" fill="#DB423B"></path>
                    </g>
                </g>
            </g>
        </g>
    </g>
</svg>