<?xml version="1.0" encoding="UTF-8"?>
<svg width="10px" height="10px" viewBox="0 0 10 10" version="1.1" xmlns="http://www.w3.org/2000/svg" xmlns:xlink="http://www.w3.org/1999/xlink">
    <!-- Generator: Sketch 53.2 (72643) - https://sketchapp.com -->
    <title>icon/flag/eng copy 25</title>
    <desc>Created with Sketch.</desc>
    <g id="Page-1" stroke="none" stroke-width="1" fill="none" fill-rule="evenodd">
        <g id="03---Pick-teams---ENG-Copy-19" transform="translate(-245.000000, -1339.000000)">
            <g id="Group-15" transform="translate(0.000000, 1334.000000)">
                <g id="icon/flag/ita" transform="translate(245.000000, 5.000000)">
                    <g id="Group-491">
                        <path d="M0.16489899,3.79949495 C0.826262626,1.1260101 3.52929293,-0.503535354 6.2020202,0.157828283 C8.87525253,0.819191919 10.504798,3.52171717 9.84368687,6.19469697 C9.18207071,8.86767677 6.47954545,10.4979798 3.80631313,9.83636364 C1.13358586,9.17525253 -0.496969697,6.47222222 0.16489899,3.79949495" id="Fill-487" fill="#FFFFFF"></path>
                        <path d="M3.33434343,0.299242424 C1.81212121,0.841919192 0.582070707,2.11262626 0.16489899,3.79949495 C-0.457070707,6.31111111 0.94520202,8.8489899 3.33434343,9.69469697 L3.33434343,0.299242424" id="Fill-489" fill="#009D49"></path>
                        <path d="M6.68181818,0.302272727 L6.68181818,9.69191919 C8.20050505,9.14772727 9.4270202,7.87828283 9.84368687,6.19469697 C10.4643939,3.68585859 9.06641414,1.15075758 6.68181818,0.302272727" id="Fill-490" fill="#DB372D"></path>
                    </g>
                </g>
            </g>
        </g>
    </g>
</svg>