<?xml version="1.0" encoding="UTF-8"?>
<svg width="10px" height="10px" viewBox="0 0 10 10" version="1.1" xmlns="http://www.w3.org/2000/svg" xmlns:xlink="http://www.w3.org/1999/xlink">
    <!-- Generator: Sketch 53.2 (72643) - https://sketchapp.com -->
    <title>icon/flag/eng copy 27</title>
    <desc>Created with Sketch.</desc>
    <g id="Page-1" stroke="none" stroke-width="1" fill="none" fill-rule="evenodd">
        <g id="03---Pick-teams---ENG-Copy-19" transform="translate(-243.000000, -1351.000000)">
            <g id="Group-15" transform="translate(0.000000, 1334.000000)">
                <g id="icon/flag/spa" transform="translate(243.000000, 17.000000)">
                    <g id="Group-37">
                        <path d="M0.170959596,3.8045202 C0.832323232,1.13111111 3.53535354,-0.498560606 6.20808081,0.162954545 C8.88131313,0.824217172 10.5111111,3.52689394 9.84974747,6.19984848 C9.18813131,8.87275253 6.48560606,10.5031566 3.81237374,9.84151515 C1.13964646,9.18027778 -0.490909091,6.47739899 0.170959596,3.8045202" id="Fill-33" fill="#DB372D"></path>
                        <path d="M0.314393939,3.32757576 L9.70631313,3.32757576 C9.16287879,1.80752525 7.89292929,0.579722222 6.20808081,0.162954545 C3.69823232,-0.458232323 1.16186869,0.940984848 0.314393939,3.32757576" id="Fill-35" fill="#DB372D"></path>
                        <path d="M9.88914141,6.02717172 C9.89141414,6.0165404 9.89368687,6.00590909 9.89570707,5.99530303 C9.89949495,5.97676768 9.90328283,5.95823232 9.90681818,5.93974747 C9.90883838,5.9289899 9.91085859,5.91823232 9.91287879,5.90755051 C9.91641414,5.88835859 9.91994949,5.86916667 9.92323232,5.84997475 C9.925,5.84030303 9.92651515,5.83065657 9.92828283,5.8209596 C9.93232323,5.79704545 9.93611111,5.7730303 9.93964646,5.74909091 C9.94040404,5.74439394 9.94116162,5.73964646 9.94191919,5.73489899 C9.94621212,5.70611111 9.95025253,5.67732323 9.9540404,5.64856061 C9.95505051,5.64093434 9.95580808,5.63330808 9.95681818,5.62570707 C9.95959596,5.60454545 9.96212121,5.58340909 9.96464646,5.56229798 C9.96565657,5.55227273 9.96691919,5.54224747 9.96792929,5.53222222 C9.96994949,5.51325758 9.97171717,5.49434343 9.97373737,5.47545455 C9.97474747,5.465 9.97575758,5.4545202 9.97676768,5.44406566 C9.97828283,5.425 9.98005051,5.40585859 9.98156566,5.38676768 C9.98232323,5.37707071 9.98308081,5.36732323 9.98358586,5.35762626 C9.98535354,5.33568182 9.98661616,5.31373737 9.98787879,5.29179293 C9.98838384,5.28515152 9.98888889,5.27848485 9.98914141,5.27186869 C9.99090909,5.24305556 9.99217172,5.21426768 9.99318182,5.1855303 C9.99343434,5.18080808 9.99343434,5.17613636 9.99368687,5.1714899 C9.99444444,5.14762626 9.99520202,5.12381313 9.99570707,5.10002525 C9.9959596,5.09098485 9.9959596,5.08194444 9.99621212,5.07290404 C9.99646465,5.05325758 9.99646465,5.03361111 9.99671717,5.0140404 C9.99671717,5.00416667 9.99671717,4.99426768 9.99671717,4.98439394 C9.99646465,4.96517677 9.99646465,4.94598485 9.99621212,4.92676768 C9.9959596,4.91729798 9.9959596,4.90780303 9.99570707,4.89833333 C9.99520202,4.87727273 9.99469697,4.85623737 9.99393939,4.83522727 C9.99368687,4.82792929 9.99343434,4.82063131 9.99318182,4.81333333 C9.99116162,4.75631313 9.98787879,4.69944444 9.98383838,4.64272727 C9.98333333,4.63527778 9.98282828,4.62782828 9.98207071,4.62035354 C9.98055556,4.59959596 9.97878788,4.57881313 9.9770202,4.55810606 C9.97626263,4.54911616 9.97525253,4.54005051 9.97449495,4.5310101 C9.97272727,4.51146465 9.97070707,4.49194444 9.96843434,4.47244949 C9.96767677,4.46348485 9.96666667,4.45457071 9.96565657,4.44563131 C9.96338384,4.42489899 9.96085859,4.40421717 9.95833333,4.38356061 C9.95732323,4.37633838 9.95656566,4.3690404 9.95555556,4.36181818 C9.94823232,4.30530303 9.93989899,4.2489899 9.93055556,4.19295455 C9.92979798,4.18790404 9.9290404,4.18287879 9.9280303,4.17782828 C9.92424242,4.15515152 9.92045455,4.13255051 9.91616162,4.10997475 C9.91489899,4.10224747 9.91338384,4.0945202 9.91186869,4.08681818 C9.90808081,4.06656566 9.9040404,4.04636364 9.9,4.02618687 C9.89848485,4.01813131 9.8969697,4.01012626 9.89520202,4.00214646 C9.89090909,3.98143939 9.88661616,3.96080808 9.88207071,3.94015152 C9.88055556,3.93330808 9.8790404,3.92643939 9.87752525,3.91954545 C9.8719697,3.89424242 9.86616162,3.8690404 9.86010101,3.84383838 L9.85883838,3.83820707 C9.85227273,3.81179293 9.84570707,3.78542929 9.83914141,3.75916667 L9.83888889,3.75916667 C9.80126263,3.61305556 9.75707071,3.4690404 9.70631313,3.32757576 L0.314393939,3.32757576 C0.259343434,3.4825 0.211363636,3.64151515 0.170959596,3.8045202 C0.0053030303,4.47353535 -0.0164141414,5.14431818 0.0856060606,5.78459596 C0.0861111111,5.78739899 0.0866161616,5.79027778 0.0868686869,5.79313131 C0.0906565657,5.81651515 0.0946969697,5.83984848 0.0987373737,5.86315657 C0.0997474747,5.8680303 0.100505051,5.8729798 0.101515152,5.87792929 C0.10530303,5.89972222 0.109343434,5.9214899 0.113383838,5.94323232 C0.114646465,5.94969697 0.115909091,5.95613636 0.117171717,5.96262626 C0.121464646,5.98315657 0.125505051,6.00368687 0.12979798,6.02414141 C0.131313131,6.03186869 0.133080808,6.03957071 0.13459596,6.04732323 C0.138888889,6.06671717 0.143181818,6.08613636 0.147474747,6.10550505 C0.149494949,6.11454545 0.151767677,6.12353535 0.153787879,6.13257576 C0.158080808,6.15073232 0.162373737,6.16883838 0.166666667,6.18691919 C0.17020202,6.20060606 0.173737374,6.21424242 0.177020202,6.22790404 C0.182323232,6.24840909 0.187626263,6.26881313 0.193181818,6.28919192 C0.198484848,6.30936869 0.204040404,6.3294697 0.20959596,6.34949495 C0.212121212,6.35838384 0.214646465,6.36717172 0.217171717,6.37598485 C0.222727273,6.395 0.228282828,6.41401515 0.233838384,6.4329798 C0.236616162,6.44184343 0.239393939,6.45070707 0.241919192,6.45959596 C0.247979798,6.4784596 0.253787879,6.49729798 0.25959596,6.51613636 C0.262373737,6.52484848 0.26540404,6.53353535 0.268181818,6.54222222 C0.274242424,6.56113636 0.280555556,6.58002525 0.286868687,6.59888889 C0.28989899,6.60737374 0.292676768,6.61588384 0.295707071,6.62431818 C0.302272727,6.64333333 0.308838384,6.66229798 0.315656566,6.68118687 C0.317171717,6.68560606 0.318686869,6.69007576 0.320454545,6.69449495 C0.324747475,6.70618687 0.328787879,6.71790404 0.333080808,6.72957071 L9.68712121,6.72957071 C9.69116162,6.71792929 9.69520202,6.70613636 9.69949495,6.69449495 L9.7,6.69449495 C9.71060606,6.66530303 9.72045455,6.63580808 9.73055556,6.60633838 C9.73156566,6.60343434 9.73257576,6.60058081 9.73358586,6.59775253 C9.74646465,6.55924242 9.75883838,6.52050505 9.7709596,6.4815404 C9.77272727,6.47608586 9.77449495,6.47073232 9.77626263,6.46525253 C9.78737374,6.42883838 9.7979798,6.39214646 9.80833333,6.35535354 C9.81060606,6.34762626 9.81287879,6.33997475 9.81515152,6.33219697 C9.82727273,6.28838384 9.83888889,6.24429293 9.84974747,6.19984848 C9.85681818,6.17113636 9.86363636,6.14244949 9.87020202,6.11373737 C9.87222222,6.10459596 9.87424242,6.09540404 9.87626263,6.08616162 C9.88080808,6.06651515 9.88510101,6.04681818 9.88914141,6.02717172" id="Fill-36" fill="#FBCE24"></path>
                    </g>
                </g>
            </g>
        </g>
    </g>
</svg>