<svg width="32" height="32" viewBox="0 0 32 32" fill="none" xmlns="http://www.w3.org/2000/svg">
<path d="M18.45 24C18.45 24.3956 18.3356 24.7822 18.1214 25.1112C17.9071 25.44 17.6025 25.6964 17.2462 25.8477C16.8899 25.999 16.4978 26.0388 16.1196 25.9616C15.7413 25.8844 15.3938 25.6938 15.1211 25.4142C14.8485 25.1345 14.6627 24.7781 14.5874 24.3901C14.5122 24.0022 14.5509 23.6001 14.6985 23.2346C14.846 22.8692 15.096 22.5568 15.4167 22.337C15.7373 22.1173 16.1143 22 16.5 22C17.0171 22 17.5132 22.2107 17.8789 22.5857C18.2446 22.9608 18.45 23.4696 18.45 24ZM16.5 6C12.9153 6 10 8.6916 10 12V12.6667C10 13.0203 10.137 13.3595 10.3808 13.6095C10.6245 13.8595 10.9552 14 11.3 14C11.6448 14 11.9755 13.8595 12.2192 13.6095C12.463 13.3595 12.6 13.0203 12.6 12.6667V12C12.6 10.1667 14.3502 8.66666 16.5 8.66666C18.6499 8.66666 20.4 10.1667 20.4 12C20.4 13.8333 18.6499 15.3333 16.5 15.3333C16.1552 15.3333 15.8245 15.4739 15.5808 15.7239C15.337 15.9739 15.2 16.3131 15.2 16.6667V18C15.2 18.3536 15.337 18.6928 15.5808 18.9428C15.8245 19.1928 16.1552 19.3333 16.5 19.3333C16.8448 19.3333 17.1755 19.1928 17.4192 18.9428C17.663 18.6928 17.8 18.3536 17.8 18V17.88C20.764 17.3216 23 14.8967 23 12C23 8.6916 20.0848 6 16.5 6Z" fill="#0A0434"/>
</svg>
